<mxfile host="app.diagrams.net" modified="2021-01-26T04:48:09.395Z" agent="5.0 (X11; Linux x86_64) AppleWebKit/537.36 (KHTML, like Gecko) Chrome/87.0.4280.141 Safari/537.36" etag="OCcnymlHX-EMpHbRLU1F" version="14.2.7" type="github">
  <diagram id="C5RBs43oDa-KdzZeNtuy" name="Page-1">
    <mxGraphModel dx="1360" dy="806" grid="1" gridSize="10" guides="1" tooltips="1" connect="1" arrows="0" fold="1" page="1" pageScale="1" pageWidth="827" pageHeight="1169" math="0" shadow="0">
      <root>
        <mxCell id="WIyWlLk6GJQsqaUBKTNV-0" />
        <mxCell id="WIyWlLk6GJQsqaUBKTNV-1" parent="WIyWlLk6GJQsqaUBKTNV-0" />
        <mxCell id="zkfFHV4jXpPFQw0GAbJ--0" value="Person" style="swimlane;fontStyle=2;align=center;verticalAlign=top;childLayout=stackLayout;horizontal=1;startSize=26;horizontalStack=0;resizeParent=1;resizeLast=0;collapsible=1;marginBottom=0;rounded=0;shadow=0;strokeWidth=1;" parent="WIyWlLk6GJQsqaUBKTNV-1" vertex="1">
          <mxGeometry x="230" y="10" width="160" height="138" as="geometry">
            <mxRectangle x="230" y="140" width="160" height="26" as="alternateBounds" />
          </mxGeometry>
        </mxCell>
        <mxCell id="zkfFHV4jXpPFQw0GAbJ--1" value="Name" style="text;align=left;verticalAlign=top;spacingLeft=4;spacingRight=4;overflow=hidden;rotatable=0;points=[[0,0.5],[1,0.5]];portConstraint=eastwest;" parent="zkfFHV4jXpPFQw0GAbJ--0" vertex="1">
          <mxGeometry y="26" width="160" height="26" as="geometry" />
        </mxCell>
        <mxCell id="zkfFHV4jXpPFQw0GAbJ--2" value="Phone Number" style="text;align=left;verticalAlign=top;spacingLeft=4;spacingRight=4;overflow=hidden;rotatable=0;points=[[0,0.5],[1,0.5]];portConstraint=eastwest;rounded=0;shadow=0;html=0;" parent="zkfFHV4jXpPFQw0GAbJ--0" vertex="1">
          <mxGeometry y="52" width="160" height="26" as="geometry" />
        </mxCell>
        <mxCell id="zkfFHV4jXpPFQw0GAbJ--3" value="Email Address" style="text;align=left;verticalAlign=top;spacingLeft=4;spacingRight=4;overflow=hidden;rotatable=0;points=[[0,0.5],[1,0.5]];portConstraint=eastwest;rounded=0;shadow=0;html=0;" parent="zkfFHV4jXpPFQw0GAbJ--0" vertex="1">
          <mxGeometry y="78" width="160" height="26" as="geometry" />
        </mxCell>
        <mxCell id="zkfFHV4jXpPFQw0GAbJ--4" value="" style="line;html=1;strokeWidth=1;align=left;verticalAlign=middle;spacingTop=-1;spacingLeft=3;spacingRight=3;rotatable=0;labelPosition=right;points=[];portConstraint=eastwest;" parent="zkfFHV4jXpPFQw0GAbJ--0" vertex="1">
          <mxGeometry y="104" width="160" height="8" as="geometry" />
        </mxCell>
        <mxCell id="zkfFHV4jXpPFQw0GAbJ--5" value="Purchase Parking Pass" style="text;align=left;verticalAlign=top;spacingLeft=4;spacingRight=4;overflow=hidden;rotatable=0;points=[[0,0.5],[1,0.5]];portConstraint=eastwest;" parent="zkfFHV4jXpPFQw0GAbJ--0" vertex="1">
          <mxGeometry y="112" width="160" height="26" as="geometry" />
        </mxCell>
        <mxCell id="zkfFHV4jXpPFQw0GAbJ--6" value="Student" style="swimlane;fontStyle=0;align=center;verticalAlign=top;childLayout=stackLayout;horizontal=1;startSize=26;horizontalStack=0;resizeParent=1;resizeLast=0;collapsible=1;marginBottom=0;rounded=0;shadow=0;strokeWidth=1;" parent="WIyWlLk6GJQsqaUBKTNV-1" vertex="1">
          <mxGeometry x="130" y="250" width="160" height="138" as="geometry">
            <mxRectangle x="130" y="380" width="160" height="26" as="alternateBounds" />
          </mxGeometry>
        </mxCell>
        <mxCell id="zkfFHV4jXpPFQw0GAbJ--7" value="Student Number" style="text;align=left;verticalAlign=top;spacingLeft=4;spacingRight=4;overflow=hidden;rotatable=0;points=[[0,0.5],[1,0.5]];portConstraint=eastwest;" parent="zkfFHV4jXpPFQw0GAbJ--6" vertex="1">
          <mxGeometry y="26" width="160" height="26" as="geometry" />
        </mxCell>
        <mxCell id="zkfFHV4jXpPFQw0GAbJ--8" value="Average Mark" style="text;align=left;verticalAlign=top;spacingLeft=4;spacingRight=4;overflow=hidden;rotatable=0;points=[[0,0.5],[1,0.5]];portConstraint=eastwest;rounded=0;shadow=0;html=0;" parent="zkfFHV4jXpPFQw0GAbJ--6" vertex="1">
          <mxGeometry y="52" width="160" height="26" as="geometry" />
        </mxCell>
        <mxCell id="zkfFHV4jXpPFQw0GAbJ--9" value="" style="line;html=1;strokeWidth=1;align=left;verticalAlign=middle;spacingTop=-1;spacingLeft=3;spacingRight=3;rotatable=0;labelPosition=right;points=[];portConstraint=eastwest;" parent="zkfFHV4jXpPFQw0GAbJ--6" vertex="1">
          <mxGeometry y="78" width="160" height="8" as="geometry" />
        </mxCell>
        <mxCell id="zkfFHV4jXpPFQw0GAbJ--10" value="Is Eligibale To Enroll" style="text;align=left;verticalAlign=top;spacingLeft=4;spacingRight=4;overflow=hidden;rotatable=0;points=[[0,0.5],[1,0.5]];portConstraint=eastwest;fontStyle=4" parent="zkfFHV4jXpPFQw0GAbJ--6" vertex="1">
          <mxGeometry y="86" width="160" height="26" as="geometry" />
        </mxCell>
        <mxCell id="zkfFHV4jXpPFQw0GAbJ--11" value="Get Seminars Taken" style="text;align=left;verticalAlign=top;spacingLeft=4;spacingRight=4;overflow=hidden;rotatable=0;points=[[0,0.5],[1,0.5]];portConstraint=eastwest;" parent="zkfFHV4jXpPFQw0GAbJ--6" vertex="1">
          <mxGeometry y="112" width="160" height="26" as="geometry" />
        </mxCell>
        <mxCell id="zkfFHV4jXpPFQw0GAbJ--12" value="" style="endArrow=block;endSize=10;endFill=0;shadow=0;strokeWidth=1;rounded=0;edgeStyle=elbowEdgeStyle;elbow=vertical;" parent="WIyWlLk6GJQsqaUBKTNV-1" source="zkfFHV4jXpPFQw0GAbJ--6" target="zkfFHV4jXpPFQw0GAbJ--0" edge="1">
          <mxGeometry width="160" relative="1" as="geometry">
            <mxPoint x="210" y="93" as="sourcePoint" />
            <mxPoint x="210" y="93" as="targetPoint" />
          </mxGeometry>
        </mxCell>
        <mxCell id="zkfFHV4jXpPFQw0GAbJ--13" value="Professor" style="swimlane;fontStyle=0;align=center;verticalAlign=top;childLayout=stackLayout;horizontal=1;startSize=26;horizontalStack=0;resizeParent=1;resizeLast=0;collapsible=1;marginBottom=0;rounded=0;shadow=0;strokeWidth=1;" parent="WIyWlLk6GJQsqaUBKTNV-1" vertex="1">
          <mxGeometry x="340" y="250" width="160" height="70" as="geometry">
            <mxRectangle x="340" y="380" width="170" height="26" as="alternateBounds" />
          </mxGeometry>
        </mxCell>
        <mxCell id="zkfFHV4jXpPFQw0GAbJ--14" value="Salary" style="text;align=left;verticalAlign=top;spacingLeft=4;spacingRight=4;overflow=hidden;rotatable=0;points=[[0,0.5],[1,0.5]];portConstraint=eastwest;" parent="zkfFHV4jXpPFQw0GAbJ--13" vertex="1">
          <mxGeometry y="26" width="160" height="26" as="geometry" />
        </mxCell>
        <mxCell id="zkfFHV4jXpPFQw0GAbJ--15" value="" style="line;html=1;strokeWidth=1;align=left;verticalAlign=middle;spacingTop=-1;spacingLeft=3;spacingRight=3;rotatable=0;labelPosition=right;points=[];portConstraint=eastwest;" parent="zkfFHV4jXpPFQw0GAbJ--13" vertex="1">
          <mxGeometry y="52" width="160" height="8" as="geometry" />
        </mxCell>
        <mxCell id="zkfFHV4jXpPFQw0GAbJ--16" value="" style="endArrow=block;endSize=10;endFill=0;shadow=0;strokeWidth=1;rounded=0;edgeStyle=elbowEdgeStyle;elbow=vertical;" parent="WIyWlLk6GJQsqaUBKTNV-1" source="zkfFHV4jXpPFQw0GAbJ--13" target="zkfFHV4jXpPFQw0GAbJ--0" edge="1">
          <mxGeometry width="160" relative="1" as="geometry">
            <mxPoint x="220" y="263" as="sourcePoint" />
            <mxPoint x="320" y="161" as="targetPoint" />
          </mxGeometry>
        </mxCell>
        <mxCell id="zkfFHV4jXpPFQw0GAbJ--17" value="Address" style="swimlane;fontStyle=0;align=center;verticalAlign=top;childLayout=stackLayout;horizontal=1;startSize=26;horizontalStack=0;resizeParent=1;resizeLast=0;collapsible=1;marginBottom=0;rounded=0;shadow=0;strokeWidth=1;" parent="WIyWlLk6GJQsqaUBKTNV-1" vertex="1">
          <mxGeometry x="518" y="10" width="160" height="216" as="geometry">
            <mxRectangle x="550" y="140" width="160" height="26" as="alternateBounds" />
          </mxGeometry>
        </mxCell>
        <mxCell id="zkfFHV4jXpPFQw0GAbJ--18" value="Street" style="text;align=left;verticalAlign=top;spacingLeft=4;spacingRight=4;overflow=hidden;rotatable=0;points=[[0,0.5],[1,0.5]];portConstraint=eastwest;" parent="zkfFHV4jXpPFQw0GAbJ--17" vertex="1">
          <mxGeometry y="26" width="160" height="26" as="geometry" />
        </mxCell>
        <mxCell id="zkfFHV4jXpPFQw0GAbJ--19" value="City" style="text;align=left;verticalAlign=top;spacingLeft=4;spacingRight=4;overflow=hidden;rotatable=0;points=[[0,0.5],[1,0.5]];portConstraint=eastwest;rounded=0;shadow=0;html=0;" parent="zkfFHV4jXpPFQw0GAbJ--17" vertex="1">
          <mxGeometry y="52" width="160" height="26" as="geometry" />
        </mxCell>
        <mxCell id="zkfFHV4jXpPFQw0GAbJ--20" value="State" style="text;align=left;verticalAlign=top;spacingLeft=4;spacingRight=4;overflow=hidden;rotatable=0;points=[[0,0.5],[1,0.5]];portConstraint=eastwest;rounded=0;shadow=0;html=0;" parent="zkfFHV4jXpPFQw0GAbJ--17" vertex="1">
          <mxGeometry y="78" width="160" height="26" as="geometry" />
        </mxCell>
        <mxCell id="zkfFHV4jXpPFQw0GAbJ--21" value="Postal Code" style="text;align=left;verticalAlign=top;spacingLeft=4;spacingRight=4;overflow=hidden;rotatable=0;points=[[0,0.5],[1,0.5]];portConstraint=eastwest;rounded=0;shadow=0;html=0;" parent="zkfFHV4jXpPFQw0GAbJ--17" vertex="1">
          <mxGeometry y="104" width="160" height="26" as="geometry" />
        </mxCell>
        <mxCell id="zkfFHV4jXpPFQw0GAbJ--22" value="Country" style="text;align=left;verticalAlign=top;spacingLeft=4;spacingRight=4;overflow=hidden;rotatable=0;points=[[0,0.5],[1,0.5]];portConstraint=eastwest;rounded=0;shadow=0;html=0;" parent="zkfFHV4jXpPFQw0GAbJ--17" vertex="1">
          <mxGeometry y="130" width="160" height="26" as="geometry" />
        </mxCell>
        <mxCell id="zkfFHV4jXpPFQw0GAbJ--23" value="" style="line;html=1;strokeWidth=1;align=left;verticalAlign=middle;spacingTop=-1;spacingLeft=3;spacingRight=3;rotatable=0;labelPosition=right;points=[];portConstraint=eastwest;" parent="zkfFHV4jXpPFQw0GAbJ--17" vertex="1">
          <mxGeometry y="156" width="160" height="8" as="geometry" />
        </mxCell>
        <mxCell id="zkfFHV4jXpPFQw0GAbJ--24" value="Validate" style="text;align=left;verticalAlign=top;spacingLeft=4;spacingRight=4;overflow=hidden;rotatable=0;points=[[0,0.5],[1,0.5]];portConstraint=eastwest;" parent="zkfFHV4jXpPFQw0GAbJ--17" vertex="1">
          <mxGeometry y="164" width="160" height="26" as="geometry" />
        </mxCell>
        <mxCell id="zkfFHV4jXpPFQw0GAbJ--25" value="Output As Label" style="text;align=left;verticalAlign=top;spacingLeft=4;spacingRight=4;overflow=hidden;rotatable=0;points=[[0,0.5],[1,0.5]];portConstraint=eastwest;" parent="zkfFHV4jXpPFQw0GAbJ--17" vertex="1">
          <mxGeometry y="190" width="160" height="26" as="geometry" />
        </mxCell>
        <mxCell id="zkfFHV4jXpPFQw0GAbJ--26" value="" style="endArrow=open;shadow=0;strokeWidth=1;rounded=0;endFill=1;edgeStyle=elbowEdgeStyle;elbow=vertical;" parent="WIyWlLk6GJQsqaUBKTNV-1" source="zkfFHV4jXpPFQw0GAbJ--0" target="zkfFHV4jXpPFQw0GAbJ--17" edge="1">
          <mxGeometry x="0.5" y="41" relative="1" as="geometry">
            <mxPoint x="390" y="82" as="sourcePoint" />
            <mxPoint x="550" y="82" as="targetPoint" />
            <mxPoint x="-40" y="32" as="offset" />
          </mxGeometry>
        </mxCell>
        <mxCell id="zkfFHV4jXpPFQw0GAbJ--27" value="0..1" style="resizable=0;align=left;verticalAlign=bottom;labelBackgroundColor=none;fontSize=12;" parent="zkfFHV4jXpPFQw0GAbJ--26" connectable="0" vertex="1">
          <mxGeometry x="-1" relative="1" as="geometry">
            <mxPoint y="4" as="offset" />
          </mxGeometry>
        </mxCell>
        <mxCell id="zkfFHV4jXpPFQw0GAbJ--28" value="1" style="resizable=0;align=right;verticalAlign=bottom;labelBackgroundColor=none;fontSize=12;" parent="zkfFHV4jXpPFQw0GAbJ--26" connectable="0" vertex="1">
          <mxGeometry x="1" relative="1" as="geometry">
            <mxPoint x="-7" y="4" as="offset" />
          </mxGeometry>
        </mxCell>
        <mxCell id="zkfFHV4jXpPFQw0GAbJ--29" value="lives at" style="text;html=1;resizable=0;points=[];;align=center;verticalAlign=middle;labelBackgroundColor=none;rounded=0;shadow=0;strokeWidth=1;fontSize=12;" parent="zkfFHV4jXpPFQw0GAbJ--26" vertex="1" connectable="0">
          <mxGeometry x="0.5" y="49" relative="1" as="geometry">
            <mxPoint x="-38" y="40" as="offset" />
          </mxGeometry>
        </mxCell>
        <mxCell id="wQ62t_w65snC_HTTtGNE-0" value="" style="shape=image;verticalLabelPosition=bottom;labelBackgroundColor=#ffffff;verticalAlign=top;aspect=fixed;imageAspect=0;image=data:image/png,iVBORw0KGgoAAAANSUhEUgAAAxAAAAIbCAIAAAD0K+/dAAAgAElEQVR4AexdCVgTx9sPHrXnV0/AerTWVm31X61KvXUJ4VZRsdZbvA+Ugrcg1lsRNdW2VkWtrdaraj3xoh544RnFAxVvEUVAzkCSDeR7djfZzG52NpuDsMDk4Qmzs7Mz7/zmfWd+mZ15R9ISfRACCAGEAImARK4g/tAHIVC6CJB6iIwSISA2BCRiEwjJgxBACJQWAogwlS5PQKXrEUCEqbS6AFQuLwKIMPHCg24iBCoSAtyEaVmCPp6af+L8lkgkteqV+Hhf6RNpyOJpvq6VSqgkp9qdxiyc3adR5RLKv2xl61S78/ilP/X9vBTQQISpInU7ZaiuiDCVocZCoiIEShYBDsIkhC1RFMoBbKBqp5WPCy/NaGrxEO70UaOO/rLm/+fEL2Tl/81RFN5b4laFP5ltd53+r834P84/yVIVFWuuz25ereWsi28erfP/2EmgkMJLtzFDh6DBXRtEmErW0FHuViKACJOVwKHHEALlDwEOwsQ5n8QZyT302TXWasL0jnTNS9WFKY3NTE05giJUbRd1T/X032kBXdu16/DNJ+9Ubjzsr7OxER3flwgUUjiiNmboCDQglUGEqfx1LuWiRogwlYtmRJVACNgDAU7CNOpiOutPIleYxkCGPrtGlwPCVOmLqRcKk5d3qGoKjI38xu4ZIsJkD5tCeZQnBBBhKk+tieqCELAJAeGEacDZ1yBnIh4EP5Xq9V5x9MqDVzkqXKNMS/pv/cSOtfWzO5VcfefvOZ+UmqPSqHOe7Rz6CRFf+RNZ+PZLz3JUquynl7bNlNY1vnR7t0m/5bF30pTqgvR7p+JuZKn0r+SY9KJSo9CzhSm/ub9DSFHZ1X361otPsgpV+ekPT0d2rEZO3hTp9J/C3T+8DwprDBMUQZ2hiIt/kFmozn916+DS3o2r0berfuo/d9fF5PT8grePz24a3/Zj4gVfpfqBq05cT36VXYjjhVlPL275sX11/Ys/zvREERqDJJpLM5pWbRR6VvVqnec7QoXkALByk7F7kl7nqnBN3qvEAwt861HwERCZ1JpTKrqOYIBEI//5vYfpSjWrarD2otB4+DqHQCPz/tHoCWMX7riQnK4szEu98c/0zjXpd6L8YqAZJpvsGD1cUgggwlRSyKJ8EQJlDgHhhAlkS6MuprMJEzHWqlL3Te/p6eEVMGrJkWeqvEuzvyW5BzkMvzo4K0DapatXz06fVZZI3mu36EZBrmLjxJ7u7gGT/riZq7w2z+1dYux2+thrzUN19rWYSb1lHt2Hzdlzv0BtjjC95zbvWn5u4l9T+sq6Sf379+vkWol626WI9v2mRYsWLb5uAFvLRLIZ5d2dc0b28fbqG7r5Rq763s/YhySL+KBz9B3li9if+nZu077nzAPP1S9ifP9PIiFr+vLfqd093GU9R/98LgN/EePzkUQi4Uv/eEP/loQkzT+v/U5lBmFSCRNSzQTQ6eP/eQfIOrZt2ylg+r9P1OnbAknSRnJKZoYQqUCeRIfJlnpzfOEgfw93v+HLz6QbqgZvLwqNPaE+3bpKe0/d8wQvyrq0dmKgl9R7yIrzWfgjeReS0cLAoYtGhKnM9R0VQ2BEmCpGO6NaIgQEIMBJmPSRnOuWwEh6tCPmeJirp991W3xLk74lgCASrFsSiVONH/7JUiXMaKafVarydfgV1dsdfT+WSJxqDz2QV3g27HP97BT4Sg42w1S93863RG6MhdvMxKCkjDBLtsrNZl5SZ+/qR0hSc9DenOx/B9empkgqNZh0WpW+ya8aqzpV2iy6o362ultVgemJKSomYbJ1oVXlryOuFiZHtyde+ZnUGioVAwXDBRONKq0X3qaqBm8vJhqVv5x2UZW+0YfiSO96x7xWXZlFtLJ5MRBhEmCtKInjEUCEyfGYoxIRAiJFgJswGQZQ43/WCziJhGuGCdxuVrXbL8/Vtxe0rsJBmKq2X/ZArR/iySKqdlr5SH1vqVsVSdUOy5PVD5a1M5AfAYTJJDcySxPqYKwLGGJSBImkatdVT9V3FrWpIqnaPjpZW4SrVYaPRlusOjKyjhPzEadaww8X5m/rXU1gejsRpmqfByzYdT7pRUZ25svHqbn4818wTsIElQoEgQ6zqlYzyFA1aHsxCZPkwwF7CwsPDKlO5lil5dybqvtRRFuaFwMRJpH2EBVdLESYKroGoPojBGgELCBMH1LDoGF0ZVEo5lhrYB4LIYQpOhlGmNqTt+gV0iBhqor98lx1eaZ+Xopew0RyLJB+kRK+I12TYsUuOSPPI7LVpPw5qEUz46dJ/Y8rsyiC5OPB+wsLdgZWE5qeNcNkjZCSyi3CrxRkJ6wO8mjbokWbPr/cUhsJEzNDqFSGZmT8ZzUiXTWqUcg5LDK9keCy0KgWuLNAdTiIWrhU+atwYuqLaEvzYiDCRNskCogJAUSYxNQaSBaEQKkiwEGYVl5nDKLUBYsemZ1hqtxs5mX9uy3WmEqsU6rRf3e2KoH2rlTl61mXVVk7vydehBG31NfmfEO91ZGAhKly84hr6rTN3T8gRaIJk1PtIftyTV7JEUO06g5J2DiqQ0exKEK1tgsTNRlbe31Evhzcn6e5MbelXhLYIwZW4VR7qKD0IGGyTkiJ5IMBewtVh/S8pFLDkDOFesJkkiFUKro6YICFBl01eHuxGhdGmMyLgQhTqfYDqHAYAogwwZBB8QiBCocAB2GiyBA5gOnvcobBgVa/UEmTf2fnnBG9vTx7h2xSGFdPs4Zh4sH32y+6UZCj2BDcA8N6Ttp0M1d5ff5375FZvtduoUJZkLx3zmAfrKt795mH3hh2yUmqtJxzXaW8vSU00Mvd3WvExiQ1tUvuo24r76ry72ybOcAX6ybrNSyg5fsSp1oD92RrHu0K7eHu0TOofwfjbi2G4IRsqtR9U/3du2J+w+YfeFyYd2l2a2qf3P+5/5ykUt77Z/YQP/duHt0HhwztQKwdZ1XHwCokEmHpQcJkgZDg605JlW/nJarfnl851LNd61Zteqy8odITJo4MIVIxUDBcQKsGby/mIzDCBAXHUDKlaRXO/FCFRY8AIkyibyIkIELAUQhwEyZ6GBMeIAZOcn9+cqZKo3x961BUH8P+fOaYqs+ycj3PiB2Xn+eoVDnPLm2f5QG4Fajs0jVs0+kH6QW4Vp335tH148t7uuo3p7/bdMCqE/epO+lPb8X/NeprcuF41QbeEdsTnmQV4urc1Jt/DKxfSSJ558tBa88/y1HjBelJe8dT6UzqU6l+4M9xisfp+WqtRvnm3smYSbQ3BIlEUrWBz+xtFx9lFuB4QcbjhLX9iHxZ1TESJmHpQcIkUEhWiUQlPmw1Oib+YWahVqspyH79+OaB0JbUsi+OWnPWwgQJIoJVEFg1WHsxH4ETJgg4tBhohslRJo/KsQgBRJgsggslRgiUZwTsSpgYsyD0UIgCCAHzCCDCVJ67mTJcNyNh4ptv55yER5EIAYRAySBQWj0KIkzmx3KUwgEIkGZVWlaAykUIwBBAhEmBmCJCQGwIwMy1pOMrCGFych51VGXwtk3/L6JdBjmAEZgvwmFCOqwg83WmUyDCVNKmjvK3CgETwkSrLAogBBACjkegVIcKuxEmx+NmUYlVan7+TSv2p2WLBh/RJ3dYlF3JJHaYkA4rSDhOpWoFVo2k6KEKgQAiTMKNGKVECJQ8AqU6VFQUwlTyzYhKsAmBUrWCCjHyo0pahQAiTDbZNXoYIWBnBEp1qECEyc6tibKzDoFStQKrRlL0UIVAABEm6wwaPYUQKBkESnWo0BMmUgYURgiULgIVYgRGlSxTCCDCVDLDHsoVIWAdAiIgTBj6IARKFQGKqJWpkRQJWyEQMEeYliWY/5EhkUhq1bNudLDgqUqfSEMWT/N11Z9bbsGTwpI61e40ZuHsPo30R6YLe6jcpnKq3Xn80p/6fl7KaAhslEoNey/dsXZEE0JaMFwWmwcRplIdqlHhYkAAEaYKwT7KYCV5CZMQtkTN3jtgZAKPkbKoOKePGnX0lzUnjjHg+zB91PKltOGe0/+1Gf/H+SdZqqJizfXZzau1nHXxzaN1/h87CRRSeNE2ZugQNMzXhkeMqh0WJaYnrcCIEzSqtF18V3V7AXG0KyMMpjFfmIAUNqIqoITSHSqo0sUwZCIZKjICpWsFZXAcRyI7CAFewiR8KYOQkcDGNFYTpneka15acVC5jeJyPl61XdQ91dN/pwV0bdeuwzefvFO58bC/zsZGdHxfIlBIzlw5I23MkIepcBZXQpE8YlRuPmH3uX1hrYjDUGGECUxjFwltRFWIDGiGqSIzBVR3EgFEmBw0/qNiLETADGEadTGd9SeRK0xjhAwEtqYpB4Sp0hdTLxQmL+9Q1RQLu4/ENmbIw1RMhS+5GIFiwAiT3QWzEVUh8pRxwrR161Ycx2lnkLAAjuNbtmxB9AAhwIlA6RImqnT0XcER4KRS1hCmAWdfg5yJgBX8VKrXe8XRKw9e5ahwjTIt6b/1E+kDLCu5+s7fcz4pNUelUec82zn0E2JBUuVPZOHbLz3LUamyn17aNlMKnLv5bpN+y2PvpCnVBen3TsXdyDIcVM4ctyo1Cj1bSB1ULpFUdnWfvvXik6xCVX76w9ORHauRkzdFho67cPcP74PCGsPE2EweF/ogs1Cd/+rWwaW9DceFEudufuo/d9fF5PT8grePz24a3/Zj4gVfpfqBq05cT36VXYjjhVlPL275sX11/Ys/zvREERqDJJpLM5pWbRR6VvVqnec7QoXkALByk7F7kl7nqnBN3qvEAwt861HLjgiITGrNKZURAiBEopH//N7DdKWaVTVYe1FoPHydQ6CRef9o9ISxC3dcSE5XFual3vhnemfjAfEWipGhiIs3bRSQS8EIE5iGp7EquXSdvPnsw8xCjUaZ+SwxflcI+XIPgMMQZKNa2/+PN2pFZAv9Uq/KLSIVqmeru1WDmwBMlwwlUJ0Up606IJIqnR7D2vn3dZJfE9JvVlp5tb1vbwzDhLAlygRwHKcLQgGEAIiAGKxAiNqjNOUYAc7+1hrCBLKlURfTCcjADzFKqVL3Te/p6eEVMGrJkWeqvEuzv61GJCGH4VcHZwVIu3T16tnps8oSyXvtFt0oyFVsnNjT3T1g0h83c5XX5rm9SyR2+thrzUN19rWYSb1lHt2Hzdlzv0B9aUZTYmyCEqb33OZdy89N/GtKX1k3qX//fp1cK1GJFdG+37Ro0aLF1w1ga5kI2TTKuzvnjOzj7dU3dPONXPW9n7EPyZp90Dn6jvJF7E99O7dp33PmgefqFzG+/0dVR/Xy36ndPdxlPUf/fC4DfxHj85FEIuFL/3hD/5aEJM0/r/1OZQZhUgkTUs0E0Onj/3kHyDq2bdspYPq/T9Tp2wJJ0kZCxMwQIhXYdnSYbKk3xxcO8vdw9xu+/Ey6oWrw9iLb/eWeUJ9uXaW9p+55ghdlXVo7MdBL6j1kxfks/JG8C/H2DAoOXTQY4GkU4pbheFchhIkSj6OxCJ1RKu/tnNnfG3P3GbY2UZP7dy9SXUFJqDAb1UrVB+zOKTw5gTi2XiJxchl1tCBrW58PybK4TQCmG3RZYpphEsiW6E4TwzDD7wHo/6LMe6f3b1235VxakQ4cI1EYIUAjQGkU54jlgEi9PtMmiQIVDQF4J2yGMNFdoZkACCg4kkkkknfdFt/SpG8JIIgE65ZE4lTjh3+yVAkzmul/olf5OvyK6u2Ovh9LJE61hx7IKzwb9rl+Wxz4Sg5GmKr32/mWyI1Y/Et/mInpaHaAJVvlZjMvqbN39SMkqTlob072v4NrU7NHlRpMOq1K3+RXjVWdKm0W3VE/W92tqsD0xBQVkzBdmNLYzB5AlpCsOlT+OuJqYXJ0e+KVn0mtoVKxMqEumQVVab3wNlU1eHsx0aj85bSLKvpsrne9Y16rrswiWtkWMSRAozCKE0qYDARLIqEbS/Jx3x1v1Yq5LSk2R56rZYYwgc3k5Bx0MDc/doQLoRvvd9+cnn9klKsTEz3QBMxXH26rDhsqWOMWZfvVFp9sEhTebOj0D+bFUjFdZN6dZd6dvPw7eXdv3WuoRK4wEqa8c/NlXzRoHrjuLj2lqqdQBXuGulavXqdL1B0tIkw00ijAQIBSMAcoPGcR+sGOs2NEkRUBAXgnbI4wmaLDmk+SSAj1Aj+s0UJStdsvz9XUFib2LUnV9sseqPVDPJlH1U4rH6nvLXWrIqnaYXmy+sGydgbyI4AwmeRGZmlCHUBhjWG2bFW7rnqqvrOoTRVJ1fbRydoiXK0yfDTaYtWRkXVY46JTreGHC/O39a4mML2dCFO1zwMW7Dqf9CIjO/Pl49Rc/PkvGCdhgkplhAAIMdFwqhlkqBq0vRgMRiL5cMDewsIDQ6qTeVZpOfem6n4U0Za2iCGRGBuFUZzlhIlurCrtou6rH63opF9XZilhkjjVGbIvJ/fAMGcnUpkL4kM/q8SQjQDAaALmqw+3Vc7O3b6R1FBBj136kUOucJJfa9f9eyq+s5dflajz9C0wQBMm7f2V7nWqV6/h2m9bZjFzsgkRJhpeFIAhQCmVfXVbeG56lQa6QxSsWAjAO2GrCNOH1DBowNAcYSKZx0JiWQhzGCZGkvbRyTDCRN2iV0iDhKkq9stz1eWZ+nkpeg0TybFA+kVK+I50TYoVu+SAQa7D8mRNyp+DWjQzfprU/7gyuzofD95fWLAzsBohhpD0rBkma4SUVG4RfqUgO2F1kEfbFi3a9PnlltpImJgZQqUyNCPjP6ul6KrB24uFRrXAnQWqw0HUwqXKX4UTU19EW9okBsA8GMVZTpgkdI06rnioprgcAYB5wsRElZgy67czIy92pGvV5hHXCq7M+qqyqZ5TPI8wAfPVh9uq8B7f6pTUUEEPYzQZem/BcToSw7Cas7ZL5IrK0QlVoi9Wib5Iv7mjCZOuOOPyprnhS/ckKZl0SadDhAlEEoU5EUCEidEbowsHIwDvhHkJ08rrHHKy6JHZGabKzWZe1r/bYgxyZNZONfrvzlYlUCuTiP3hX8+6rMra+T3xIoy4pb425xvqXYkEJEyVm0dcU6dt7v4BmQlNmJxqD9mXa/JKjhijVHdIwsZRHTqKRRGqtV2YqMnY2usj8uXg/jzNDcNbG/oJdnUMY7BT7aGC0oOEyTohJZIPBuwtVB3S85JKDUPOFOoJk0mGUKmM9QFCLDToqsHbi4UGjDDZJAbQKIziSMJEzgbqXQzow2AtwLBEQhMmJ5dRRwoK40P1b37NECYTVAnI3pf9/lx5dqr3jAvKq+FfEy+XWWUBJmC++nBbtZoGCX8QRpgqrbzawSeAGtu6eHi9szReIle09w+kYrpKZfSDen6kOjK2YY3qtb6NuES8kivOvrZxkt+3jVyd6zZt79akFnolx0kTUKQBAUSYgL4YBR2OALwT5iVMFBkiH6Y0mPubVR1itNDk39k5Z0RvL8/eIZsUxtXTrIGEePD99otuFOQoNgT3wLCekzbdzFVen/8d4YyQWA++UKEsSN47Z7AP1tW9+8xDbwy75CRVWs65rlLe3hIa6OXu7jViY5Ka2iX3UbeVd1X5d7bNHOCLdZP1GhbQ8n2JU62Be7I1j3aF9nD36BnUv4NxtxZDcEI2Veq+qf7uXTG/YfMPPC7MuzS7NbX49//cf05SKe/9M3uIn3s3j+6DQ4Z2INaOs6pjYBUSibD0IGGyQEjjQhyCYX47L1H99vzKoZ7tWrdq02PlDZWeMHFkCJGKgYLhAlo1eHsxH4ERJig4hpIZ/3kaBSyuUqOwc+r8C0v9v/w/JzAMpgHDAGGSONXqufkFnnlh1SjfLp19hi05kaqFr2HiQJWYJ/12XqIq9flL/fwSpRgQE4DpBl1tuK0K5z1Wp6R5DzVygfb+wbzY5gNDvvlhfPXZe8B4MGycYQIJU9HLbQMb16xevUatel82a1y3Vo3qiDAZmAH6z4kApVRWq7GND+pVmjZJKiDEjTM69IIFWhm9hHfC5giTFRUmRiZyf35ypkqjfH3rUFQfw/581qBFZV65nmfEjsvPc1SqnGeXts/yANwKVHbpGrbp9IP0Alyrznvz6Prx5T1d9fv23206YNWJ+9Sd9Ke34v8aRf62l1Rt4B2xPeFJViGuzk29+cdAYv/SO18OWnv+WY4aL0hP2jueSmdSsUr1A3+OUzxOz1drNco3907GTKK9IRBjYgOf2dsuPsoswPGCjMcJa/sR+bKqYyRMwtKDhEmgkKwSiUp82Gp0TPzDzEKtVlOQ/frxzQOhLallXxy15qyFCRJEBKsgsGqw9mI+AidMEHA4xeBpFEZxTs7eS04+zry7rENVCRAG04BhkDBJJE4ftRyx5sStlByV8vWtU5ef4dl/9YTskoM0U6V6Iw/nFBWeDvmMWrRPlAUxAZgu0dWH26qNw4CQx6mhgh7DQDLEGb4/rQb1Rz9oOsOkTV4lc65RvXabKSffFut02dv7o0XfNMIowIkApU5CNLYk0uhVnTZJiUQihC1RMwvgUyUUBl+2WFSEwIMKWF2lRUUITizqQy/gnXAJESbGLIhgDFFChEApI6BfbUVuNLRAlHc7rbj/Zu8gcq+cKd20ICNyC4VcURLDgJA8ad5DDWP6kUOueH/+0YbBK5oNmfbV4Cmfjov66KcDErni/rQaulvR1N/9aTUYu+SAGSZV7JgGNarXbBZ2Wk2wKbSGiZMioEgQAdERJooMCfm2yNitS2w1YbJy/5N1UvI/Je5DLxBh4m89dLcCI1CleeCPo773xTq27+I3cvnptMK7UR1IR2ACMHn/s1Zu33zrPmpjYsaVyNb61XYm83MCMjImgduqEMZjYxpTwlRpxZXmA0PAwYwKtwockRxRQ/P2APWXHMFDmIjlTDW/mHhChQiTKZAohgMBERImlvdBygEhK5IQ2wGfckCYRH7oBbwTrnAzTOSqXv17A+O/ItplkAP03XwRDhPSYQXx17k0xXCq5R995u6LzHy1piDzyeU9i3p/8a5Qeap8O/tyrkaVef94dMCnBv8X5WuGqW7o7xwDGhn1aFF1amCTyBWPyTDnGqaiJ7/5uNSoXrPJoC2PVWiGCYYmigcQKCuECR16UT4PvXAoYeIfG0v9bpWan3/Tiv1p2aLBR/rFUaUuICGAw4R0WEH8sIpEDFrIUpQHbqs2zh4JeZwaqOiRSyJXvLcorqN3jw4+PTt69yA9Vfp08u7ewadne78+H83ZT72Jo75hr+R0xZnHf2xVp0b16jWcGzZt3vRT5xpo0TcNMQpwIVBWCJOZGSZiMRA69AJ6SIZ4D72Ad8IlMMNEjzoogBBACFiKANxWhTAeG9OYEiYqBvZNLGNK0dMmKGHS6XSaF3HLR/u0bly3Tq06dT/7yk0aOPvQK3Q0ChdXQHEYhomQMMFMgB0P2jtr9TQ69AJySIadfDgD0Nt46AW8E0aECUAZBRECpY4A3FZtJENCHqd6f3rM7uzpyx4PSPHoSN+gWUt+3+UbNEsiV3Tx8DS+kjO+7eYL0QWhAEIARIBSMCEaWxJp9OoNdgWci5NMI1kxLMIE87tLFmRyTAU69AJsAJMwG1uJRGK/Qy/gnbAJYWJ2iHTPiAIIAYSAwxAoiWFASJ5UBcGhiz+8/9g5v6Dw/cfO0clwHOejSMA9HMfpp1AAIQAiQOmhEI0tiTR6MwfHaBYTom7JFRJ06EWz8njohXDCBGotCiMEEAIORkAMQ4UtVd66dasQzoTj+JYtW2wpCD1bjhEQgxWAfEmCDr2oUIdeIMJUjjsXVLXyhIAYhoryhCeqS1lEQAxWwCBM6NCLCnXoBSJMZbHXQDJXQATEMFRUQNhRlUWFgBisgE2YrLgm1tlAPP5zLMGRSGCHKBCeStChF8wG4ADQfodeIMIkqu4ACYMQgCEghqECJhuKRwg4BgExWAFzfLbqimNQtyof9JCDEUCEyTF2jkpBCNiIgCiGCrK/oCRB3wiB0kKgJBZ0C8lTX1/bB2lEmGzHsFRysIIwtfPv6yS/JsRUKq282t63t43jBHocIYAQEIkHGtQQCIHSRYAad4SQm5JIU0EIk9DzDEqFshgKLR0hrSBMAtkSzaiEGJi057DJc6JWR/3YWyokOUqDEKhwCIhhqKhwoKMKiwwBMViBYcguv/9L8TwD4aCWipBWECaaCUnkimqLTzYJCm82dPoH82KpePKQBO9OXv6dvLu37jWUcvKrNzq/H7fezVKmXVo9XMYyQ+95Z9Q6HZ68aQQiTCxo0CVCgERADEMFagqEQOkiIAYrED6mo5TlDQFbCJOT/Fq77t9T9tPZy69K1HmQS9Fh2sCkw2Lu4Tpdserikp7udCwZQISJiQe6QgiwERDDUMGWCV0jBByLgBisoLyRAFQf4QjYQpjeW3AcNJaas7ZL5IrK0QlVoi9Wib5Iv7kzpnEPCF7x964/5gf5GOOoECJMbETQNUKAiYAYhgqmRJZdCXRcCXj8RkEdcuPJUjIxWAElA/qusAhwLo9jH41CKy4NU6WVVzv4BFDxXTy83lkaL5Er2vsHUjFdpTIqJf0g5hl+LL9YV/RyVzDxSs69+zj54Zsvc9W4KuPJ87dF6JWcESkUQgiwEaCsidNWHRDJsmUrdn4IcfONKJIpAuigGNASRGUFoGAoXBEQ4FE/84RJIld8MC+2+cCQb34YX332Hiov028jjiBhkn6/5Fx2kU5XXFSQlZGtKirWIcJkRAqFEAJsBHhs1fGEiZ4/NrV3zhjw8N2EPxZEH3iqNaUGKAZEoOjVmbXzVp1I0+l0bFWowNeisoIK3A4VtOo86ieIMHF2jven1aD+qLtGaAHCJB289i5erNO+2De1hzuGdV98Hi36NgKFQggBEwR4bNXxhAk0fIE7P2gyENXF1W3uNaEn8dKPWRIozlVsnOD1zacuNWvU6RqdpLq1UvZFq9BjOcXFeU8vHTuVlEv8PrPLxxuLGnYAACAASURBVMYMNZfnd2zsFnG20FQYTUJ4S1cP+QNEmEBTEJUVgIKhcEVAgEf9zBOm9+cfbRi8otmQaV8NnvLpuKiPfjogkSvuT6uhuxVN/d2fVoOxSw4gTJ7hx5XFuqKM/ZPJDXNoDVNF0DZUR1sQ4LHVUiRMwnd+0JSg5AmT5spPbi7/G7Tq8PkrVy7ffqXWPt421qfv8ksFOvWZyc1cPH95XERLY2PAxgy1SRuGeg/8LVFtKgYiTFzWIior4BIQxZVnBHjUj48wVVpxpfnAEFNgWgWOSI6ooXl7gPpLjuAhTORypqzYGZ5ENogwmYKJYhACIAI8tlqKhEn4zg+aEpQ4YSp6tNrTtfXsyxq6SDpgI7+h86EDds+QzhkRJlD7DWFRWYFBKAv+C9z6gBb7W4CpA5PyqB8fYaob+jtMyEeLqlOZSuSKx2TYmBKYYZIO+C1RU6wrens2aqAnIkxGjFAIIcCNAI+tliJhEr7zg2YCUV2cP+8S4NumkavzJ007/DD34GMVfU/z/NiSIFnrxp+4ftbSJ3jj9Rzi3VnRy/0zenVt3bSha+3arp/+Tzbm9yvZ+ndqnOm1d6K61Kmu/9TxkD/QPF3j49I09KSanGGqabjlOnRPAV0yI1CUdmLREC+3pg1c6jg3aDF8+6sinTZ50xC3JvVdatep17Rj/4UnUqlFWARhMsmQUypGAYYLQlTgBWVh8t7Zfdt9WdfZtbFb94DOn7qgV3IsYxCVFZTo1ge02J/V9GK45FE/PsL03qK4jt49Ovj07Ojdg/RU6dPJu3sHn57t/fp8NGc/9SaO+oa9ksPce844mIoX63TFeH5mWkYeEUSOK8WgE0gGcSLAY6ulSJiE7/wwcARdVJc6db8bHvXXgbj/9q0Z37m+s9vMs/nkXeXFyHZ1v+67dN9FxZVYef/mzl+HnMjV6QhW4dJs0Oqjp+NPxW6e6f157a9D4vJ0Oh1f+paT9ty6e/fu3aQnGWotgzC5dIk8cZu4dS8FtpaJKNG56Q8rD5+5cP6/2IRnWp2uOOdO3OFTl65fTzj886BvnBuP3E+SNnKGiZkhRCq6/mAAJEzFOf9N/ta5YbeQdQdPnT66LWpIW1dnRJhYxigqK7Bl6wOoBWC4KPPe6f1b1205l1aEFvuzGr/0L3nUj48wUY/BvollTCl62gQlTBiGyfpN33AiMSVbhRfhqtz050mXds4ORJ6+S18rkARiRIDHVkuXMMH6ATAe3CXHmFPRPpB7ODcM2puj0xW/3TW4QcNBOzOo2aOilHX+Lo2Dj6tIwmSchsEV89s5t5h+TiMwPTFFxSRM5tcwgTwGHM2osPbecsy1deQV4pWfySs5qFSm+egoLqivWnHG9v71XH1+e6JfX4VeyXFZoWitwLKtD3nn5su+aNA8cN1d9nvjgj1DXatXr9Ml6o4WESYuDSjVOB71gxKmzp6+YFdoGvYNmrXk912+QbMkckUXD3KNUqlWEhWOECgHCPDYaikSJs6dH6Z9ApQw6TTnZ/zPud18Ba7TXIlsXatmbWcXw6dOrRougX+lFzPpS3Hm1u9dPxl5UCUwvZ0Ik+rJ4YVBXm5ff96wUbOWTevXbj7tLCdhgkpljjBpLs9u7dxmzhXD9kFEmLiMVpxWYOnWB+39le51qlev4dpvWyZrwyYiTFzNLpY4HvWDEiazsu8/ds4vKHz/sXNmU6IECAGEgEAEeGy1VAgTz86PqlHnWJyJhzCdm9bcuf3CG7iOYAx1vhq36+4D4yf5ZY6WNcOky9k5wNV1+H6V0PSsGaavBOySY1I0Yibo7gp314ay6X+fvn73ruLAtA7ORsLEzBAqlVnCdCWytXPrSHqpOiJMXIYhNiug5LF460NxxuVNc8OX7klSstUCESauZhdLHI/6WU+YxFI5JAdCoBwhwGOrpUKYeHZ+NBqziJKW/oYSJtX1BR3rfD76UJ5OV5yxfUC9Op2X3GLvsWfRFwNhEpoeJEwEnXFpt+CGYRqHPVzpr1kl6nTK3YNdXfr9/ZacDih6sdbPVU+YTDKESsVZFFBQcdaeoQ2du0Xd1lcfESYu4xWbFVDyWLz1QXVkbMMa1Wt9G3GJmKYszr62cZLft41cnes2be/WpBZ6JcfV9GKI41E/RJjE0EBIBoSAHgEeWy0VwsS/84OSlv5mEiaXpgNXH4s/f/b4tkX9W7rW84i+Qe2Ty42f6eZS121Y9I7j8edOH925dvtlYlk2wCoI1mEgTDqdsPQgYSrO/GdIwzqtgtYciT8d+/eeyxQDMuEyrBJ1Ovzm4o7On3mFbz955Uai4kh4Zxc9YeLIECKVSSFEBKOgwisLutR1bT04amfc2fPxR+X9vkC75NjmLzYroDVc4KEXei0ACVPRy20DG9esXr1GrXpfNmtct1aN6ogwsZtdLNc86ocIk1gaCcmBEMAwjMdWS4Uw0UOFkABImPbPDOjSsvEnzrXq1P3CrUfIuksZRjeSmpS46JGyVo0IBwKft5SF7X1ZxGIVIGHS6YSkBwmTTqd+uCvMq0UD59qujd0Gb7zHfUILg8dQY1x+4uYQ328budaqVce1YZOWnfqvuUVNU3FkyCmVecKk02nTzv8W7N+msWvtWs71vmjVtffsWHQ0CsP6y5YVmB56YUqYtMmrZM41qtduM+UkQd+zt/dHi74ZTS6mCx71Q4RJTA2FZKnwCPDYquMJk9mdHyCLonZ+cBIGFCkEgQqv+0YARGUFtJJzbn3gPPTClDCpYsc0qFG9ZrOw0+S7WLSGydjY4gvxqB+bMNHKgQIIAYRAaSHgAG7EWQRVX1t6MBw3s3BICHWogGmQA0NQ6yg95FRRB0SyrEAiV/BsfeA89IKLMBHLmWp+MfEE+V4aESawucUW5lE/NmESm+hIHoRAhUKAx1YdP1RYgbzAQyEcSYmK3/wZ6GLw+03/r9l4Yhx73bmNUlldEDoig6VporICiVzBs/WB89ALU8JU9OQ3H5ca1Ws2GbSFcHmPCBOrxUV1yaN+iDCJqqWQMBUdAR5bLROEqaK3H6q/PRAQlRVI5Ar+rQ+mh16YEiZdcebxH1vVqVG9eg3nhk2bN/3UuQZa9G0PVSmJPHjUDxGmkgAc5YkQsBIBHltFhMlKTNFjZQ0BUVkBJQzPt+mhFxyESafTaV7ELR/t07px3Tq16tT97Cs3aeDsQ6/Q0SjiU04e9UOESXzNhSSqwAjw2CoiTBVYLypW1UVlBWa3PpgeemHRu92K1bRlobY86mdPwiTC5QsWKS5KXOYQKH+LP3hsFRGmstDZIhntgEDZsgLTQy+Eb31Ai/3toC72zoJH/aCEqZ1/X4GnNFdaebW9b28Mw4RrSZkbmJHAokWgnPU4PLaKCJO9O0aUn0gRKOtWIHDuoPz93hOpPlkoFo/6QQmTQLZEZS2RK0CfdSUyuBa9OrN23qoTaUb3d/Ytpjgj4Y8F0Qeecvu4s29Z4s+tOOPixrlL9z0RLxoGfdDpytVx3zy2igiThf0eSl5WEUBWUFZbrlzIzaN+UMJEMyGJXFFt8ckmQeHNhk7/YF4sFd9F5t1Z5t3Jy7+Td/fWvYY6gjAZDl2yeAgvznt66dipJOL0Bb4Ph9tfvuTW3SvOVWyc4PXNpy41a9TpGp2kurVS9kWr0GM5xQKFFF6qjRk6BA3ztdFcnt+xsVvE2ULTpAZ9QITJjkSKsu5y0emhSpRhBHhGLDtqOywrZAVlWHXsITqP+pknTE7ya+26f0+J0dnLr0rUeSo71neJzzAZBkiLCZP6zORm1hxdbjpG2xyjufKTm8v/Bq06fP7Klcu3X6m1j7eN9em7/FKBTqCQwiWwMUORECZt0oah3gN/S+RwmGPQB0SYYP2+FfGmQ0Wl5ZclckXVZeepHoC2erpfqrLsAuHZb/llOgYFEAI2IkCpmRUKbJdHTK3Axuqgx8sWAjzqZ54wvbfgOFjbmrO2S+SKytEJVaIvVom+SL+5Q4TJPJkperTa07X17MvE0dWsj438hpWbTmcrAxMJYTKtFx2DCJNdBgdmJqyhgmJLVCQ1i0yHTS+pGLCvQGGEgHUI8IxYTIUtkStQyVG4wiLAqVvmCVOllVc7+ARQet/Fw+udpfESuaK9fyAV01UqowAFCdPBiED3Nk0buNSuU/dLt54/rqfP3SxKO7FoiJdb0wYudZwbtBi+/RWxIEn76tSKER4tGri4NPyfx0j5mdfGOaTC5L2z+7b7sq6za2O37gGdPyWO9SbuMulF0dM1Pq5fTYknpyG0afE/j5Z986mryyeNv/VfdklFJq5pcPDrOnRPAT3mMgIERXD+vEuAb5tGrs6fNO3ww9yDhEtW/Ufz/NiSIFnrxp+4ftbSJ3jj9RziBV/Ry/0zenVt3bQhcYjop/+Tjfn9Srb+xR9neqKIOgZJ6njIH2iervFxaRp6Ui1USA4Atcmbhrg1qe9Su069ph37LzyRSsFHQGRSa06pDFVk/CfR+KS527eN6zqzqgZrLwqNb5s0INBo1DYwcsOmBSM8Wzeu61qvaedhP180HhlvmRiubnOv6Y/b4NIHNMPEadjWRdK2TFk3fQkG6Fv0UcFUDONb2jdy1+V7LzKVGi2uynp2/eCq4AAplUIWti9Dc3vNQOpSOuDXRHX6vjAZJu0z48/4288ylBocV6adWhwo5ckEwzBp4JSY/5LSlBpN/uukuPVhgfr83f1GLT+UmJqr0eLKjCdxS/obyv1h5uZTd1KyC1W5qYmx8rH+7gyJ0YWIEKD0zTodtv0pWttFhAgSxYEI8KifecIkkSs+mBfbfGDINz+Mrz57D5WX6TdImKK6uDQd+HPsydP/Hf5zbmALl3oe0TdJ7kEOw01/WHn4zIXz/8UmPNPqdIVX5nd2rd9l4vrY+PjD6yZ0ql+32+Jr5JKV4pz/Jn/r3LBbyLqDp04f3RY1pK2rsznCVHhtcbdP6ncc+8u+U+fOHNuzNyGtiGJXXSJP3L579+7deymwtUwkm6n73fCovw7E/bdvzfjO9Z3dZp7NJ2mE8mJku7pf912676LiSqy8f3Pnr0NO5FLnq7s0G7T66On4U7GbZ3p/XvvrkLg8nU7Hl77lpD23CEmSnmSotQzC5CJMSGcmgMU5d+IOn7p0/XrC4Z8HfePceOR+krSRnJKZIUQqBlEyXJAt9UXvBbuOnY4/vnW2X2ND1eDtRTzi0mzImrhz588cXD3km9o1P/UIW7//vzNxOyK8Pq3datYF6sWapWIYCBNEHxBhsn2EoHNgDRXgpBE9pfTu4pPvLj5JX4JpjH2adMSmZE3GubXhUydPjYj++1KapiBp42hPIgGUMI3YlIxnXoiJCAsJmRo+sb8U48kE8x6/9aFKmRy7KjwsLGL1kUdK1YM/x3kRPIos+WLMrAmjRwdPXzAjiCwU85m046nqTcIfP00aMyF8/fk0/M2hGX5GeVFIVAjwjFi0rpZcgGUFokIGCeMABHjUTxBhop7n/2YSJsMgp9PpCq/N61Cn8ZjDBJEgxlTglk5XnLVn2KcuMmreSKfT4fdWuLt8NmJfjk5XnLG9fz1Xn9+e6LfFGV7B8M0wZe8d/hmRG+P8T+Z0lIERmPxnyaZ9IPdwbhi0l5Dk7a7BDRoO2plBzR4Vpazzd2kcfFzFqg6umN/OucX0cxqB6YkpKiZh8vzlsZk9gCwhWZXQ3luOubaOvEK88jOpNVQqVibUJbMg/MaC9lTV4O3FREP7cJXMhT6tqzAupImL+0pidtBqMWD6gAiTHUcO1lDBMnlqSonqsEDC1Lr3sNa9h7XpPczYlxG0Rf3873EeVJTXuK2P8ezjEQRF4SNMwCN67gPEAJm495h3Ok9zd91Q/eyRx7CYe5rckz/5E9n/+wZ/uj3YxygMhrn3WBivzD+7KICaVZL2W31Dkx07g+JSYEIUFgUClOLZUbEtyoplBaJABAnhQAR41M88YXp//tGGwSuaDZn21eApn46L+uinA6xulFYveuRlsiLNuWnNndsvvIFzECbNlTltnPVDPPm4JiG8lTP5DkZzeXZr5zZzrhjIjwDCZJIbmaUJdaDlZASYFEGn05yf8T/ndvMVuE5zJbJ1rZq1nV0Mnzq1argE/pVezHykOHPr966fjDyoEpjeToRJ9eTwwiAvt68/b9ioWcum9Ws3n3aWkzBBpWKgYLhgVe3t34aqQduLSZh0+bsHu7r235FNZojfWtLJpe1PRFtaLQZMHxBhsmgw4E9M2zLVO9GXrIBErnBaeY1+JUfdZUw1sQgTJvtxbxr+5K/RHjYQJiAT2YTtL/CUHRNkhl5UNnFXKv58G0HQPEesTsjAC1OvH1o/d3QvirHJJuxIKSrS4hrDBy8q1lxa1gu9lTMAKK7/lEbx62rJ3aW1XVygIGkchQCP+vERpkorrjQfGGIqZKvAEVWjztG9JK1ehsFWxyJMJPNYACFMka1hhOkKeYteIQ0SJs3Zac1dpIZ5KXoNEzmmgvSLlEh9ZvJXVuySM/I8Its6X43bdfeB8ZP8MkfLogi6nJ0DXF2H71cJTc+aYbJGSJ327gp314ay6X+fvn73ruLAtA7ORsLEzBAqFd1sYIBJmIxVoxqFnMMikxsJLgsN1f7hri7f/00tXNLeX0FMfRFtabUYBNNypvIwlNzS1UP+ABEmO44ctC1TVk9zoBb9J4JTShK5wq3HAAzDurlL6X6gi8zb2FeYEKaQPa/xp1tIwhS6N02TtF4/OQSsYWJOSpnOMGEyOhOCAMEIE4Zh7r6Dpsr/uZRSUJSTGDPWG8NkwTtT8PRjC4cPNX4Gf++vn58yio1C4kCAUio7KrZFWbGsQByQICkchwCP+vERprqhv8NkbDRmEd1R0upFD7gMwqR9IJfq322xxlQd+UpuaEPGK7mVUpdPh/9LvAjL2jO0oXO3qNv6LeUgYdImLe/m/OX4o0qySJowFWfsGFjf5JUcMUS7tCMJGy0hR4BFEVTXF3Ss8/noQ3nky8EB9ep0XnKLvbmd9YiBMBVnbBeUHiRM1gmp0yl3D3Z16afnJUUv1vq56gmTSYZQqTiwMJkLpKtGNAp3e7EaF0aYrBYDpg+IMFk0GPAnpm0ZZvhC41mESTp0fRKef2quP0GDgjY8wLOOzqLemVlAmIBM3HvMP5OvubtuiPGVXJImj8rfKKLvxJ1P8Yz9k2WYe8Di8wX4w80j6SkpYyoUEh8CPCMWvwLb5S7LCqw49EJ8iCKJLECAR/34CNN7i+I6evfo4NOzo3cP0lOlTyfv7h18erb36/PRnP1UpvQ3cw1TnU/aDY/acvC/kwfXBncxrp5mMQxiqC4gFn036DIp5sjZs7HrgjvVr9t10VXKT2HhlQVd6rq2Hhy1M+7s+fij8n5fGHbJ6fBbUV1d6rYfs2b/f/Hx/22Z6OZM7ZLLOxf+ncsn7UbKd584e+7UoW2HbxXoijP/GdKwTqugNUfiT8f+veeycbcWgyoQsrk0Hbj6WPz5s8e3Lerf0rWeR/QNap9cbvxMN5e6bsOidxyPP3f66M612y8Ta8dZ1TGwCp1OWHqQMFkgJGMRGH5zcUfnz7zCt5+8ciNRcSS8s4ueMHFkCJGKgYLhAlo1eHsxH4ERJig4hpIZ/xl5cusDIkx2GSSoTFhDhQV9DCspQZjwwqenNkVFTp0auTo2WYk/3x3qS6byGLnpgUb15Pivc6aGhU2Nin2GU7vkOGeYYJl4TyAXfR/+OTw0NHx1LLXom5jikg6cJV8WHjJu9JiJ4RsSMvHH5HtAzC9s9zON6vnpjYtnhP04edai1YuD/dALOVarieaSZ8Syo7bDsmJZAe06hx7s+AMgihOXb9kYOaCszmRKA8NWb107ow9Yo4oQ5lE/PsLErxasu0zCRO7Pb93IpU7dJh36/XTAsD+fMf4ZRkZt6snlI6TNG7i4NGjhMWLlacCtgDbt/G/B/m0au9au5Vzvi1Zde8+OTdPv2y98sHtGr7bUncb/6+A79s975H56TUrc8hGEW4HazvWbdprwz8sinU79cFeYV4sGzrVdG7sN3kilM5RO/y96uX9mQJeWjT9xrlWn7hduPULW0d4QdDqdJiUueqSsVSNiy/znLWVhe4l8WdUxEiZh6UHCJFBIVomE8PmJm0N8v23kWqtWHdeGTVp26r/mFrXsi6PWnLWgEQADrILAqsHai/kInDBBwAFLp8PMPHVc+oAIE6zftyKeMmo79IkkYcpJvnYzJVeDq94+vrg9cqBxibXXkAV7rr7IVmmL8ILs149vHoseRu2JA5Z461/J4dBMpH2nbjhJuhVQpiX9FzNZ71bAKzjm2vMslbaoSJWTknjk53EG9wGyftM3xt1JzVVptaqc1LsH5n5fVscxO7SPyLPgGbGs0GpLH2FZATjSCTz0goaXsfWBjrVrwN1vjPzI7Vd5mqJi/MHGIM+RMXeyUg/O9Hd39xsQPHNKkLnfBbLgrY+yn+0KBV6oG+QjVgaqk9YNMVxXlP886gclTJ09fUFF4Q938SA6Q3qYY7ySo2NRACFQMgiUJzvmsVVL+30r0lOl2wFP1is563K0SybWFY2eKlUERGUF9Ngn/NALGrySJ0yy8dufa16fXRsRMn588IhAmXTgkmOJCRuCvVnbUWmR2AFpkPzMrXO/jeJ4W40Ik0kfCiVMbFgFXOO4fkcbIkwlQwxQrhwI4DguQDfLTBJRDRXWo2YXrmOXTKyvA3qy1BAQlRXQhEn4oRc0cCVOmKSDfr+tTtkZzEV3GB5iaZEsCCDCVKKEaevWrRRnEjNhKn7zZ6CLwds2/b8m7TKIY0h2fJTDhHRYQfwYWi0GjuNbtmyxoAsQfVJRDRXWo2UXrmOXTKyvA3qy1BAQlRXQhEn4oRc0cJuSyXfKL3LVeGHm4wvbwBfTMi7X89Lv5+y5+iAlM1+t1arzXt85/suE7vq1dtzpicWCht4VT1o3RDbg10RN5sGpMnKGifbrpz4zj+OdGyEny8q8Bs/dmfA0S4Wrsp8rrj3M06BXciBrsucME60lKIAQQAhYh4CohgrrqoCeQgjYiICorIAmTMIPvaCrvykZVz09tWlZ5LSpP/169CGw9QHiep6gL5qMs7/Pmhw2JXz57ls52jeHphP+XvnSpx6eP3L48OHDgwYEyIhtp0bCpEneMWMEcWtYP9haJpAwuftP3fcSz39waHXklMmzlmyKf6EiSBhdnQoS4FE/RJgqiA6gapYNBHhsFfyhU0JhqvSygRSSsvwiICoroIQR/g02C+OVHMMvBsT1PEhfMMxjzNaneNqeH2VQV/XM9MSEEZMw0Yc2glIxwkAOpPcNdeJvhm196JWcST+LCBNDedAFQqB0ERDVUFG6UKDSKywCorICmioJP/SCbjgGYdJ7Xt06xgODup4H6AvhgbVnVIK6MC7SU2B6GwkT6d/1xfbx+gONMESYEGGiVRkFEAIiREBUQ4UI8UEiVQQERGUFErnC0kMv6DZiESb6gCCo63kmYcL8F51Xq07N8RSanjXDlK6xaIZJ70CfXkGOCJNwwoTcm9JKjwIIAYchIKqhwmG1RgUhBEAERGUFErnC0kMv6LowCJPn2C2P8JwTs/0wuOt5CGGCuqpnpWcQpuCdKRrqOCJaHo4AkAPpQB9/sGmEfs8dIkzCCVOJuzeV9ovcdvJA1GDCexwY5mjS8hJVUR2nlpf2c0Q9RDVUOKLCtpQh/T5y14W4n4PYHigrSH9iC3TiflZUViCRKyw99IJGl1jBfe73mWEhoTOW/Hk+VV2QtHE05cAV4noeoC9EJoYZJgzmqp6VHiRM7j0XxOfjqad+DQ+bHL50fnAPbs/2jBy8x29JVqlS4jctmh4aEjZr/cUstEuOQZqga5golaW+7ebeFHQq6jF261MNdX45BobBNLTe2RIQ6PDUliLAZ3nkr6iEHYQHhfkRENVQwS9qyd7lsSO6YEZfT8dijP4EiEbBsoKAqKwAHAqFhEGQ5+y+lpyaXYgX4aqs59cPrQ4OMJJ7TtfzLJU2EiYME5IeJEwYJhu88MDtNCWuVWU/i5cPMxYNisgqUdo75LfYG3o3/FmpD67sDEdHoxg5k3nCZE/3pqBTUZAkgWEwDdiuVodlNvvvsqhoHvkRYbIIyQqZWFRDBYZhlZZflsgVVZedp1qDHjDoxqmy7AKxyGP5ZTrGPgEeO6ILYPX1dDzYn9CRKFB2EBCVFVhx6EXZQRpJyoEAj/qZJ0wl5d4U7NTAMIf8tkU5mDDxCIsIEw846BaJAI+tGn/mlFiIKp1uCootUZESuQLDMDpseknF0M86IoAIkyNQLoUyRGUFpVB/VGSpIsCjfuYJkz3dm4IdHEiSwDCYhsftKTFzeDTxZa4ax1W5aY9unlo92rAZkoU1QZhAh6c9Zx7JwpM3DddPUEqHb0rWpO350bNv5K7L915kKjVaXJX17PrBVYzpUy6vrKyCqEtQfgzDkONUTpRQJAQBHlstMZpkzJgqnRaNvgQD1F2QMNHpjQF3v1HLDyWm5mq0uDLjSdyS/oS1SeEmJu0z48/4288ylBocV6adWhwoBe0I1g8Aadz9J229r8y8uGKIzOSVHLeLZJMSjdKjUCkjICorKGUs7FS8e6/oyxqDS3D6f1F27HSOU1XsVGZZzYZH/cwTJnu6NwU6OMY6Ayhhgrk99R735wOV6vmp9fOnhYZNX3LgEa6Mm208DZ3RUOQME+DwVNp9wRml+rqcOqzcvXf0ZVVeXKQvIZsm49za8KmTp0ZE/30pTWNcoAfxssooxnAB1hE5TjWggv4LRIDHVo28psRCNDGipAUnjWiG9O7ik+8uPklfgmnoOlLGdDFm1oTRo4OnL5gRRNomj4kRt/DMCzERYSEhU8Mn9pcyTmygHjR1f0zEq5//PU7mOXTFhYz8pL8m+pMLW8H+hM9FMrNEWnoUKG0ERGUFpQ0GKt/RCPConyDCRD3P/w3WVDfVzgAAIABJREFUibGXEnBvyugEwU4NDBs6QWK+CAwDbk8x/59O5uLJm0dS3JjkzmYIE+iOwr3X0gvKwoSo3kTn6j3raHbhpeg+7syyMK9xWx/j2ccjiC2gPSBeWcE602EgH+Q4lUYFBQQiwGOr9qVJjb1/kMgVjb1/ALOlSqdFZZk89UqOugsSpta9h7XuPaxN72H0g7Kwf9/gT7cH+9AxRAAwDeISMDH2LVZi5oO0+2P9UzvmLDiWonx6MLyPYVUr0J9AjZeZJ0NOdFHaCIjKCkobDFS+oxHgUT/zhMmO7k0Z3SLQqTFmm8CODAwDbk89xm9/gafumqifS7SUMGHuvRafUyrPL+nljskmbH+huvkr6xct0UAyo5OxCTtSioq0uMbwwYuKNZeW9TK7SxM5TnW0ppf98nhsFWQ2NoYbe/9QefGZd3uFVlp8BuRMVOk0ivQlKyCRK5xWXmMtaWJMNXmOWJ2QgRemXj+0fu7oXvqX5UxzBk2M0TNQxYOJwTDQD5BP4aq8fA3+6K8xwJsFoG8R7iKZrjUKlDoCorKCUkcDCeBgBHjUj48w2d29KaNbBDo1gYSJdkohC971Ejd6cDdPmNgOT917zD2VU5CwrI8saMMD1b0YYsMls1PG9G7st4z2wKBeVjmbEcgHOU7lRAhF8iBA2Wrbtm0DI39uuPpCZfl112X/fRkwwkaGBD5OsaUPW2HVq1f/sBUGciaaGFES0hyoRf+J4JSSRK5w6zEAw7Bu7lLqEYlc0UXGPA7d3XfQVPk/l1IKinISY8YS9wDTIPOXhex5jVOe9di3mIlZd+m91kS8Ju3CobOp6vykLSGGY93B/gRqvKw8eZoE3XI4AqKyAofXHhVYyghQ6gf2mXSYjzDZ3b0po8ckCdNT4lwd/SJNfRjsyMAw4MXLvXf0JZX65q/6MwLNESYuh6feU/anqRJ/n7butuo+yZcYshGd+9D1SXj+qbn+PF5ZOZsVkBk5TuVECEXyICAx+cz86/C7Ky416j6MNlpbAiBbqk5+PmyFmZQp4ZHQwlu+E3c+xTP2T5YxORDTxNjWx2JXgE0RpTMIE7GGyXvAwpOv8bcXlw+mppmAvkW4i2QL64WSlyAC9KJkOuAAK6DLogNUDdGhFyXY0qLM2krCZH/3pmDHJx3w2y288Pa2mYP93Blh/UJO0zVMxo7SvWf40Tfa3Nt7omeETJq+5O+rGUXwNUzcDk9lo/98pMlIy9DPL1G9OV749NSmqMipUyNXxyYr8ee7Q33JBoV4ZeVsbLCOGHKcyokRioQiIJFI6P5ap9NJJJJdu3aFrt/9XuQBmifRkzosw2bwHrmCdbdly5aNvX9wWpZAzS1RbIn6Ni0UKp+wG9KBs+TLwkPGjR4zMXxDQib++C9iDythGhATY1gNWQYYA4a5CJMHhvmM25xUUHB342hyKgvoWwS7SBZWM5TKEQhQmk/rs06nE24FDPOxxApMC6WqasuhF1CwHOmMHp0wAW0G7humPaex7zWGSN2iM2B1ymYv6QcxDIO6N2V0fO69pv19PTX36fZgGQaEwTRgGOwoMczdb2TUvquP05Ua1dvHiqQ0bf6xcMguOYjDU2nfZQnKIvWN1eSOZ31vnpN87WZKrgZXvX18cXvkQGOOnF5WwTrTYZbMyHEqjQwKCEDAlLvs2rXr942bJXIFy1RpkzTGG8gWMdJwDRUSueLdXqEgVSohwuQVHHPteZZKW1SkyklJPPLzOHL3GmEaOLeJsazGwhkmco2UbNiaxALVvU2jZBjYnxDLEftN3xh3JzVXpdWqclLvHphLbJA1LVFA66AkjkHAlLsItwL6WSJgiRXQD1JETafTUZWlM5HIFZYeegGFC1yRAk1kyQ0ez/jI/58lQNJLM+l+FQxAX8mVIfem0mEx99UpOyYAqz6FAOQ1cdeLrPiF5F45Vgct5HGUBiFQAghwEqbec1a/F7kPtFvOMP2sRGK0azCl6fu4EiJM3MAgjsKNC4plI2DKXXbt2iXQCuhndTodqPx0GGYF9IMwwmTFoRfsitHXdidMPJ7xEWGiYRcWoCgyrTBgwNixUomEZVjqqTyC5vwSPXdGaPCEkBnLdt7IUj/dHuwlUCrv/qPGjRgdFh37KOfeptE0y0K9uUD8ULKSRIAmPdSbBYlEEhi5qkrUuUb+Q0G75QzTrzBghIl6K1d58RnwrRy1honxIkNixzVMAFjIxAAwUJAHAVPuItwKQE3mNBOYFZgWSklIzzBZcegFtI52J0zQkjAMESYecLhulTvC5N5z5o6bT9/kFhJuvl8lxW+NHORFLv0GjYUMm3oy9Ri9MUmJa3JfXNkR8YN+vzMBmoW9udDiuNoDxSEEYAiApIcKvxe5Twhbgo0NpvHgL2xql5xpoTDxbIq30MRsKgs9XJYRMOnHdQ6wAtNCKQhpwmTFoRfQ0yMYhEk6eEX8s7fEGRMFmY/O/zWjL+VQDObgnrNlWcaFTpjgRElYZLkjTMKqjVIhBMocAjy2akp9rI6hOJNZP0xlDj0kcPlAQFRWQBMmqw69gJwewSBM7v4jpkVMCR47dmLE2rOv8Oy4OaSHDIIDaTJMHdxztjFImNAJE5wQCY7kUb8y+kpOcNVRQoRAmUKAx1atpkecDwrx9F2mkEPClh8ERGUFIGESEgabgXHoBejankGYgCekwzbQC3JBDgQedAEkNwaBxOiECSMsVoV41A8RJqsQRQ8hBEoGAR5b5eQ99o2kSi+ZmqFcEQJCERCVFVDCSOQK2w+9oE+PAH2rYpjngIi/Tt1+9iYnPzcjNUOpTdsbSqytBTgQBjq450QRSIxOmOBESHgkj/ohwiQcRpQSIVDiCPDYqn25EWduVOklXklUAEKAFwFRWYFErrDXoRdG1/bADJN0eMw9Vf7dPUsnjx0+fEzk3sc4J2EyuiHkhA4kTBN2pOApO4ING5rQom9OxOCRPOqHCBMcNnQHIeBwBHhslZPi2DcSESaHNzgqkAMBUVmBRK6wz6EXwOkR1AwTdbiFz4J4tebi0h7k2aTSfqtvqm0kTOiECQ6VsiSKR/0QYbIESJQWIVDCCPDYqn25EWduiDDZoXkNjpWprU52yLDiZSEqK5DIFTYcegFzbW90Rk8cOoHn3t61eOr40aPGhO96qLGRMGHohAnbTIZH/fgIE9h7tg0YRF1K5Iq2AYNob5hOK69Xjk6gD+m0TE53vwHBM6cE+ZHU2rJHUWqEQLlEgMdWOSmOfSNBk6fgBWNKpBMof61oeAPCQ5jc/cbIj9x+lafR4srXsZH+5Q8E22okKiughBH+DVYd6tqe4Yzed9TyQzdf5qqLinBV/tvUR+d/Hcl3MhhYAB0GXskRceiECRoZywM86gclTBK5wnXyepoJSeSKzp7EwWpUp0nL0M1d2lnmQyej4wUFZGH7MjS31wzk6VkE5YMSIQTKCwI8tmpfbsSZG1U6jaUjOgG6sHITME+YZOO3P9e8Prs2ImT8hJCwEb1QB8hqfFFZgS2HXjB2ybEqiS7FigCP+kEJU3u/PtQ0EqtSlPbQkd2kHlayJeKMJ0SYaCBRACFAIMBjq5wUx76RLMLkiE6g/DW7WcIkHfT7bXXKTnpRbvmDwNYaicoKbKkMIky2oFdaz/KoH5QwUbKakiGJXPHZuKX03apR578Y+ROjYtI+M/6Mv/0sQ6nBcWXaqcWBUgziyZQgTEUG/6rqM/OIg8Yx2Q8zN5+6k5JdqMpNTYyVjyWP7WQUgC4QAuUWAR5btS834syNRZgolK3pBNz9Ri0/lJiaS7xzyngSt4Q84Zr5A0k64NdEdfq+MBlGeTR++Vap1mrVuS8u75Cv2HLydkq2Sl2Q8fD02knUclhIk0P6Fk4BOCOhUpn2Y/DeicuxMnTeiHh7ghv6PTxp3RApR5+JYdLAKTH/JaUpNZr810lx68MC9RnaBBcERZFFi9AKrEPI7oQJnTBhXUNY9BSP+llAmKi5pfqTVrHKlsgVjEiyO8i8EBMRFhIyNXwi0VVCPJmSXVXyjhkjhg8fPnxYP2Itk8+kHU9VbxL++GnSmAnh68+n4W8OzfBjFYguEQLlFgEeW+WkOPaNNEuYBHYCRB+gybgYM2vC6NHB0xfMCPIkGgxKTcjU8b9O/zEkLPL3+FfaorykA6vmTA2btnjX7Txt6j8hhg3SHM3O3bdwCsAZySsVzuzHIL0TxLEyL2HSpB6eP5Lo94IGBMhIjzussrzHb32oUibHrgoPC4tYfeSRUvXgz3HkeZlUNayEiwNBEUaJ0ApEiBISqYQQ4FE/oYSJWrrUYsAkThEZv0EJe1Y//3sccE4b8BDoyZTZgRK+uXosjFfmn10UQC0Dl/ZbfUOTHTuD7G2BPFAQIVBeEeCxVftyI87c+AmT8E5AFvbvG/zp9mAfRjMx7R2YYQJ7DOngtXc02bHTKY7kNe3QW829mKFQ8gEWAPQtnAJwRvISJkY/BuudYI6VoTKb9pAmMe495p3O09xdZ6i4x7CYe5rckz8Ry8MZibnhAlEpi2ERWkFZhBHJbB0CPOonlDDRm+MoCcCVTKxl4Ex7ppJDPJkyO1DiJ+iEHSlFRVpcY/jgRcWaS8t6oW101jU8eqrMIcBjq5wUx76R/ITJgk7Ac8TqhAy8MPX6ofVzR/fS/3Zi2juEMGG+C+LV6vOLu5NN5zFy8yPNi+3juX99EUkgfQunAJyRwqTi6Z08g3em4ICM5tcwgQSRrCaDAxExsgnbX+ApOybQU2tEpvjzbcTPUGZiTrjITMvwlwitoAyjiUS3EAEe9YMSpvqTVlGPUb0kHaYCGIZRe+ioS8rRgF4qpj0Tv4hgnkxlYfvSGbvkSJ/u6ccWDh9q/Az+3h/6U81CHFByhIDYEaAMyr40SHhutHVTMFnfCRDTxb6Dpsr/uZRSUJSTGDOWWJ8oC92bpklar581gREmzzmnVJoEgx+/YTHE0VrQ9dHQvoVTAM5IYVIR4hPEiKN3In7mcTlWhnZbJj0kiwPpyZkwwsQJl9i13Jx8orICc8Ki++UNAR71gxImIRi09+vTZHgEO6VJdwD1ZEr0QJqnW0bTPx/JyW384eaR9A8rduboGiFQrhHgsVXhvMfqlCzCJARp7k7A+KTvxJ1P8Yz9k2UYJg3a8ADPOjqLelFnF8IE7Vs4BeCMFCYVwbUCFp8v4OidYI6VbSFMZJ6au+uG6DPxGBaTpMk7NdfklRyGCJPV2g57kM8KPH06jlv63dwDbaMvtI2+8N3cAx3HLcU8ma+ejWqGQmUSAZ5O2CbCxA2GCWHygHkyde+5ID4fTz31a3jY5PCl84N7uGN+YbufaVTPT29cPCPsx8mzFq1eHIz8WnLjjGLLIwI8tgrr3+0YzzdUWIK2dOAs+bLwkHGjx0wM35CQiT/+i/xV5DFy0wON6snxX+dMDQubGhX7DKd2yTFeUXEyANgvKFjfwikAZySGCZKKrD2sd/IevyVZpUqJ37RoemhI2Kz1F7M0xN43GGImPaTpDBOGeU8gF30f/jk8NDR8dSy16JvcR8x8nBMuWMllJV6cVtCl7yi3RXFtVl5l/bktiuvSd1QZwBb5oBfWSDzq5wjChGEQT6YYJhu88MDtNCWuVWU/i5cPI7oYWb/pG+PupOaqtFpVTurdA3O/h3Y8wmqPUiEEyg4CPLZqR2IEy8pehMkrOOba8yyVtqhIlZOSeOTncQbnIF5DFuy5+iJbpS3CC7JfP755LHqYlEUXOBkAjDDB+hZOATgjCdUQIJVeg2C9E5djZejKSybjIXI2jSEi+07dcJJ0K6BMS/ovZjLtVsA8vyw7+s4tqQitoEvfUSBP8l13s0fMTTDGcZzJ6hMyzK6u424NDLO6RFiG4o7nUb8SIEzixgJJhxAQMwI8tgpjOXaMtxdhEjPCSDbxIyA6K/D0Yc0tfRl9U6fTgYTJbVGcg97NMbcpWNCaVhMmq0u0QDgRJeVRP0SYRNROSBSEAI+t2pEYwbJChAlpoBgQEJsVdBy3FORGbVZeNSVMbVZeJdYzOeBjNX1BhElY6/CoHyJMwiBEqRACDkGAx1ZhLMeO8aIlTGXRwXFZlNkhOm6+ELFZwXdzDwohTN/NPcCum7RP2NoTd17lqTWF2S9vbAr2xDi9unOfbwHxYk8QJsEnZFjkg96iMznYVS0/1zzqhwhT+WlmVJNygACPrdqRGMGyEi1hKgcti6ogHAGxWUHb6AtCCFPb6AvMOnqP+/NBofLRsTU/TfkxbOb8uRP7UCv2WF7dIR7kbT8hw1If9BaUyKxo+briUT9EmMpXU6PalHEEeGwVxnLsGI8IUxlXn3IivtisACRMnVZf/zL6ZoFGy1rD1GblVTZh6j73VC7hrp32m0M0j8kCf5gHeUZbAl7sWb7pCYcXkBMyLPZBDxbJWyKYsPyFedQPEaby19yoRmUYAR5btSMxgmWFCFMZVp1yJLrYrOC7uQeIJUqrrlFLl3Q63ZfRN33XMXbJtVl5lfVKzsRdO9lCJoQJfr4FxIu9yRomWA4W+6CH+c03KbEc6RpHVXjUDxEmDrxQFEKgtBDgsVUYy7FjPCJMpdXuqFwQAbFZQcdxSyfsvp+ep9HpdH0332a9nqMvWYu+Sdfw4Pk2ZBVNCRPEgzzUi73gEzIs9UEvvESwscpfmEf9EGEqf82NalSGEeCxVTsSI1hWiDCVYdUpR6KLzgo8ffxXn/3hrzs0NzINmLoVcA9YfE4p4JUcxIM81Iu94BMyLPVBL7zEcqRrHFXhUb+yQ5iQl1KOlkVR5Q0BHluFsRw7xiPCZAd9Qj2VzSCK0ApYjitNCROX40q/H3c91RQ+jVu/YEboj1NmL4kY6W26hgmDnG8B82KPWXBChmU+6IWXaHMLizoDHvXjI0xg79k2YBB1SZ9YTl06rbxeOTpBIleAALj7jZEfuf0qT1NUjD/YGOQ5MuZOVurBmQZvv2BS4WGrfUgIL0J4Slnw1kfZz3aFkkcVCH8MpUQImEGAx1btSIxgWYEmTwkKxljUCZipZzm+bbanqmB+k61oarFZAVUFa45GkfWbtuG/u6/y1FpcmfHoyILvpSav5IjMuT3I2+OEDIt80As+k8OKNi1Dj/CoH5QwSeQK18nraSYkkSs6e/piGEZ1mnTlu7lLO8t86GRU/PjtzzWvz66NCBk/PnhEoEw6cMmxxIQNwbaxC7PdEC2TAwLSIPmZW+d+GwU/scEBQqAiyiECPLYKYzl2jAfpEYZhtnQC5bBtBFbJbE9VwZbQCoQNTCYqKwAFw/SH7x5Eh+8yYClfFzzqByVM7f36UD0mC4rOnr4gPeom9QAvqcS/31an7Ay2M5kw2w2xBEWXCIEyiACPrdqRGMGyYhEmWzqBMoi9nUQ221MhwmQOaVFZgTlh0f3yhgCP+kEJE4WBKRmSyBWfGRzAS+SKqlHnvxj5EwuwTcm4Tv/Bk9YNkQ34NVGTeXCqZ6/IY2nqJzsmETNVmGzYbzfzM07OI46U5PZzimEWeSmV9o3cdfnei0ylRoursp5dP7gqOEB/bq9w56rS7+fsufrg5VulWqtV5764vEO+YsvJ2ynZKnVBxsPTayf1oE7UBKdVmd2fdMCviWrqDHZhWbGwQ5cVGwEeW4WxHDvGswgT1RTWdALufqOWH0pMzdUQbyKexC3pT56rHbYvQ3N7zUDKKu1kKRBvyJwCcEZC7bfPjD/jbz/LUGpwXJl2ajF59q1deiqiRBNPzdLAKTH/kUft5r9OilsfZjhqt0KagwitoDy1A/JBz9+aPOpnAWGi5pbqT1rFKkwiV7AiNyVrUg/PHzl8+PDhQQMCZETPSBAmGebeK/L4G9XjbcE+siG/XM/T0yWIn1NLvZQSJEaTcW5t+NTJUyOi/76UpilI2jjak5CWuCXMuSqVSfyv038MCYv8Pf6Vtigv6cCqOVPDpi3edTtPm/pPCDlxJogwkfKYzYqFJrqs2Ajw2KodiREsK7OESWAnQJnRxZhZE0aPDp6+YEYQaYZQamKLpbj7j5gWMSV47NiJEWvPvsKz4+Z0d6csXpPBEsByqYR1Gpb2VCQOyTtmjCB6yGH9/NwxzHv81ocqZXLsqvCwsIjVRx4pVQ/+HOdVYU1BhFZQYduiAlacR/2EEiZq6VKLAZM44WP9Bt2UrH7+9zjavamRMGGYe685J96oHp04fDNXT5fs5qUUJDEYhnmN2/oYzz4e4WeRc1VGJtLBa+9osmOnUy8XvaYdequ5FzOU+H0MJuMbBmgcuLPiBBNFVmQEeGwVxnLsGM9PmIR3ArKwf9/gT7cH+zCa0gZL0U8VM7IzuQB8E3MKwBnJ8psMzHuNYPVjduupmDiQnprnnc4j9p/rq+kxLOaeJvcke+bepMLlNkKEVlBusUYVM0GAR/2EEiZ6cxyVObiSibUMHMMwVkcDEiYMc++z4Ex2UXHBpei+ZPdgNy+lIIkhpJT9uDcNf/LXaA8mvyErACvUnZmJ74J4tfr84u7kMx4jNz/SvNg+niCCYDJm9wfrcDmzosBE3wgBGgEeW7UjMYJlxU+YLOgEPEesTsjAC1OvH1o/d3Qv/W8nGyyF/vVFA2UIQLwhcwrAGSlMKqJDmbAjpahIi2sMH7yoWHNpWS+L/SkzSyRz3v4CBz0cEsug8OfbDHWscP9FaAUVrg0qcIV51A9KmOpPWkU9RvWSdJgKYBhG7aGjLtsGDALh5SNM7j2mH3ipys9X5V5eSS5mIN2hph9bOHyo8TP4e3+ppV5KGSSGkEYWsuc1/nQLN2GCOFdlZeI555RKk7CUWrgkHRZzX52yg1zMziBMoXvTNEnr9b8OYYSJMysQNBRGCFDbLCRyBYzQlHQ8bd1UW9jSCWDuvoOmyv+5lFJQlJMYM5bYIiuz3lJgO0igvomJeRsTATgjhUlFiA/pNCzuqUw9NU/YkYIIE2D/lB6WtLbD8mdZASAXClYIBHjUD0qYhADT3q9Pk+ERpinhhMm958zDqcrb60eP+FWRl3tFPkiKkQcE4g83j2T1iZZ6KWVxHUw6dH0Snn9qrj9rQogUF1YoKxNOlkPICRImadCGB3jW0VnU6wdEmEz1AcUIR4DHVmH9ux3jrRgqYJ2Aocq+E3c+xTP2T5ZhmA2WwuocDJljUN/EdAoMEIAzUphUBNeCeGS2uKcy9dTcY/6ZfM3ddUOMr+SSNHmn5hrlrWAh8VqB3q3AAeRWoByrJI/62USYYJDBCBO5OLLw/iZiJbbH0N9uKnMTlveXQvycEgshtySrVCnxmxZNDw0Jm7X+YpYmie5TTMsmSAxe+PTUpqjIqVMjV8cmK/Hnu0PJHXkgv9E/6Be2+5lG9fz0xsUzwn6cPGvR6sXBxOJLZkpBhAnzGLnpgUb15Pivc6aGhU2Nin2GU7vkGGsgOLMyrQSKqeAI8NiqHYkRLCsrCBNne0kHzpIvCw8ZN3rMxPANCZn4Y/LNuA2WAiNMMN/EnAJwRmLCpCKrCek0LO2pODw1e08gF30f/jk8NDR8dSy16Ns2x3WcDVNGIsVpBdY4rrQR8BL1Gl+imdtY8VJ9nEf9HEmYfEb+8UD1cm8YyWEwzHPc1sea9KPhPdwhfk4xzCIvpSRhykm+djMlV4Or3j6+uD1yILk5h02D9G3B6VzVGsKEYV5DFuy5+iJbpS3CC7JfP755LHqYVAj3KlWtQIWLEQEeW4WxHDvG24sweQXHXHuepdIWFalyUhKP/DzO4OXfWkuBESYM4puYUwDOSEIJBEil1xXOToOYcu4d8lvsDX0XkJX64MrO8D6UBxJOJZMNXnjgdpoS16qyn8XLhxETS9K+UzecJN0KKNOS/ouZjNwKiOXFNNWCrKNRfNfd7BFzEzwghetoFM7GtyTSrE8vYubTb0DwzClBxO99yz5CMufM0eoSOXMTXyRPJ1wihKl0EGByndKRAZWKELANAR5btSMxgmVlL8JkGwbo6YqOgOiswNPHbVEcSI++jL6p0+nAGNPDd+3QikI4jckeAqHlCsmcMy+rS+TMTXyRPOqHCJP4mgtJVIER4LFVGMuxYzwiTBVY9URUdbFZQcdxS0Fu1GblVVPC1Gbl1Y4Gl852g1IIp7GavgjJnLMmVpfImZv4InnUr+wRJqiX0pmjWWunxNcQSCKEgBkEeGzVjsQIlpVoCRPU6vVO0sygWiq3y6LMpQKUaaFis4Lv5h4UQpi+m3uAVReIa3v4oRTEC+LBc3cmPM1S4ars54prD/PolbsQp/YEfTFxHG8Xl/SYJSWyal6WL3nUr+wRprLcEEh2hIAZBHhsFcZy7BgvWsJkBjV0u3whIDYraBt9QQhhaht9gdUOEMIEP5SCz2s8t1N7yvMq03G8nQ7PwISXyKp32b7kUT9EmMp20yLpyxkCPLZqR2IEywoRpnKmTmW0OmKzApAwdVp9/cvomwUaLWsNU5uVVy0hTPQhEIxDKUjXFerE3wboHUzA3poBTu1ZruqJVeA9FsYr888uCtAffNpv9Q1NduwMT6GZcyoNb4mcT5TdSB71Q4Sp7DYrkrwcIsBjqzCWY8d4RJjKoUqVwSqJzQq+m3uAWKK06hq1dEmn030ZfdN3HWOXXJuVVwW/kmN4nAEPpSCdo+qPkyDajUGYIE7tTVYU2c0lPSa0xDKoYnwi86gfIkx8wKF7CAEHI8Bjq3YkRrCsEGFycHOj4jgREJsVdBy3dMLu++l5Gp1O13fzbdbrOfrSdNG3kEMgwEMpeLzGQ53amzqOt5NLeuElcjZi2Y3kUT9hhAm5Ny27jY8kL1MI8NgqjOXYMZ5FmNr593WSX6Mi+b8rrbza3rd3mUIaCSteBERlBQRMnj7+q8/+8NcdmhuZBjjdCgg5BAI8lILHazzUqb2p43g7uaQXXqJ4NckqyXjUzzxhKgX3plZVEvoQ8mcKhQbdEB0CPLZqR2IEy4oqnQZFIFuinpLIFfSDZTJg6Ci65/GYAAAgAElEQVTKpPDlS2hRWQEFLctxpSlh4nRcCT8EAnIoBdxrPMypPcbhON4+LumFl1i+tA/jUT8zhImlJQ5yb8oJv9XeRRmvgTmzhkRaXSIkPxSNEDCLAI+twliOHeOp0mkhqUvqu9rik02CwpsNnf7BvFgqpovMu7PMu5OXfyfv7q17DWURJiu9D9NlWxoQaK2y4K2Psp/tCuU4dsTQUVhaMkpvdwQoBbOjYluUFVW6aaWsmTuAOpHHuQ+l4PMa7ztq+aGbL3PVRUW4Kv9t6qPzv470IKXkcBxvH5f0Qks0xapMx/CoHy9hKi33ppxgmyxt40zFEWnoB/X7DjhSQKKsLhGSH4pGCJhFgMdWLer0rUvMGiqoS4lc4SS/1q7795Twnb38qkSdp2+BAbB24IZqML6kwgKtVRokP3Pr3G+jOM5aMXQUJSUhylcwApRSWafDtj9Flc4trH51ykGbDt9Fh1JwgyuWWB714yNMpebelBM3gR2i6bOGfhARJlNsUIzYEOCxVdtHArM5sIYK6lIiV7y34DgIVM1Z2yVyReXohCrRF6tEX6Tf3IFpREqYQBFZYUNHwYpGl45HQFRWYP/qI8Jkf0ztmSOP+vERJqvdm2LSPmFrT9x5lafWFGa/vLEp2BOT9pnxZ/ztZxlKDY4r004tJo+W5PZGaol3Ue4ceJylcsJqSYmcGaBIhICdEOCxVbN0x/YEVOl0VahLiVxRaeXVDj4BVHwXD693lsZL5Ir2/oFUTFepjPUghmFCvQ9Lv5+z5+qDlMx8tVarznt95/gvE7qT/mMgVglLT/ygMvF3TNeEDrDGKi6vynRaFCgtBERlBfYHgaWE9i/AshyRS3oWXjzqx0eYQG9d1Bo3zgN0TLx1eY/780Gh8tGxNT9N+TFs5vy5E/tIMUJF8MwLMRFhISFTwyf2l2IYxBupBd5FITnwOUtlIUNdVlB/ppxYoMjSRYDHVm3nQ2ZzYPEe6pL6/mBebPOBId/8ML767D1gPBgGoduXoRHkfZjoGTQZZ3+fNTlsSvjy3bdytG8OTfcj3O/5j5gWMSV47NiJEWvPvsKz4+aQRAqWnpyBZpYIimMIg2MVpKMwJEX/Sw0BSqnMqmsJJaBKL7XKo4JLGwEe9RNKmCxwb9p97qlczd11Q6n1aPq6g/0UGQXzRsrAite7KCwH5M+UgSG6KFMI8NhqCQ0PYLasoYK6FP4NIs16JQezVvKnlNHrsceYrU/xtD0/MpcYgf0Asycxphf4yh54HNZRgLVA4VJBQFRWUCoIoEJLEQEe9eMjTNa5N5VN2P4CT9nx/+ydCVgT1/r/g0vX21/tZu3tdnt7u+qtrUvdajsJYVdwt1o33BVFUBQFUVxAkSq3VFuXSlu1dfmr11ov1ZaWiuKuiFVREAuCWARlkcAkA/J/JpMMk8lMCEmAmfDN4xPOnJw5553POe87X8/MnJnOC3m8tU0JsdVIlVavLipWgxu9bJfYYqmCvdBC1zMVZIHM5iVgwVe5yqaR0kzrLAFmUxGX9sjSgy8FrH5z9Ny3Rs15eWrMY4v3sz9xE+yO+ktyuotfjGRvHBTzViVHwdDTSr4xJ7RVSRFuhFgcECvfcMEktqoy9yiQbhYCzKBqpEFeb7VM681y4GhUCgQsDD9Lgsm25U31YcgKwSSyGqn1q4vqGyo6tNx/TN1n1FAflYXFUgU7w/oWBXdHJgg4kIAFX6030NtfgHeqoO9eWn2648hA8wN8d/D4tjFHmfLsN7fYviJTwSTi77wZJsInKlVLJi9yE/VKU8HElqffqGXaIteYujRnd7FAUVcYqWYiICkvaCYGaLbZCFgYfpYEk23Lmyr9oo9qrLgkJ7IaqfWri+pn1Klr30wwncsiLCyWKtgD1rcouDsyQcCBBCz4qv16qN4amNbZw1HEpT0X9CW7yUu8MjmKKc9+cwvszNflbJ3EXpcX81YxwSTqlRzFQzdnFFiE2XrHXGPq0pzdxQJFXWGkmomApLwA69030yhotmYtDD+LgokgeAtXWre8qfesXTm6qpykjctCg2bNWbgifIIHPyzSKIRXI7V+dVGlSA2E+GKpgj1gfYuCuyMTBBxIwIKv1it37C/AtM4eDr2gQFRSb4/+vTx9e3v0169U6dnHo18vT9+e3oMeW/QDU579ZnckCGJZSgVVkLw2LHh22MqlAf1FvZWjYOjdjQJI1CtFygutd8w1x5g22d1j2tYsksxPSYiaFxQYvGDj8RJdxobRxqL422wEJOUF7KoZ7Di3nOBSm/Hp1s0RI9gL09yf6tKqYRHf/7Y/ZhRdjJuuK+F0KWmvqm9h+NUjmAi9ZuoelWQulbpHJQkuBk/3rXrY3K9+vXzrnraa0hRn/7RsqMokThm7X3g1UmtXF6WHl3ANBKEaGLgu8XxeKVldQ1WWFGSe3hk2SP+ssrFpk7/WtmiyEzZAoBEIWPBV+/VQvTUwrbOHZfnEYP4ruyPtmqOW779YqKGqydLclLixot7KiwxGwUQQIl4pWl6oRa5BTJq3u1CgMN8JOU1MQLJe0ND17hOy6h5oMGHIXXHedcq2HN2fW/TTsdw0t4zJzrZuWLkavq3V8/ezYL+01zyzMPzqF0w0BYcsb8rHiW0QAAE+AQu+Wq/csb8A0zpr0wduXkyONd99Xd3YHZEAAXsISMoL2MFvw3r3ooKJu+I8VyRx09wy9tBk97XywQi2vJ0JC/Y7uWCyExx2BwEQsI6ApE4V1pmMUiDgYAKS8gJWMNmw3r2oYOIC44okbppbxiHpJhZMFmyGYLIARyI/YT1TiXQEzLBAQFKnCgt2SvwnOLvEO8iyeZLyAlYw2bDefUKW/iW7eeVaqurO9WPfR4w0TMNyLw1zRRI3zS0jtsC94WW9By/cLNdSFFlemJ2eHF/3rIUpZlowcVfD953/UwmVleBvuMdK5Z+QpSvcM8ttSMSuU1fy7mh01RRZknvux88C/AxF6Gvtw+d/k3wpv7SKLC+4kBg3xUf0Xheu/YTw6zdM7ZPKloXhZ90lOakcCOwAAScnYMFX7b/iVm8NTOtOjhiHJ3kCkvICxhjmu6Hr3SdkUWROcsKqiLkhi9cevKahbuwO8qLxc8UEVyRx09wydFpwQXz6vRokeSN549K5QcHzVuzPpjRJC0UujutnmDir4av6LTus0Z6LG6qXQ8qBsafIe0kRXkxbR9eHhcwOCY/97mShrjJj8ySmTpG3awiOKK79slpV38Lwg2AS7GpkgkDzELDgq/XKHfsLMK03z5GjVRAwEpCUFzDGWP9tPAj6r8klOdWYjRlURXKkj42Cqe7+8boF7n0W/1ZOZRnX1tFPrNYjmLjLySoHrDymqToRM5CeJfJYcLC06mTsIN5asoT71G3XqdKfw70JQnS9fu4xs2mOYJLXqvoWhh8EE9u9SIBA8xOw4Kv266F6a2Bab34KsKBlE5CUFzDG2LbevYlgItSBe/6icrZNdrVthqlOMLEL4rtO255HFeyaYViLsKGCiVAOiD6q0aSuGKAk6Fd0kOlrP2Ze/FrXFkGoZ+0tpPRP8Ymu1y84XDmCSV6r6lsYfhBMgl2NTBBoHgIWfLVeuWN/Aab15jlytAoCRgKS8gJ71rvnCSZWedh0SY4jYoyrb6gDdt3kvAesfsHEXw1f2T8yuazyxKpB6nFfZZJXNtHrf3CEjr5DGJ1Hr0Ir9nYNY7+Z/uXUI69V9S0MP+sEk2FZgf3dYo91iz32fuT+3lNXEm6epniwBQIgYC8BC75qvx6qtwZLgglBwN6+xf7WEpCUF9iz3r2JYHKbsjWbKvtlobfQJTlm4onQ38NkSHMEB1/EGAWTcmDsSVKbvtawNmZ9gimAt/4+3R8ec34oJC98OXfDRfKqXi/x2+JcSRRdr1+wYzn2y2tVfQvDr37B1HfIxAYvXCmIz/pM4zKgdXfmW79vvSUbtfJ6W0cBELBIwIKv1it37C8gJpiaIQhYpNTgH+H1DUbWnDtIygvsWe+evlP76JfzgwODQld8m1qgZe+e5ogJQjVi3R9U1cXv54/yVpqkOW+s55bnLIhPKH3DDt6uLr+4JzY0cOa8Fd+dKa4Rv4dJ6Wu2/j792Nukb7N1xYXFhvklZoaJqspJToiJCAmJiE/MqrtXXfTtGkKjxcRmOa2qb2H41SOYeK9G8dqQ3n9TOnfVb9HFvoUAWptnXKTBkmCyedFSayoXNNTmFgVrQyYICBGw4Kv266F6axAUTM0TBITgEDb7ILxekKdUMyXlBYwx1n9zoS7afTaroLSKqqHIkhvnDsSzz+ebiAnlgLnfnSsoz9keoCY4aW4ZbpormAhC6T0hZt+Z60UaHXn3elpGYXXFoTCRp+QE198nCNWQVSc0Ndrz8R8zZ1y6Lf1qCPnlOoq8e/34dnY1BAtv1+AeNpPm2SyfVfUtDD+LgsnNkze39Fpsem1tLVcwdY9Kcvy1OWuim81rcFlTuXnf0wMleF+xyQvYBUshEwTsIWDBV+uVO/YXYFo3sb+5goCJEcYNm30QXm9EKIu/kvICGa13rxq76ao2f8d03vvo6+tz9xm78kpSluufleNdLqxvV6f83cLwsySYek9dydVGXdecMRdMXdecoe9ncuzHmuiG0OlY5qhNGgQs+Kr9eqjeGswFU7MFAcHugNcLYnG6TKl5gYQBu45b9HlsZGhQwPTA0FU7z5doc7YHuFtpr8fHE6eOnxQcm5hddiVhEquyeDNDVlbmRMUsDD9Lgun9yB+tEUzvR+7nseLOxKhGrL2gLdoXrCZUFtcPdR8VufNETglJkaU30s5eu0e/Nlw/QagatTol9y696GjlnezULaFDmGlDOnRyFy31oG0QW4RUtHKe4cxmQ1oUrACZIGArAQu+Wq/csb+AuWCyOQgQqkHB63+5dOueVldVevN8QoAboRoU+m3KxdxijY6iNIXJ0YNpVxb22Yb4oHANwisLM8FDqHMa0qLQ/shzIAGpeYEDD83BVSl95+9Iz7ldXkUv830rI2VbxCfu+lu/a/mfmtLEeawm0lvhOmlzhobSleed3hE+3LXOsAYKJmubq2tA6ikLw8+SYOoWe8wawdQt9hgPgIhg0q9VKrh+qMgyoPropvQZPzd8TsCUKTPC1x+5RZUmLepHr7Kl/78mZ9FSJUGILEJqqXKe4cym9S0K7o5MELCdgAVftV8P1VuDuWCyNQjQCxBXabIPfbF4zqzg+UsjZwxi1neh7hzbFB4cGBgSNoO+Y0LEZwnrfVCkBni97WOw+feUmhc0PxFY0IQELAw/awVTn/hzr8WmV+qqefcwdV1zpiGCibOSBHf9UL/o1ErthXWGZyMJsUtyqrFfsVdozSbnxRYhFVtjVPz/mpyesdgipxySIOAYAhZ8tV65Y38By4KpAUGgX2Ryue7yhjGc/7ear+9i3cLBFn0QXu+YYSexWqTmBRLDA3Mal4CF4WdJML0fuZ++Remzs8ytS7W1ta/FpnttMHlKruuaM1ZfkuM8JEkfL2f90ICd+ZzVt0wFk9uI8C3JF3Nvl1WUFxcUa6oL9wbRE4tmgklsEVI3S5ULcre2RcGdkQkC9hCw4Kv266F6azAXTLYFAXrVYMrs5lOzqX4xn1US1vqgWA3wensGYbPvKzUvaHYgMKApCVgYfpYEU++pK6fvvlp0T1dbWzvkm4u8y3PspvlN33sLdRkbxzBTOJx7mPiCSb9OvH790Ok78qn8HQHGK6ycGSaV/6YrZMXlPStnT/H3nxyx9zpVJ5hMFy0VW4RUbI1RsRkm61tsyi5EWy2EgAVfrVfu2F/AXDDZFgT0zmiFYKL/M1N0aLn/mLrPqKE+Kut9EF7vlH4hBS9gbMB3iyUgGE4tCSbCzdMn/sjwLZdYbWSeEFxW4KtMquTgAmYhcFHBxF0/tP/SwxVUZsJ4g2LiCCbPZSla3fGV/enblgjVsPh0rVEw8RctFVuEVGyNUTHBZH2LThmqcFDNS0AKpwoTAjYFAaVf9FGNFZfk6Gvx1DXjq0PZdq33QXg9C82ZElLwghYrFHDgFoafRcFEELw168wFk+DClRMSMnXknz+vXRQSHBwSk5hLMU/J0cthiawfKrwMqIogXCd9m02VX9wVHTJt0sTJYbuu6QyCSWDRUu/g3bk68sbvm6NDg2fNXhAVHx3grX8L87StWSSZn5IQNS8oMHjBxuMl7CN4AkHG+hYFdkYWCNhHwIKvCv6Px7GZTOu8I7ApCHjP2pWjq8pJ2rgsNGjWnIUrwid48F+5QDcj7LPW+6BSpAaCEA0pvKNjNq1vUXB3ZDqWQPN6gWN9CrU5E4F6BBOh10y85SsZ2dQ9KklQLdGe4z562Z4zeaVkdQ1VWfrX9fRDsWMNz8iUZZ1NF1w/VGgZUP20ktfETw+k3yzX1tRQZMXdguzUtROYO0nVo5bvv1iooarJ0tyUOPqlgYR62LzNSZcKysnqarKs4PL+yKGG64IDA9clnjcYVFKQeXpn2CB95YJubm2LgjsjEwTsIdC8pwpBwWRjEFAPm/vVr5dv3dNWU5ri7J+WDVWZ3cNEgxL2WWt9EF5vz2CT7L7N6wXOdILHsTiWQP2CiXYqw3s3f7Tr5buC4VKyLgvDQKA5CDTvqUJMMNEkHBIEmgMp2pQdgeb1AseeYlGbMxGwTjA5xOEgmByCEZU4NYHmPVVYEkxOjR0HJykCzesFznSCx7E4lkDLFUzOtz6ppEIejLGNQPOeKpxeMMHrbRuWTbxX83qBY0+xqM2ZCDShYGpin0NzICBDAs17qnB6wSTDEdESTW5eL3CmEzyOxbEEIJhaYjzCMUuWQPOeKiCYJDswWpRhzesFjj3FojZnIgDB1KICEQ5W6gSa91QBwST18dEy7GteL3CmEzyOxbEE+IKJGan4BgEQaEYCjnVy62tjDrllnJRxlNIlwIxD68ctSoJA0xCAYEprxvMimgYBQQJN4/zmrTDGCJ9IDcsK7LdrbRHhqpELAiYEmHFoPj6RAwLNS6BOMDWvHWgdBECg2QmICaa+QyY2ePVakzNgwzdUg4Pjt60PHST2CqOG18jZo1Er57SDpG0EIJiaPRTAAEECEEyCWJAJAi2RgKBg4r0axWtDev9N6dy3JImu+G/b2ZLZi/NCSdFqlN4jAubPGad/AZJoIaEfrKlcaD/C5hYFa0OmCAEIppYYfeRwzBBMcugl2AgCTUJAQDC5efLmll6LTa+treUKJsE3cIucCq3OtkbTqIP3FesufjGywbNQ1lQuaKnNLQrWhkwRAhBMTeLuaKTBBCCYGowMO4CAsxIwF0y9p67kaqOua86YC6aua870nrpS5Nxna7Y1msZm+WJN5YKG29yiYG3IFCEAweSsEUbuxwXBJPcehP0g4DAC5oLp/cgfrRFM70fu5537uHM/qhFrL2iL9gWrCdWQiF2nruTd0eiqKbIk99yPnwX41c0PuY+K3Hkip4SkyNIbaWev3dNlbBit/1U1anVK7l16p8o72albQocw+9DypabW8NEeXuJB26AePv+b5Ev5pVVkecGFxLgpPobXbItWzjOc2WxIi4IVINMOAhBMDnNpVORQAhBMDsWJykBAzgTMBVO32GPWCKZuscd450cRwTQ+IUtXfHR9WMjskPDY704W6iozNk9yo/dV+oTsu0lVZB6Ij5gze8GKhJQ8kjIKJqXP+LnhcwKmTJkRvv7ILao0aVE/Wgbp53uydoSO9/f39x87jL6XyXPmjhzy9omvF8+cPD1sY2ohdftAqLflynmGM5vWtyi4OzLtIgDBJOco4sy2QzA5c+/i2ECgQQQsC6Y+8edei02v1FXz7mHquuZMQwST9sZ3U12Z86n71G3XqdKfw2lJ4xedWqm9sG6EYcJJ7KqZauxXV7X5O6arjYKJew+Tsv/yFE3FkSg/ZlZJNSz+vK40MdTN2soFz/IWWxTcA5l2EoBgapDbonCTEYBgajLUaAgEpE7AXDC9H7mfvkXps7PMrUu1tbWvxaZ7bTB5Sq7rmjNWX5Ibn5DFEUyEetbeQurPLZNcCXXAznwqb/s0g5QiTAST24jwLckXc2+XVZQXFxRrqgv3BgkKJvX0Hfk1NdWUzvihau7rTq4a4GapcsGTu7UtCu6MTDsJQDBJPVK0VPsgmFpqz+O4QcCMgLlg6j115fTdV4vu6Wpra4d8c5F3eY7dNL/pe2+hLmPjGGa6iHMPE18wBe75i8rZSgum6TvyqfwdAbQQoj8cwaTy33SFrLi8Z+XsKf7+kyP2XqfqBFORyVNyetVVdGi5/5i6z6ihPioLlRuaM/1jfYum+2HLMQQgmMxcExmSIADBJIlugBEgIAUC5oKJcPP0iT8yfMslVhuZJwSXFfgqkyo5uMBTfwIVFUyqMRszqIrkSB+CUPZferiCykwYb1BMHMHkuSxFqzu+sr/+OptqWHy61iiYAnbm6/Ryy3Ce1l96o659M8Eou4z54pULnuGtb1Fwd2TaSQCCSQrRADaYE4BgMmeCHBBooQQEBBNB8BauNBdMggtXTkjI1JF//rx2UUhwcEhMYi7FPCU3PiGLqspJToiJCAmJiE/M0lA3dgd56c+vHtO2ZpFkfkpC1LygwOAFG4+XGJ6Sc530bTZVfnFXdMi0SRMnh+26pjMIJqXvspQKqiB5bVjw7LCVSwP6Kwnv4N25OvLG75ujQ4NnzV4QFR8doF/XUrRywVO79S0K7o5MOwlAMLXQACT5w4ZgknwXwUAQaCoCgoKJ0Gsm3vKVjGzqHpUkqJbo86X76GV7zuSVktU1VGXpX9fTD8WOVREqWjCVZZ1Nzy/XUeTd68e3R4zUPyOnP8OqBgauSzxv2KekIPP0zrBB+mklr4mfHki/Wa6tqaHIirsF2alrJzD3OqlHLd9/sVBDVZOluSlxY+krgOph8zYnXSooJ6urybKCy/sjhxquC4pVLnhyt7ZFwZ2RaScBCKam8ni00zACEEwN44XSIODEBMQEE33+M7x890e7Xr5LCybuTd92nlixu3MSgGBy4iAj60ODYJJ198F4EHAkAUuCySGnZggmh2B09kogmBzp1ajLcQQgmBzHEjWBgMwJtDTBpBwQe4p+/s/0U1OaOI9317izKxSJHR8Ek8wDidOaD8HktF2LAwOBhhJodMEksRMzzJEmAQimhnouyjcNAQimpuGMVkBABgQgmKQpIFqaVRBMMggWLdJECKYW2e04aBAQIgDB1NKkiTSPF4JJyDuR1/wEIJiavw9gAQhIhABzosI3CEiBgEScAmaAAEsAgolFgQQItHQCUjhNwgYQYAi0dG/E8UuPAAST9PoEFoEACIAACIAACEiMAASTxDoE5oAACIAACIAACEiPAAST9PoEFoEACIAACIAACEiMAASTxDoE5oAACIAACIAACEiPAAST9PoEFoEACIAACIAACEiMAASTxDoE5oAACIAACIAACEiPAAST9PoEFoEACIAACIAACEiMAASTxDoE5oAACIAACIAACEiPAAST9PoEFoEACIAACIAACEiMAASTxDoE5oAACIAACIAACEiPAAST9PoEFoEACIAACIAACEiMAASTxDoE5oAACIAACIAACEiPAAST9PoEFoEACIAACIAACEiMAASTxDoE5oAACIAACIAACEiPAAST9PoEFoEACIAACIAACEiMAASTxDoE5oAACIAACIAACEiPAAST9PoEFoEACIAACIAACEiMAASTxDoE5oAACIAACIAACEiPAAST9PoEFoEACIAACIAACEiMAASTxDoE5oAACIAACIAACEiPAAST9PoEFoEACIAACIAACEiMAASTxDoE5oAACIAACIAACEiPAAST9PoEFoEACIAACIAACEiMAASTxDoE5oAACIAACIAACEiPAAST9PoEFoEACIAACIAACEiMAASTxDoE5oAACIAACIAACEiPAAST9PoEFoEACIAACIAACEiMAASTxDoE5oAACIAACIAACEiPAAST9PoEFoEACIAACIAACEiMAASTxDoE5oAACIAACIAACEiPAAST9PoEFoEACIAACIAACEiMAASTxDoE5oAACIAACIAACEiPAAST9PoEFoEACIAACIAACEiMAASTxDoE5oAACIAACIAACEiPAAST9PoEFoEACIAACIAACEiMAASTxDoE5oAACIAACIAACEiPAAST9PoEFoEACIAACIAACEiMAASTxDoE5oAACIAACIAACEiPAAST9PoEFoEACIAACIAACEiMAASTxDoE5oAACIAACIAACEiPAAST9PoEFoEACIAACIAACEiMAASTxDoE5oAACIAACIAACEiPAAST9PoEFoEACIAACIAACEiMAASTxDoE5oAACIAACIAACEiPAAST9PoEFoEACIAACIAACEiMAASTxDoE5oAACIAACIAACEiPAAST9PoEFoEACIAACIAACEiMAASTxDoE5oAACIAACIAACEiPAAST9PoEFoEACIAACIAACEiMAASTxDoE5oAACIAACIAACEiPAAST9PoEFoEACIAACIAACEiMAASTxDoE5oAACIAACIAACEiPAAST9PoEFoEACIAACIAACEiMAASTxDoE5oAACIAACIAACEiPAAST9PoEFoEACIAACIAACEiMAASTxDoE5oAACIAACIAACEiPAAST9PoEFoEACIAACIAACEiMAASTxDoE5oAACIAACIAACEiPAAST9PoEFoEACIAACIAACEiMAASTxDoE5oAACIAACIAACEiPAAST9PoEFoEACIAACIAACEiMAASTxDoE5oAACIAACIAACEiPAAST9PoEFoEACIAACIAACEiMAASTxDoE5oAACIAACIAACEiPAAST9PoEFoEACIAACIAACEiMAASTxDoE5oAACIAACIAACEiPAAST9PoEFoEACIAACIAACEiMAASTxDoE5oAACEiVgCIuDf9AwH4CUj6k0yIAACAASURBVB3gsKseAhBM9QDCzyAAAiDAELD/TIkaQEARlwaHkikBCCaZdhzMBgEQaGoChpO9Ah8QsJWAfpKyqQcu2nMQAQgmB4FENSAAAs5OAILJVpmA/YwEIJjkHCUgmOTce7AdBECgCQlAMBlP+/hrKwEIpiZ0WIc3BcHkcKSoEARAwDkJQDDZKhOwn5EABJOcYwMEk5x7D7aDAAg0IQEIJuNpH39tJQDB1IQO6/CmIJgcjhQVggAIOCcBqQimVScMlujPvsJphULx1PO2ntWt3q/V31WB0XO9OrSyeg+HFWz10sCVO9aPf721w2pskoogmOQcGyCY5Nx7sB0EQKAJCUhCMFmjlhgh1QQCoG2fNderToa+0WDV4vLYK7191B3/z8VmI9t0i75MXlzWpY3NNTTLjhBMTeiwDm8KgsnhSFEhCICAcxKQhGCyMKvE+6kJBIHNgukB1Rc3yWNzXrV9agqCyTmdTNJHBcEk6e6BcSAAAtIhIBHBNPF4Ee+fIi7NPKcJ9JICgqmhlDHDJB1/brglEEwNZ4Y9QAAEWiQBKQumEUf+4mom2lTup9XzA1cfPJ15q4ykdJrCjF83zuj9tGF2p1UHr6V7UjMKykidtix355i/0/mt/64O234yt4wkS3NOfj9f9VzdRbeHXh/2aeKlQo22suhKctL5EtJwSc500qjVK0FHqvLXKR+grWjdQTlv2/E/S6rIiqJrv0f0flBBF66pNXyqdg9/hGtsXdqC2SYzTK1fn7In469yktLdu3Vh/zKv5xlzW70w+LNfzmXdKq2iqKqSnONbZ/VsZ/tFwDqz7EhBMMk5dEAwybn3YDsIgEATEpCyYOKqpYnHi/iCqfW/F6WRBfvm+bq5uvtNXPFTLnnv5ML3HqTP/PRP2ls/LvBT9f3Q3bfPP1orFA/3iDpfWZ62eYavUuk38+v0cs3ZJd0fogu7PO7+xTVt6dlNMweqXfuNXbTnaqW2PsH0cPclZyvKL2yZM0T9kcrn42F9OrTSCyYyLdbrnU6dOnV6+0Wxe5ksmG0imFwe/7eHn7p3t259/Ob9909t0feD9cJIv/vN/4b0c1WqfSf952gxlbfJ8zE75I79u0IwNaHDOrwpCCaHI0WFIAACzklAIoLJYAbvjiXzTe7ZnZYOVVdWdDfcIv1Q9+g/dEVb/WjxwPtJoXB5Yvj/KyFPhL5pmFVq83bYafLujiGPKxQuT4/Zf6/qSPA/DbNT3EtyYjNM7YbtvEvXZnJ3tmlhrqUmaZ5tXLNNBBNnp9Zvh5+pyort2dbs0Np0jbqkzY3/iP6l2T4QTHKODRBMcu492A4CINCEBKQimMzP9rwLcAqF0AwTRzAp2n70+Q0t84wZT5QoFG17rsrUGiSHvqm2fdZka6+s7N5G0bbXp1nazFU9jOLHCsFkVpu+StsEE9dsE8H04D/9lu1KzcgrLr1z83pBOXXjc8JcMLk85f+/qorvB+rn1cwZNk0OBFMTOqzDm4JgcjhSVAgCIOCcBCQtmP7WzuSMz5NQfFXU9sPPcrSXltMP5fN/UrTtGZslJpiYn3oZJ2m4gqkt8fkN8tR8w7wUew+TXmNx5ZdRMOVb8ZQc3zaO2RzB1LpT2OnK0hPx41y7derUddDnf2gFBZPi8VE/VFXuHAzB5Jzu2QRHBcHUBJDRBAiAgDMQkIRgWnPORBgxGzx5VO8MU+s355/Slu4a9rjZdSv6PqUnPt5dSp5gV1dq8/aCU2TJzqH0JTn6J+3ZRe/o7+VWmDwl17pj+Flt4Tf9HtWbxAoml6dH7ys3uyRHyyiSEWwCh8Nm8QQT12y9YLoU1bWNQvHoiL1V5IFxT+rv5271UuDhKggmZ/A36R0DBJP0+gQWgQAISJKAJAQTI4bM71ji5bCag0nQykNXcWnnovED3d0GBiaklWuv/If4G/0jT5TQWY/0jDpfWZb2VUB/gvCdmZBerjm39P2H9TU93GN5mqYya++iUZ7Eh8p+8w/cNj4lp2jTedE5UnNxa9Bgd6XSffzmDC3zlNxjH625TFZc+n7+CC/iI/WAsX6dH1G4PDVyT6kue1dQf6Wr77iPezFih7GV823B7FavBB/VVhxb6fPa/7V9b8kF7d3UNWPcenR5t2v/NedJCCZJOpDsjYJgkn0X4gBAAASahoBUBBNHUVibpJWHtjgtKSXrDqnT/PXHgZhBrxouTQkIJoWi9fNu4TtO3SgjybLck9sXuHKWFWj97IfBCb9nFlVS1dp7t7PP/fypbwfDs/oPvTHis1+uMr8U5fyRsmXi2/obx9u+6BG+/cSfJVWUtrwg/euRL7RSKB547ZP1qbllWqqyKGPvNKac2dFYMFvh0t5jxW/X71xe1aut4m/vTtqUcu1OVXW1rrL0r+vp+4M607dZ8Q4Nl+Saxk+ctxUIJuftWxwZCICAQwnIXDBxb/o2kybSzOApHmka2SCrcNO3Q12yiSuDYGpi4GgOBEBArgQgmBqkDRxQGIJJrr7inHZDMDlnv+KoQAAEHE4AgskBGkioCpf2Ew+SxnW/2b81RZu9u5gsHyW0r8zyMMPkcLdswgohmJoQNpoCARCQMwEZCyaJy4o2T/7znXf5n86dXnysmV9k4nhsEEyyjgByNh62gwAIgEDTEYBgcryAaGk1QjA1nb86viXMMDmeKWoEARBwSgIQTC1N3jj+eCGY5BwaIJjk3HuwHQRAoAkJGAST/pyHNAjYTKAJxyyaciQBCCZH0kRdIAACTkyAOUES+ICArQSYIeTEPuLchwbB5Nz9i6MDARBwGAEIJlt1AvYzEIBgcpg3NkdFEEzNQR1tggAIyJAABBOEj50EIJhk6Pd1JkMw1bFACgRAAAQsEIBgslMuYHcIJgv+Jf2fIJik30ewEARAQBIE7BdM27ZtoyiKXZpRLEFR1NatWyEvnI8ABJMkPNlWIyCYbCWH/UAABFoYAZ5g6uEzxCXuLJNp+bvVmjM9vQYSBGGNWmJUFEVRzicXcEQQTLKOGRBMsu4+GA8CINB0BHiCyUq1xGopgiDEppTY/Jo7V37/YduGrUcLa2ohL5yPAART07lrI7QEwdQIUFElCICAMxLgCSZWCSni0h6M/u31cWFvjpn36JJEJr+v2uMDtUcfd58+Hv26DBijiEurE0z3ji5V/+vFjoM3XNaxUolJVO4Z06Fdu2f6xlyqhmByPr1EQDDJOjBAMMm6+2A8CIBA0xEQE0wucWd79BvKnN4/cPduE5PK1VJsmhVM1VfXKJ9p1+6JDsO+v3PfVDFBMDmhSuIcEgRT07lrI7QEwdQIUFElCICAMxIQE0wPL/uZc04knlywXRGX1jr2RJvY421ij7NX7ljBVHu/+FRCZNjKPRkaU7lUWwvBxCXpfGkIJlkHBggmWXcfjAcBEGg6AmKCqdWaM708/Zize19X9wdWpiji0nr6DGZyPlSp2R0N+oj8acpLT7R76r3wk/QlufulZzfP9H7vlQ7tn3ujZ/fXn8IlOecTSsYjgmBqOndthJYgmBoBKqoEARBwRgKs7mFOf8wm8/3oksSOIwPfGT6t3cI93Hxuum6GiSuYam5+P/LVJ9u1e+Kp519789XnnnqiHQSTUV44319mPDijc7SIY4JgcoZu5gZlpEGgMQg4g5/YfQwMWPYsXi/nq3OfYP6xO5rPMFVnfaZu/0S7p7vO+e3u/dra0u0f46ZvlrDzJZiRYPdIRAXNQwCCqXm4O7bVegM3CoCAnQQcO2JlWhvDkD2Ls0gfWXrwpYDVb46e+9aoOS9PjXls8X5FXNrVuU/U/hHL/Ls69wmTp+Q4M0xk4uQXn2j35JvBv2tpNYV7mFi8TplgxoxMxz/MhmByhjFgCNwKfECgEQjEpSni0pzBT+w+BnPB1Gr16Y4jA81P7e8OHp8V/oTu7n7mX1a4BcFE38705L9m/EJCMJmDdLYcCCa7vbA5K4Bgak76jmobgqkRZAKqNBKAYDI6qrlgei7oS7FTenZUO4NjxqVd16cF72Gq+XOd57NPtHvy9U+2XicxwyRG01nyIZiMziTLvxBMsuw2ntEQTMZzO/42AgEIJqO/mQumh6OSenv07+Xp29ujv36lSs8+Hv16efr29B702KIfmCtxzLfYJbna+3d+nvXuM0+0a/dE+5fe6PjGy+2fwE3fziKPzI8DgsnoTLL8C8Eky27jGQ3B1AgyAVUaCUAwGf3NXDAZXE+PyDxN38aUb5BNooKptrZWl5f06STPLq8+98xTzzz3j7e6qwYvPHALr0Yxlxvyz2EGiXFA4a/MCEAwyazDBM01RGrjCQ5/QcCRBCCYjF7HOBp71v7AzctcJHFzvMYtWPHlLq9xCxRxaX1d3eouyRkelqvnD9sQEk5DgBkexgGFvzIjAMEksw4TNNcQo3knyVUnuLFbOK1QKJ56nref4zdb/V0VGD3Xq0Mrx1ddX42tXhq4csf68a+3rq+gtb+7PN1n8vKFg16pp0Juu9y0tc1IqRwEk9HrGCey/uT9w6Gj3uPCfjh0lN2Foqh6VJLxZ4qi2L2QcBoCzBAyDij8lRkBCCaZdZiguQYxxD3JWqOWmOsI3L0aKd22z5rrVSdD36hHZJi37vLYK7191B3/z8X8Jytz2nSLvkxeXNaljZXl6y3W+t+L0qqurOguUGHbXlEXijJWEw8rFApuu9w0t0y9bVlTwH5E9bYCwWT0uoYKJvPT/LZt26zRTBRFbd261Xx35MidAAST0Zlk+ReCSZbdxjNaQDAxYsia73rPl/YXsFkwPaD64iZ5bM6rtk9NccWK/QeiUCgsCKbWHafvProv+N0HLAgmbhmH2GM/onrNgGAy+pv9gknu53vYbycBCCajM8nyLwSTLLuNZ7SgYJp4vIj3TxGXZp5T7+nSAQVaiGDikuIKNW6aW8YhaQgmnjM05iYEk51yAbtDMDWmgzZ63RBMjY64CRqwXjCNOPIXVzPRO3I/rZ4fuPrg6cxbZSSl0xRm/LpxRu+nDbM7rTp4Ld2TmlFQRuq0Zbk7x/ydzm/9d3XY9pO5ZSRZmnPy+/mq5+ouuj30+rBPEy8VarSVRVeSk86XkIZLcqYn+FavBB2pyl+npCdlFK07KOdtO/5nSRVZUXTt94jeDyrowjXGmzqqdg9/hGtsXdqC2SZipfXrU/Zk/FVOUrp7ty7sX+b1PGNuqxcGf/bLuaxbpVUUVVWSc3zrrJ7tRC8C0jNM2uK0pJTMO1Xailt//Lhy4KsPMqZwJ5+47XLT3DIW2m317Iezvzly7U6VTqe5k3shZVeg2EVFPqKnfb6+rU2L6GToidadItLI3PiPHhTvWYVC0fZln8hdx7OKKirvXj+SMK3b4yaHjxkmow9DMEHx2EkAgsnoTLL8C8Eky27jGW29YOKqpYnHi/iCiT6dkwX75vm6ubr7TVzxUy557+TC9/R6QC8Ubv24wE/V90N33z7/aK1QPNwj6nxledrmGb5Kpd/Mr9PLNWeXdH+IFg8uj7t/cU1benbTzIFq135jF+25WqmtTzA93H3J2YryC1vmDFF/pPL5eFifDq30golMi/V6p1OnTp3eflHsXiYLZnPFisLl8X97+Kl7d+vWx2/ef//UFn0/WC+M9Lvf/G9IP1el2nfSf44WU3mbPB+r02MmKbqwTnN556IJgzzchwR9c75ce+U/xN/oMvRPxtubuO1y09wyou3SKDSaKzvnf+xBKD3Hrr+gK/9ugEGVmRijUJghatVuxO6yqt+mv6AXui7PTjxYWfL9oL/p2xLuWcWjH8Re0uQlLh7yQdeevvP339DmbfL6P047EExGfzM4mjVXulEGBMQJGAcU/sqMAASTzDpM0FxBwWRtcOecGU1O+QqF4qHu0X/oirb60eKBe6bX7+LyxPD/V0KeCH3TMJfR5u2w0+TdHUMeVyhcnh6z/17VkeB/GmanuJfkxGaY2g3beZeuzeRmatPCXEtN0jzbuGZzxQp3n9Zvh5+pyort2dbs0Np0jbqkzY3/iP5F4MNrq/Wb809qS3cNe5xXD7ddbpq7OzetUNS1+/iQHXe1aZGd9dNuCpf2Ew+S9Qgm7m1eLu3H/VhekTj+WXqW6JF+3xRV/DSxg4tpW9yedXnyk71lpf8d9TQzq9TqxZm/k0UJ3hx9po/7ggOvpWUyPmXnHAN2b8kEmCHU0hzHaY4XgskZulJYMJmf7XkX4BQKekfuh3daVbT96PMbWuYZM/5PirY9V2VqDZJDX0fbPmuytVdWdm+jaNvr0yxt5qoeRvFjhWAyq01fpW2CiWs2V6woHvyn37JdqRl5xaV3bl4vKKdufE6YCyaXp/z/V1Xx/UCOYrCI6MPPcrSXorq2MdWU3Ha5aS5GblqhYNtt0yPmqjZ7dR+DYmuoYFK4PDN6X1n5/rHtXfR9VJkS9I9WZnq3rmfb9ozNqq6htKTxo6u+T/404Zm6q3IQTMYgAcHUkrWOQ44dgsnoTLL8C8Eky27jGd0AwfS3dtyzf72CSa8GltP3z5ie3en7XnrGZokJJuanXsZJGq5gakt8foM8Nd8wL8Xew6TXWFz5ZRRM+VY8Jce3rW2d2Ryx0rpT2OnK0hPx41y7derUddDnf2gFBZPi8VE/VFXuHGytYBLWlJx2TZYY4JrKTSsUbLtte6++pr0aY5Sb9QsmPiKXJ4ftLL6XOKFD247hZytPL3irtXn31SGiyevyv/2k05t1n9dfeLzubjSEeNbdGBQOOXGikpZJAN7EepMcExBMcuw1vs2ME5oooTXnTDaZDd58Ur0zTK3fnH9K6HqTvjaXJz7eXUqeYFdXavP2glNkyc6h9CU5+ift2UXvMBeVFFzB1Lpj+Flt4Tf9HtVXwgoml6dH7ys3uyRHn8zJS3rBJnA4bBZPeXDN1gsXZgLo0RF7q8gD457UT520einwcJUDBNOD3ZZf0BVvG8C/aslplxFMjA0mupNntlGouTw78afKqpQgwwXNegSTIKJH1F/e0BwJ8Qg9pjkT9jatfXhtcRC5PD3mh3u688YrgCzUugRmmIwOB8HUMlWOA48agsnoTLL8C8Eky27jGS0gmBgxJH7XofAu9GlVV3Fp56LxA93dBgYmpAnf0Ww4lz7SM+p8ZVnaVwH9CcJ3ZkJ6uebc0vfpVRvp+8GXp2kqs/YuGuVJfKjsN//AbeNTcoo2nRedIzUXtwYNdlcq3cdvztAyT8k99tGay2TFpe/nj/AiPlIPGOvX+RGFy1Mj95TqsncF9Ve6+o77uBcjdupO5YaUBbNbvRJ8VFtxbKXPa//X9r0lF7R3U9eMcevR5d2u/decJ20VTGTBvhAf5YeE99il+69X3Tu5sIt+OoorSjjtunDT3DLcNGeGSeHylO83edSdY59N9Or7gefYFb8UVIvfwySMiD5WsuDGTcP8EiOYRHpW8X/K/2SQmiv/b+Fob+VHrv1GBY7pZXJ7PQST0d8gmBwoHVpmVRBMRmeS5V8IJll2G89oYfVjpivqz6BP4fpn5rPukDrNX38ciBkk9Mw8W1Hr593Cd5y6UUaSZbknty9w5Swr0PrZD4MTfs8sqqSqtfduZ5/7+VPfDobbYh56Y8Rnv1xlfinK+SNly0T9JIii7Yse4dtP/FlSRWnLC9K/Hkk/6PXAa5+sT80t01KVRRl7pzHl2OaNCQtmK1zae6z47fqdy6t6tVX87d1Jm1Ku3amqrtZVlv51PX1/UGf6Nisx4WKs3uRvqxcG/ycp7XpRhbZap7l95bdNM9mVF0zq4bbLSXPLcNNcwaRQuDzWefwXv/yRX0Zq/voj+VQuVbrFV+QSoQiiVs9P+F9ZTdXvgf9gbryn2xLpWfry6oueC78/nn2nkqIqi6+fWD+MecbOcOAQTEZ/4wmmHj5DXOLOGrzP4n9OWq0509NrYMuUCDhqLgEIJqMzyfIvBJMsu41ntEMFk/HBeBOZIO0NnvKQtrENta71W2Hs83wN2PehPquv3t77if5ZOXNR2ICK9E8GxKXxhlzL3OQJJivVEquouCfORkmrBgfHb1sfOkjVKLVbrNTYtMVC+JGAYJJ16IBgknX3GYyHYKpbAKlBUkCihdt0HDxr4lAvonfPvt4TPv29sOpyTC/9+lZW2PvIP97t/s57yombLxSfjuhiuInMbBbNiorqimCGyRgkeIKJVUKKuLQHo397fVzYm2PmPbokkcnvq/b4QO3Rx92nj0e/LgPGKOLSGl0vqGfsKtBmbBjdYMGk9B4RMH/OOG+lZRPVAduyS3N3BXmYFzM2bf4LcrgEmLFhHFD4KzMCEEwy6zBBcw2Bu+4UZ2tK2lM1+tufjet+s39rijZ7d3G4YBJty5PVILZCrnc/l6d8Yg9fzrtTodVV3vnz1J6ogf96yFp72ry38FS5jrxz9edYv5eNyzpghknQbRqeyTgae/4z+F1cmkvc2R79hjL5H7h7t4lJZX/iJtgdGythVC0NFkzq4H3FuotfjKxnR9W4uMN/HF03UW1+AMamzX9BDpcAMx4aPvSwhyQIQDBJohvsNMIQlOs9E8u9QJsn//nOu/xP504vPla3ZpDDDrEp27LG6Ga0BzNMRv9kHI09/7Fi6OFlP7OZBEE8uWC7Ii6tdeyJNrHH28QeZ6/cccs0StqoWurRPeZtWymYzHdkc4xNsxlICBKAYDI6kyz/QjDJstt4RrcUwWSNsEAZhxOAYDL6m5hgarXmTC9PP+YE2dfV/YGVKYq4tJ4+g5mcD1Vq3o4EQUTsOnUl745GV02RJbnnfvwswM+gclSDQr9NuZhbrNFRlKYwOXowna8aPGfTrxmFGp2u4q+MpI3B+kymdvdRkTtP5JSQFFl6I+3stXs6wyU5Uw2kGrH2grZoX7B+bkg1KHj9L5du3dPqqkpvnk8IcCPowuxLG7WHlwhcc6NbU41PyNLe+G6qq3jTzC/4FiMAwWR0Jln+hWCSZbfxjIZgcrhIQIV1BCCYjP7G0z0Gv9PzeXRJYseRge8Mn9Zu4R5uPjfNPYkmZOmKj64PC5kdEh773clCXWXG5kludAFalFB3jm0KDw4MDAmb8bGKIDymbbtGarISPwsLDg6P/ylbQ2Z+O9WdLqz0Cdl3k6rIPBAfMWf2ghUJKXkkVZ9g8pj6bWaVJvvQF4vnzAqevzRyxiCVXjDpsnaEjvf39/cfO0zsXiauYBJpmnuMSJsTYMaDcUDhr8wIQDDJrMMEzeUGZaRBoDEICA68lpbJgGXPgg3lzO5IEITpVM3Ubdep0p/Dvc1ncQhC2X/J7/d0lzeMMUxBuY7ddEVX/ttiH4JQ+kWnVmovrBth+Ml4XYzeFJth6heZXE7XZpglYmwyLcy10yTNEUxiTZuUx4YZAWbMtDTHcZrjhWByhq7kxXEzJ0UGCNhOACGejRE8R2M2FXFpjyw9+FLA6jdHz31r1JyXp8Y8tng/+xM3we0DE8FEqGftLaT+3DLJ1eyyF0Gop2/Po/J3TGfvtKZlEXXj+6muhDpgZz6Vt32aUfxYIZjMatMb1XDBJNY09xiRNifAjAd2RCEhLwIQTPLqL2FrGSc0d07kgID9BBDiWa/jOZoiLq3V6tMdRwaaQ3538Pi2MUeZ8uw3txhPMAXu+YvK2SoimHbkiwmm6fqfAoxaykQwBe0t1GVsNMxLsfcw6YUOV37pjVIH7yuy5im5unuY1CJNc48RaXMC8CbWm+SYgGCSY6/xbebFcXMvRQ4I2EwAIZ71N56jKeLSngv6UgzsK5OjmPLsN7ekiWBSjdmYQVUkR/oIX5JberhCd5ldXcl17KYM3T19YWX/pYcrqMyE8QbFxBVMqnFfZVIlBxd46ltlBZPSL/qoxvySXMDOfB0j2LhG8tPcS3IiTfN3wbYpAXgT601yTEAwybHX+Dbz4riph2ILBOwigBDP+hvP0RRxaQ9HJfX26N/L07e3R3/9SpWefTz69fL07ek96LFFPzDl2W9uNyRkUVU5yQkxESEhEfGJWRrqxu4gL7oAR5QYy3tM19/0/b//hAUFhcUnMjd9Mw+yeUzbmkWS+SkJUfOCAoMXbDxeYnxKjnCdkJCpI//8ee2ikODgkJjEXIp5Ss571q4cXVVO0sZloUGz5ixcET7Bg1D6LkupoAqS14YFzw5buTSgv/AKlia2CTdttBl/hQnAm1hvkmMCgkmOvca3mRfHhT0VuSBgEwGEeNbfeI7GbFr/zcWfkEWVZZ1Nzy/XUeTd68e3R4zUPyMnKJgIQjUk5Kvf9MsKaAozft00m7OsgGpg4LrE83mlZHUNVVlSkHl6Z9ggg9xxH71szxnDL/S7Ew/FjtXfHa4eNverXy/fuqetpjTF2T8tG6oiCPWo5fsvFmqoarI0NyWOKce1V582EUwEIdS02T7IMCEAb2K9SY4JCCY59hrfZl4cxztBTUIUNuwjgBDP+hvP0T5w82JyrPnu62pQRExvmFySs6+DsLeMCMCbWG+SYwKCSY69xreZF8fZlYWtieNWvuJK5Tt29qKY+JhZAw1PMMsoRsFUuwggxLP+xnM0e7BCMNlDT777wptYb5JjAoJJjr3Gt5kXx5lN5rth7wT1nrXtcomm8GS8v/G5G2Nk8lhyWFtbS2UljIdgMjJpIX8R4ll/4zmaPQNAyoJJOSD2lI59WaMxUVOaOI8fFuwh0DL3hTex3iTHBASTHHuNbzMvjjObioa/E1Q1dtMVqrb2Pnl8hS/vrk8IppYZ3wmCQIhn/Y3naC12SODAbSYAb2K9SY4JCCY59hrfZl4cZzbpR3ga+k5QpV/A6u92fb10HPMsMicqQDBxYLSsJEI86288R2tZ4wBH6wgC8CbWm+SYgGCSY6/xbebFcWaTXlWvoe8EdQs7VHG/tubmLv1SeMp+U+P+l36zXEuRxX/euFuDS3KOiJiyqwMhnvU3nqPJrithcLMTgDex3iTHBASTHHuNbzMvjjObzHfD3gnKFUyqmoQzDAAAIABJREFUoSuOltbU1t6vqSwpLiVr7tdCMDV7uG0OAxDiWX/jOVpz9AbalDcBeBPrTXJMQDDJsdf4NvPiOLNp4fvq3CeYf7wdCY5gUo1af5m6X1udty+EXsWuX3QqbvqWd6i21XpmkPDHXIvc5vuLrUixX4slAG+SdeSAYJJ19xmM58VxZlPsnaBX5z5R+0cs8+/q3CdMlhXgCCa3sJ8192trin+YrX8yBvcwIcQ7g6vYdww8R2uxQwIHbjMBCCb7XLCZ94ZgauYOcEjzvDhu+Z2gWeFP6O7uZ/5lhVsQTPrbmUoSQ/Xr7UEw2Rwi5b4jQjzrpDxHYx8hZLq4m98nTAFFXFo3v0/YX13WnGsde8LkfyZyHxOw31YC8CbWm+SYgGCSY6/xbebFccvvBM2OaseG9ev6dJ3vc2aYVCPWXdDdr625eySGfmkDBFMdpRaWQohn/c3c0TrM3sgqIUVc2gdu9PvgGOXEDpOPlKoP1J5sMTYfiRZIAN7EepMcExBMcuw1vs3mcdzyO0GZK3HMt0kc5wgmQukb+mMBdb+29j5Vcaew+B6dxMKVCPH8wdeStnmO1tN7EDONxBsVzCtT2MyPVK4mXsb+gETLIwDBJOuAAcEk6+4zGM+L48ymhW/6Nqb8H+oRTARBqIfN++qXC/mlJFVDkeVFNzJO7lzIee1ny4t2LfKIEeLZGMFzNGY4mIshRVzaP6auZH9tG5P6rwmLTcaO0nvipwcuFJTr6Nff/pm04mPD+vnq4fO/Sb6UX1pFlhdcSIyb4mNYP1Y1MHBt4vm8EpKq1lYU52Wc2M68YVcdvK9Yd/GLkczuqhFrL2iL9gXr7zoUrEo1dNGeM5n5dyq01dXae39d+vnz6f2MTQwKXv/LpVv3tLqq0pvnEwL0V+IFKzE5Emw0jAC8ifUmOSYgmOTYa3ybeXG83neCeo1bsOLLXV7jFiji0njvBG2Y96N0CyCAEM/6G8/RmM7nCibG9V6Y+RlvXCji0riZqvEJWbri45sWTJ80KWDestBxzHt5PWfuyCFvn/h68czJ08M2phZStw+EehME4TF1SyapLTi2NSYsZHZI+KbjJbqMDaNpkSQqmESqYho+8uWC2cFzwj7d/UdZ9e0D85gmvs2s0mQf+mLxnFnB85dGzhikIgiRSnjHhs2GEIA3sd4kxwQEkxx7jW+zYBy34MU/HDrqPS7sh0NHLZTBTyDAEECIZ/1N0NFYwcTcutRpxEzBkcMW0+uc/96mcrYHmCyor+y/PEVTcSTKj5nyUQ2LP68rTQx1U/Zf8vs9KvPrCYYXualn7CrQWhZMYlURtGDS3vhuqqveRNfJ23Kowj2z1ES/yORy3eUNY5h8xn7RSgQPD5nWEYA3sd4kxwQEkxx7jW+zYBy3zn9RCgTqIYAQz/qboKOxSoh9OI4Byr2TiXcbOOE2Pv5EMVVVcO7AxshJAxiZop6+I7+mpprSGT9UzX3dyVUD3KZvz6Pyd+oX36drtkIwiVWlNBVMSt+YE9qqpAg3tb6JHdNN3q0rWkk94wU/WyIAb2K9SY4JCCY59hrfZsE4bslr8RsIWE0AIZ71N56jvTDzMyaHkUpsmi3GPEPHbDILDdRRV3p9EhL3/07mV9aUXdg0xYMg1AE786miQ8v9x9R9Rg31Uenz87ZPM87+mAimoL2FuoyNY3j3MIlVxZthInyiUrVk8iI3ffl8vmASsafuEJBqOAFmMLAjCgl5EYBgkld/CVvLBuiG+y/2AIF6CCDEs15ng6P19B70un+4OGKvGTtzKP3ysEq/6NRK6to3xktvxn30+doL6wx3dpvMMKnGfZVJlRxcwFzbY2/6FqtKTDAp/aKPaswuyYnYY7QLf20hAG9ivUmOCQgmOfYa32Yb4rgtvo59WiQBhHjW3xzlaKqRC+JWhQVOnTR5RthXJ+5Q17dMouePvIN35+rIG79vjg4NnjV7QVR8dIC3kiCUPiH7Cqh7V378z8LZwfOjEw7fICnDPUyE64SETB35589rF4UEB4fEJOZSzFNyIlWZXpJjZ5gIwnvWrhxdVU7SxmWhQbPmLFwRPsFD1J4W6QWOOmh4E+tNckxAMMmx1/g2M06IbxBoPAL8Mdcitxm89p873QM2nb1RQlbX1JBl+Rd++s9U4/IB6mHzNiddKignq6vJsoLL+yOHMhfb3EdF7jyZU0JS2rK88+ey7xmfkiMIwn30sj1n8krJ6hqqsvSv6+mHYsfq9xGsSlQw0WuIzP3q18u37mnplQ6yf1qmb1mwEvuPvwXXwAyhFuk9znDQEExO0Ytxaeydpy04FuHQG4UAQjwbIxwlmOzqJ+49THZVhJ2bgQC8ifUmOSYgmOTYa3ybJRHHmyH4oMmmIIAQz/qbJBwNgqkpRn1jtQFvYr1JjgkIJjn2Gt9mScTxxoowqLeZCSDEs/4mCUeDYGpmh7CreXgT601yTEAwybHX+DZLIo7bFUaws3QJIMSz/gZHk+4wlYll8CbWm+SYgGCSY6/xbbY/jm/bto2iqFopfSiK2rp1q0zCoDObiRDP+pv9jubMAwXHZgUBeBPrTXJMQDDJsdf4NvPieA+fIS5xZ5lMy9+t1pzp6TWQIAipqSVGuVEUZUUIQpHGJYAQz/obz9Ealztqd0YC8CbWm+SYgGCSY6/xbebFcSvVErMX83hd/VNLNXk/Ro4P3ppVXX9Ru0vU3Dq8fslnvxTW1tY6Y8yU2TEhxLP+xnM0mXUkzJUAAXgT601yTEAwybHX+Dbz4jizyXw/GP3b6+PC3hwz79EliUxOX7XHB2qPPu4+fTz6dRkwxlrBRJ1b8v6zPZefd9h1O92ppb1f7R5+pMpcX+lOhHXu4BqXCcEkgQhPMMOGP+Za5DaDgu0UG6Zy2X2RaJkE4E2yjhwQTLLuPoPxvDjObCri0lzizvboN5QJTB+4e7eJSWV/4iYIgjAXLfwchwum6oyvxniMXHdBy2+pthaCSUonE2aoOIOf2H0MDAq2c2yYymX3lV9CNTg4ftv60EHys1xKFsOb7PbC5qwAgqk56TuqbV4cZzYVcWkPL/uZGyueXLBdEZfWOvZEm9jjbWKPs+G+eQSTuU5icyCYuN3W3GmEeNZPxRxNEZdm5VQu25kjAubPGUe/+KSJPkpvq1pUB2zLLs3dFeRhbpZxOQPzX5BjPQF4E+tNckxAMMmx1/g2i8XxVmvO9PL0Y5y5r6v7AytTFHFpPX0GMzkfqtTsjqxW+TF8sLLrGy8++/Qzz73W3XfWxpPFNcxvJjNM1VkJo7u//sKzTz/z/Bu9P17+SwFzZ1PNzR9CB3zY5Y2XOjz9dIeX/62e/OXp0vts1bxE9aWYvh26R541XOOrytq7cEiP155r3+HV7v38Pnj5WVySsz4KN2pJhHjW31h/YYAzmw2aymV7al+x7uIXxvfpsrmNl1AHW9Wialzc4T+OrpuoNrcEgsmcScNz4E2sN8kxAcEkx17j2ywWxxVxaY8uSew4MvCd4dPaLdzDxndegjvDFNP32TdG/ifxt99//d+3kYM7Pfu8a2w6SUsdE8F0v+xS0v+ST547d+J///nknfavTvhBL4xoDfTsm5/EH/w9JTnxm/ke/3z67cCkezyhZNzkCqb7Zb/Ofq/9Sx8Fbvgx+feD38eM7tahPQRTw6Nxo+yBEM/6m5ijWT+Vy/aQVfKFLW1/wkrBZKEhCCYLcKz+Cd7EepMcExBMcuw1vs1icZzJr/fbVDBxZ33OLun1zKuT/0drHhPBZBQ9tbW11Vc+JTp0iTito9Mmk0ZU2tIe7TvNO0r/IvDhFL5fvP3j5zt4rvvTMJuFS3JWx98mKIgQz/qbmKNZP5XL9tc+49Rtba328BL9FTD18PnfJF/KL60iywsuJMZN0b+RVzV00Z4zmfl3KrTV1dp7f136+fPp/fQX8lSjVqfk3tXoqqnKO9mpW0KHMK/pFStPCyaDe9W1yFrDJnhv56Vf+nuCfukvWXoj7ew1/Ut/2bJI2EAA3sR6kxwTEExy7DW+zWJx/JGlB18KWP3m6LlvjZrz8tSYxxbvZ0ryvkUFU63u6NyO7ZlH40wEE/nn/5aPc+/+9j9feuXNzm+88HTHuUfMBdP9O9uGdvj7hB/1E1TmiokjmHSnFnZp33XRaeMTeBBMNkTiRtsFIZ71NzFHs34ql+2lfcW6rB2h4/39/f3HDqPvZfKcuSOHvH3i68UzJ08P25haSN0+EOpNELSC0RUf+XLB7OA5YZ/u/qOs+vaBed4EQSh9xs8NnxMwZcqM8PVHblGlSYv0QkqsvH6GybRF1hZOgiuYlD4h+25SFZkH4iPmzF6wIiElj6QyNozmlEaywQTgTaw3yTEBwSTHXuPbbB7HW60+3XFkoLk3vzt4fNuYo0x59tuCYEoN/Xf7HsvotQQ4gqn68mplh5fU8777/dzly2n75/ZqLyiYast2jujQwf8HKwTT6Ygu7btEnDLORUEwmfdc8+UgxLP+Zu5orBNZk+D2Ie+SnLL/8hRNxZEoP+Y2cNWw+PO60sRQN71g0t74bqqrfmfXydtyqMI9s0xvMVKN/eqqNn/HdDqXq3gIoq68lZfkOLsr/aJTK7UX1o1gpq4IXJLj9p+taXgT601yTEAwybHX+Dabx/Hngr4U8+hXJkfxgruoYKrOjFO1f2nc3jLjJbkeS9Oo2lrN7lEdnh323V39/dw1eeu9O9gpmO6X7BnzUvuPYi4alhiAYBLrvObIR4hn/c3c0Zgc66dy2Q7kCSb19B35NTXVlM74oWru606uGqDkKBh6Wsk35oS2KinCjSDcRoRvSb6Ye7usory4oFhTXbg3yFww1ZVvuGBSB+zMp/K2T2OkGgHBxPadPQl4E+tNckxAMMmx1/g2m8fxh6OSenv07+Xp29ujv36lSs8+Hv16efr29B702KIfmPLst6lgeubvPfxjtv74628/rg/o+0L77vOPVNDX02py1nm0/7tb5KFr5br06N7t/+Eetv230+cvpP0U9sGzdgqm2tqq08v6Ptehy6iYnUlHUlMOxg37F56SsycsO3JfhHjW38wdraFTuWzH7CsyeUpOr06KDi33H1P3GTXUR8WbMSJ8olK1ZPIiN5X/pitkxeU9K2dP8fefHLH3OiUomNjyhDqY1yJriUmCo89oDUfl7wgwzmZhhsmElI0b8CbWm+SYgGCSY6/xbTaP40yOld+mgqn9P/v6eXV55dlnnnu917DF+68br6jdv50U2b/zK+8vOqWrrbjwTaDXe690eOqpZzq89HrnPh9/8Qd9/xHntiRaY1l9SY4uXF2Yui7Ap+urHZ5+qv3z/3r3w4ELE/FqFBuDsmN3Q4hn/c3c0Ro6lct2zc58Xc7WScbZG0J//Yu69s0EozwxFuQoGDrLKJg8l6VodcdX9mfu/x4Wn66tTzAF8Fo0NmD6l9Ocsv/SwxVUZsJ4g0kQTKaobNuCN7HeJMcEBJMce41vMy+Of+DmxeRY893X1c1UMHGekjO/U7vJc2yLStjLgQQQ4ll/4zkavTZsA6dy2X5ZllJBFSSvDQueHbZyaUB/JeEdvDtXR974fXN0aPCs2Qui4qMD6HvBOQqG3tcomFwnfZtNlV/cFR0ybdLEyWG7runqEUxKX7MWWVs4CZPmPKZtzSLJ/JSEqHlBgcELNh4v0eGmbw4sW5LwJtab5JiAYJJjr/Ft5sVxG/yYogxPqJksJtnk8ojXIEVRNhwLdnEsAYR41t94jsZsWv/N7Rf1qOX7LxZqqGqyNDclbix9Y7V62LzNSZcKysnqarKs4PL+yKEqUcFEEF4TPz2QfrNcW1NDkRV3C7JT106g56tMFE+dwKKrN2+RaxCT5u2uGhi4LvF8XilZXUNVlhRknt4ZhlejmFNrQA68ifUmOSYgmOTYa3ybeXG8Ae5rLLpt2zZGMzlcMN2//e3gZ9vxP0++OiNJ4CVyXMFEUdTWrVuNBuJvsxFAiGf9jedoNkzlNlsvomFpEIA3sd4kxwQEkxx7jW8zL45LIzLACichgBDP+hsczUnGdPMdBryJ9SY5JiCY5NhrfJsRx5svADp/ywjxrL85jaMpB8Syq57VTevWlCbO49907vzju2mPEN7EepMcExBMcuw1vs1OE8ebNnahNasIIMSz/gZHs2rEoJA4AXgT601yTEAwybHX+DYjjosHKPxiLwGEeNbf4Gj2DqYWvz+8ifUmOSYgmOTYa3ybEcdbfBxuRAAI8ay/wdEacZy1jKrhTaw3yTEBwSTHXuPb7MA4PuPTrZsjjG+PEgthqmER3/+2P2YU/Sw0Ny1WHvlyJoAQz/qbAx1NziMCtttOAN7EepMcExBMcuw1vs0OjOMJWXVv+jSJCuqAbdmlubuCPAiCcJ2yLUf35xb9OsXcNLeMyc62bii9RwTMnzOOXsAPn+YigBDP+hvP0Xr4DHGJO8tkWv5uteZMT6+BzdWDaFc6BOBNrDfJMQHBJMde49vMi+MEQbT69JQiLq3tqlQmUrDRnA0cbVYdU8Sltfr0FJvDJEQFk2pc3OE/jq6bSD9FwxVJ3DS3DK9e2zatfGOobZVjL+sIIMSz/sZzNCvVkrn3WQe+CUupBgfHb1sfOoieMxb8KP2smnsW3BeZHALwJtab5JiAYJJjr/Ft5sVxRi1xwzSbVsSlEQTB3WRyWI8WFUxsCQuCiVvGIWkIJodgtK8Shdmnw6pfX/Mbzx+FLWCb52hcP3ow+rfXx4W9OWbeo0sSmXz9S689+rj79PHo12XAGJ6j2dcnInvbPCNrfE+cqGDirQAu0j6y6yXAjI0W4CvOeYgQTM7Qr4JxnBVGTILxZK5gEvTthCyqLOtsel65lqq6c/3Y9xEj6VfN8V65wJ1V4qa5UVU1dNGeM5n5dyq01dXae39d+vnz6f0MV9bo9y0cvHCzXEtRZHlhdnpyfN1LSE2NogVTjXGdGO3hJb7zfyqhshL8DXFd5Z+QpSvcM8ttSMSuU1fy7mh01RRZknvux88C/OpCv3r4/G+SL+WXVpHlBRcS46b44AKfKeV6thQKhbEL6L8KhWL+lv89tPrkK/3Gss7z7Lglz40Ke3747BeHzHjZb2Lnzu+yP3Xu3LlTt57cTVmkX/UYrohLe9VjONdaQUdTxKW5xJ3t0W8ow/EDd+82MalMSd53PaDt/9nm/2BAMNkP37oamCHBHVRIy4gABJOMOkvUVPM4zjovq5Aeiv7toejf2E2x/+8mZFFkTnLCqoi5IYvXHrymoW7sDvKia+OKIa5I4qa5Zei0rvjIlwtmB88J+3T3H2XVtw/M8yYIwmPqt5kkeSN549K5QcHzVuzPpjRJCw2qjDXbkNCfALJ2hI739/f3HzvMW9Vv2WGN9lwc/ZItglAOjD1F3kuK8GLaOro+LGR2SHjsdycLdZUZmycxdXrO3JFD3j7x9eKZk6eHbUwtpG4fCKXNwMdaAuaCadeuXUEbdz8csd8wIt99l6cMeCOV+bXVquNtVhx+YOnPvF+fmrqm/fjlHcZE/H1k6AtDZ/F+fauPa6fuvd95rysvv1E3X/UY3jr68EMDglpFH+ZqJnNHY3IeXvYzl+aTC7Yr4tJax55oE3u8Texx9sodt0yjpCGYGgWrIytlBkyjjl5U3ngEIJgaj23T1SwWx9l8Vh5xBVOXgWO7DBzbdeBYbjwwuSSnGrMxg6pIjvSxUTDV3T/uOnlbDlW4Z5aa8Fn8WzmV9c0EZkVh/YrD9Qimi1+MZKeLlANWHtNUnYgZSM8SeSw4WFp1MnaQkivUCIJwn7rtOlX6c7g3QSj7L0/RVByJ8mNmlVTD4s/rShNDRfQZFwTSRgKCgunLzd8o4tKYIf5Ol64dxkS0H7/8qSmrnwz4/MmAz7lD/9/derRadZwZivRtc6uOm/zatTv7k/6mupPcX995r6vhV85lQbbAO+++127WhqemxT0zcWV7/6XPfbKA/YlJvK7yfesDdceeHzZoiotRS397l2jXrt3f3iW4mol1KIYNa3mrNWd6efoxmX1d3R9YmaKIS+vpM5jJ+VCl5u1I56sGBa//5dKte1pdVenN8wkBboRqUOi3KRdzizU6itIUJkcPpoe98PyoatTqlNy79Ixq5Z3s1C2hQxgP4c/I0k9oiNRAEO6jIneeyCkhKbL0RtrZa/d0GRtGs47GWF73TbuY+dyzh+CMb91eSJkRYEYCb6BiUy4EIJjk0lOW7OSFY3aTl6CvHaw5y16qY35ltRTj2iaCiVAH7vmLytk22dW2GaY6waT0jTmhrUqKcHOdtj2PKtg1w/AGhoYKJkI5IPqoRpO6YoCSUE/fnkemr/1YZTL7RR+GetbeQkr/FJ96+o78mppqSmf8UDX3dSdXDTCLY8gQJSAomAYuin84Yp+lQWn2W6duPTv27PtWH1fuL++81/X54bOfGxX2rP/SZyaufHpSDPfXTt16PrA8qXXMUdYGhaIuZHXq3pMdw/SMTswxk31NfzUTau8/Nndbu1kbnwz4/Kmpa54du5jZl6uWmDdG/+1dgqPWDEkGFrf1R5ckdhwZ+M7wae0W7uHmc9McxPQ8a5Um+9AXi+fMCp6/NHLGIGYYU3eObQoPDgwMCZvxsYogxOZHlT7j54bPCZgyZUb4+iO3qNKkRfrr3fwZWaVoDUqfkH03qYrMA/ERc2YvWJGQkkdS9Qoms7lnb8EZX85hIsknwIwH7kBFWkYE6qKPjIyGqTwCjBOyrslqoE4fz+BOKSni0rr3H0EQxEdKFRvH+6r1/w017swTTKzyMBEl3Mtw3DR3poebJgjCJypVSyYvclMH7LpJ5W2f5so0WL9gKtJxZ5joOaPI5LLKE6sGqcd9lUle2TRWZSrm6HoZnbd1kiuhDtiZTxUdWu4/pu4zaqiP6H+kjRjwt46AuVwYHPFZm5ijr/iM4Y3DxtsUFEz/7tL95QGTXxg66+8jQzuMiegweiHXgI49Png44ocHlv7cZsVh+mpg9O+mv/ZlXUARl9ZmRUrnzp3N1RKjmdjWmXu5FAoFQ4dbgzXpOqb9IpPLdZc3jDG4AfMDz2WsnB9Vjf3qqjZ/x3T6vyBml+TEZliVftGpldoL64wrrjX0Hibj3HM/oRnfusNEyowAM064QxFpGRGAYJJRZ4mayjihmW/akmEimNymbM2myn5ZSN/zw43mepHETDwxSwwY0twy3DRHMCkHxp4ktelrDZG6PsEUsDNfl0MrH87HY84PheSFL+duuEhe1eslE9toU+uuJOpPDNQ14xVATi1IWkuADfGv+Ix5JHyvIi7t4Yh9TamWOnfuzBVtom7QkB/e6dLtn16fvOw38cUhM54fPvuF4cF0K3FpDw0IYkQS97tewfTI0oMvBax+c/Tct0bNeXlqzGOL9wvqJ5Y4PTlKGUQOm8kfxgQhNj+qJNxGhG9Jvph7u6yivLigWFNduDdIUDCJ1eBG/0ei7v8tREMFEzv3rBaa8a07JKT4BFhvashoRVmpEIBgkkpP2GOHQwWTrvjol/ODA4NCV3ybWqBl757mCiDViHV/UFUXv58/yltpkh5fp7e45TmCiVD6hh28XV1+cU9saODMeSu+O1NcI34Pk9J3WUoFVZC8Nix4dtjKpQH99bciqSd9m60rLiw2zC8xYo6qyklOiIkICYmIT8yqu1ed8A7enasjb/y+OTo0eNbsBVHx0QFYB5MfxS1ut5wQb8MMU6vVpzuODDTn9+7g8W1jjvJkE1tMP/FphWASmR9V+W+6QlZc3rNy9hR//8kRe69TdYLJdEZWbIaVFlJU/o4Aw5VxGwSTce5ZaMaXPU4kzAi0HG+y54wm2X0hmCTbNQ0wzIGCadHus1kFpVVUDUWW3Dh3IJ59Pt9EACkHzP3uXEF5zvYANcFJc8tw01zBRBBK7wkx+85cL9LoyLvX0zIKqysOhYneha0etXz/xUINVU2W5qbE0dff6CmkIatOaGq05+Pp2zwMs1/6O1Lzy3UUeff68e3sagj0dYph8zYnXSooJ6urybKCy/sjmWfs9Hviq34CLSrEm2sm5h4m3sIKDDVFXNpzQV+KEXxlcpSYYFL6RR/VWHFJjr5wJjA/6rksRas7vpL574NqWHy61iiY+DOyYjOsyv5LD1dQmQnjDYqpoTNM3Lln8xlfMSLIN66B14DgjqJSIgDBJKXesNUWBwqmJo5pqrGb2BswGtC0+4xdeSUpy/XPyvEuFzagFhS1ikCLEky8O5mYp+S4FwSZNAOOvjoZldTbo38vT9/eHv31K1V69vHo18vTt6f3oMcW/SAmmAjCe9auHF1VTtLGZaFBs+YsXBE+wcP8khwhMj/qOunbbKr84q7okGmTJk4O23VNZxBMAjOyYjOsHtO2ZpFkfkpC1LygwOAFG4+X1PuUnMjcM2E242vVsGqhhVqaN9l6TpPofhBMEu2YBpklK8HkOm7R57GRoUEB0wNDV+08X6LN2R7gbmX09Ph44tTxk4JjE7PLriRMMl5PEDrTWFkhitVPoAWGeGaeyfp1mHjCSGzThLV62Nyvfr186562mtIUZ/+0bKiKNynLlBaeH/Wa+OmB9Jvl2poaiqy4W5CdunYCc5+fwIyscA0EQa8fm3g+r5SsrqEqSwoyT+8MGyS6pqtqqOjcs/mMr8lxYsOEQAv0pgadyyReGIJJ4h1klXmME5r4pWQ3lL7zd6Tn3C6vopf5vpWRsi3iE3f9rd/cix76dE1p4jxWE+mPx3XS5gwNpSvPO70jfDjnRnDBM41kCcjNsJYZ4q1Z6fsDNy8xbWSe39dV9Lqz3EaEmb28GV+z35HBEmiZ3mTVaUwOhSCY5NBL9dnIOCHrk0iAgAMJIMSz/gdHMx1XIjO+poWwxSUAb2K9SY4JCCY59hrfZsRxbkhC2rEEEOJZf3N6R7N2rpcZYWIzvo4df85VG7yJ9SY5JiCY5NhrfJudPo47V8yU2dFvnUa7AAAgAElEQVQgxLP+BkeT2diVnrnwJtab5JiAYJJjr/FtRhyXXmB0HosQ4ll/g6M5z7BupiOBN7HeJMcEBJMce41vMy+O9/AZwr4gnflJ7LvVmjM9vQY2U+hAs/IggBDP+hvP0eTRf7BSSgTgTaw3yTEBwSTHXuPbzIvjVqolZi/2xXNSiipGW1SDg+O3rQ8dJPruN6XfjE+3bo4wvhLLuB/+OpAAQjzrbzxHcyBkVNVCCMCbWG+SYwKCSY69xreZF8eZTeb7wejfXh8X9uaYeY8uSWRy9MvrefRx9+nj0a/LgDFNIZiU3iMC5s8Z1/BXkjR0AeIWEnSb9jCZYcMfcy1ym0EhjN/Ns/fUle9H7u8We6xb7LH3I/f3nrqScPMULozclkoA3iTryAHBJOvuMxjPi+PMpiIuzSXubI9+Q5nQ9IG7d5uYVPYnbqLRY5fZS9StbRGCyVpSjViOGSrO4Cd2HwODwpx13yETu0cldV1zhveve1RS3yETzctLLqfeqVzJWSxXg+BNdnthc1YAwdSc9B3VNi+OM5v0exuW/cyNK08u2K6IS2sde6JN7PE2scfZK3fcMo2ShmBqFKxNVClCPOunPEdjOqDvkIlcneS1Ib3/pnRuTtNppsabyhUbaza3KFahs+fDm1hvkmMCgkmOvca3mRfHmU1FXFqrNWd6efoZwrqr+wMrUxRxaT19BjM5H6rUvB3pfNWg4PW/XLp1T6urKr15PiHAjVANCv025WJusUZHUZrC5OjB9B1F6uHzv0m+lF9aRZYXXEiMm+Kjf6mCatTqlNy7Gl01VXknO3VL6BDm5iNaMNUYV/LWHl7iQTckXANBuI+K3Hkip4SkyNIbaWev3av3FVf61+7mlWupqjvXj31Pv3bXY/5PJVRWgr/h1ieVf0KWrnAPc9T4bigBhHjW3wT8xc2TN7f0Wmx6bW0tVzB1j0pqomtzjfc/E7FBY3OLYhU6ez68ifUmOSYgmOTYa3ybeXGc2WS+H12S2HFk4DvDp7VbuIebz01zYpTH1G8zqzTZh75YPGdW8PylkTMGqfRvaqPuHNsUHhwYGBI242MVQXjO3JFD3j7x9eKZk6eHbUwtpG4fCPUmCELpM35u+JyAKVNmhK8/cosqTVrUjxZS+qiatSN0vL+/v//YYfS9TCI1KH1C9t2kKjIPxEfMmb1gRUJKHkllbBgtetM3/VIUisxJTlgVMTdk8dqD1zTUjd1B3v2WHdZoz8UN1e+nHBh7iryXFME5TCQbQIAZKvwx1yK3GRRcdr2nruRqo65rzpgLpq5rztD3MzXBx2b5Uu+1bzHjbW5RrEJnz4c3yTpyQDDJuvsMxvPiOLNp/XddjOoXmVyuu7xhDOc9bYT5q22V/ZenaCqORPkxr+pUDYs/rytNDDV9VZZq7FdXtfk7ptNvgzOLqmI1KP2iUyu1F9YZn3qrN47z3iKnGrMxg6pIjuw3YOUxTdWJmIG0hR4LDpZWnYwdVHeYSDWEAEI8GyN4jkYQxPuRP1ojmN6P3M9HLq+pXKIhk8f8Q8V2HQF4E+tNckxAMMmx1/g28+I4s6mIS3tk6cGXAla/OXruW6PmvDw15rHF+9mfuAnWm9XTt+dRBpHDZpoLJvX0Hfk1NdWUzvihau7rTq4aoCTcRoRvSb6Ye7usory4oFhTXbg3SFAwidXgFrAzn8rbPs0o2BoqmAh14J6/qJxtk9UDoo9qNKkrBigJ+qDI9LX0xBg+thBghgp/zLXIbQYFF2K32GPWCKZusce4exGE3KZyGzB5bHqg2DIlAG+SdeSAYJJ19xmM58Vx+u6l1ac7jgw0dVV6693B49vGHGXKs99sMTWtV6wQTHSxokPL/cfUfUYN9VGp/DddISsu71k5e4q//+SIvdepOsFUpLv4xUhWs+gbEqiBFlJU/o4AWmXRn4YLpll7C6k/t0xyVfaPTC6rPLFqkHrcV5nklU1j2bYNVeOPtQQQ4tkYwXM0giC4gqlP/LnXYtMrddW8e5i6rjnDF0yym8rlDhaLk8fcgkibE4A3sd4kxwQEkxx7jW8zL44r4tKeC/rS3FeZnFcmRzHl2W+2pNIv+qjGikty9IUz6to3E4y6xlCB57IUre74yv7M/d/D4tO1RsEUsDNfl7N1knHiiNBfehOoQdl/6eGK/9/etYU1cbVr97Offbnv98V/sS9299W+2u3u33PXDEFORayn1mpFQBSJIEEECQWpKKLYUim2Cko9VQ5Vf0spHkpFsVSsB4QfxYIgxyiIEgOByUxS9jMzyWKYzMQkJIEJXy5gzcrMt771rnm/efPNmjVMe2m01bKrgilww4lO5sUvn7HzqYK2/DhItXy79VAr9SfoJTzGrhcgxGO+iYjG3ZKrYqco7b/NT12anJx8Jb855NC0p+Re/fKW6Jac8lK5TiePXT+/5tcRwCbMJiUWQDApcdTEPoviOLugwK7at4LC3wxe9FZQOLdSZfDbQR+8GbzojdAl/571I78//iuIWKGbK7vpie7a4py0pM1bPtudERNkf0sOoVDN6R6a6r1yJDdNszk5fVdhrjqUQAGxxzoZQ2tlbsrG2HXrtZUPaatgIhbl1I8xuroirSZZm7dDHU7IWEAoaOOJDorqry/dlZqUqEkvvj7y0qfk6OHfvt2mSUxK232sQWcabzsSy8+mUsUe66SHB4chvyQYYDeKEOIx30REQwi9FZcXf/rPp6P05OTksqOtottzeFM06VtxqVznk8dunGDz6hBgE2aTEgsgmJQ4amKfRXGc33T+77SApVqx9fCv9x+PmsyMcbjzfM5yUjSxmt9btSL1SO09nYEym6kXuvtV2dwTaSHr9lU3DxhMFgtDjT3XdTYUxfBZJdXqnVWtg0bGTOl76gu4+2PSFhAiP0w8UHO3T0+ZLcz4iK79ZoV2CT+7fJqf/Aa5POv07Q6dfoKxMNRI753qQnUEvvlGLtvbaLSY7hbC/CUJ6JyughCP+SYiGgthYHBY4bWPjt/D2si+YL+sgOJSuc4nj50+rebpjsAmzCYlFkAwKXHUxD6L4vg7gSF8jTN/3w2Y/nSbP8WxhZsq+0bqd3LPyvlTv3zbFwjxmG8iovHjIFq40l4wSS1cqbBUrvPJY9+em8prDdiE2aTEAggmJY6a2GfJOK68WOIxj4M+XhcXHavJr+l88aA0VjTTymOtzBdDEOIx3+SI5s6rUZSVykXOJo/nCyvc7SewCbNJiQUQTEocNbHPcnHcXVLPueOIxfl/sLNEpn8s+ppUKTUUEHukzcjQhr6b5Rkf4Ynmc65TSnEIQjzmmyOiWV+++xO8fFcpJ/as+AlswmxSYgEEkxJHTeyzozg+K1EBGvUjBCDEY74B0fzovJ6drgCbMJuUWADBpMRRE/sMcXx2gt/8aBVCPOab3xPNtVTu/Dj/PdtLYBNmkxILIJiUOGpin/0+jns2ZoE1lxCAEI/5BkRz6cyBne0RADZhNimxAIJJiaMm9hniuH1gghpPIQAhHvMNiOapk2re2gE2YTYpsQCCSYmjJvbZURy3zkWtgrmo8zZGz7DjEOIx3xwRbYYow+HzAwFgE2aTEgsgmJQ4amKf5eK4O087z6mwRS7VFJ48mLYEr0U5p7ybJ85AiMd8kyPaPDkToJszRwDYhNmkxAIIJiWOmthnyTguWk8v5FBzeMm0V1xJrac384AgZYEIXanetmVtqOyC3VIHsXUvfZec3IFutyhncB7XQ4jHfJMkmvXUgFTuPOaI810HNmE2KbEAgkmJoyb2WSKOBwb/365a4aLD/MtBhTX2b2xwnvau7anSnBumW7/5xOVEkduCye0WXevYvNgbQjzmmwTRuFNgFlK5Xk2+etX4vCCNbCeBTZhNSiyAYFLiqIl9to/jb8XlCbXRq1/eshdM7FvW4/Jkme3BL9yWLyCYPDgK7pqCEI/5Zk80hNDspHKdoYbbeVZnjEueTm63KGnNHyuBTZhNSiyAYFLiqIl9to/jr2f/5Ixgej27ShyUyCWag7/cezxqoif0A3dL1YGIXJJ2rL61Z9hIM4xxsC53KZsoUn207WjdvX79BGXQtdQUbAjjbreRq7+o73lupM3M+LPOhuNpy/icEiuYLLZVuk1XPw9iG5W2gNDC1dkVjd0jFEPpe5tuPxyl2w59Kp+acqVFcVdh2ykEIMRjvtkTDc1WKtcZTQM/VJw6wX26E7AJs0mJBRBMShw1sc/2cfy1/N+dEUyv5f8+PVoExR1rnzB2Xvxm+5bNmm07sjctIREZXdrBPPu9JEOTmJii3fQxiVBwQnk3NdT43faE9fHa4oZBZqg6LRQhRIRFb83Yot6wYVPGwWuPGX1t1geskOICd0d5WnRUVFRU5Ap2LpOMBSIs5dwAM9ZeXZi5JTl9d2l9H8U4FEzOtzi9o7DlNAIQ4jHf7Ik2a6lcEExOn8BzakdgE2aTEgsgmJQ4amKf7eO4UDC9XXjnlfzmcdo8OTkpUlFiwfRBdp2Bvn9ozbQXsLGCydT7fRyuJMJ31hvHru2K4CdxkysK79L6mrTAaYGJjDz8p6m/PJ592ZvdL105C0REbsO4qeXASmtKyZmrAm7VYYt4Lyi4igCEeMw3e6K5ncoVzuojVxa1mJ6e06gQuSyz8o8Hfc/YJC010nPnp/3qiKn0qmzy1ZU8K2R2XSWAR/cHNmE2KbEAgkmJoyb2WSqOV7FTlPbf5qcuTU5OvpLfHHJo2lNyr355S3RLThVf1sdYRc5UlLATTKr48n6LxczQtg9j+Yu+sXcxgQJXZhyva+0ZejFmGNYNG82DZ5MkBZOchUB1RT/TV7bRps1eLpicbXGqO1ByEQEI8Zhv9kQT/jLhf41IThYU/zJBSEYwRZd20MO/HdSmJKdk5H9/Y5AebzsSy/0UcZR8dT7PCpldF89+T+8ObMJsUmIBBJMSR03ss30cfysuL/70n09H6cnJyWVHW0WJJbwpmvStYvWKE4KJ3e3pxZ1Ra6Y+q5eHkWRUyQNq7P6ZvOQNUVHrM892MVOC6em0p+S4hiQssEKK6S9XsyqL/bxMMDnfotUg/HMdAQjxmG/2RBMKJhdSuY4EkyCbuzDuZBejv5QRipCzyVeHeVbI7Lp++nv4CGATZpMSCyCYlDhqYp/t4zgKDA4rvPbR8XtYG9kX7JcVICJyfzM6cUuOvXHGPDwaY9M11pgSnFNvoq/nhfPzv1cUNptsgkld0U93n4i1JY746C9hgQjfcXWMaS+Ntlp+mWByvkUPh735ZA5CPOabPdFez3YnlYucFExItfnsIPPoeGwA4n5jyCVfnc2zQmZ31okLbMJsUmIBBJMSR03ss30ct3/a2V4wSS1cGbq5spue6K4tzklL2rzls90ZMUHcpG/Br1425IRqTvfQVO+VI7lpms3J6bsKc9WhBAqIPdbJGForc1M2xq5br618SFsFE7Eop36M0dUVaTXJ2rwd6nBCxgJCQRtPdFBUf33prtSkRE168fURR0/JOd/irAdK5ToAIR7zzZ5o7qVyEUJnB+m24jX8/CTBHCbRfEFV4pknDPdTw0Hy1fk8K2R2Z52GwCbMJiUWQDApcdTEPtvHcT4uuLOenmrF1sO/3n88ajIzxuHO8znLSbs5TKxx1YrUI7X3dAbKbKZe6O5XZS9nY3/Iun3VzQMGk8XCUGPPdZ0NRTF8Vkm1emdV66CRMVP6nvqCSHZfaQsIkR8mHqi526enzBZmfETXfrNCu4SfXS4V7JxtUepYqHMKAQjxmG8SRHMrlYsQOtzOjFxID+ZGQFYwkWuK25ixuuwwhBwkX53Ps3L39SCz69Rp76WdgE2YTUosgGBS4qiJfZaI45ju1jc2/AQv38WQQMElBCDEY75JEk20cKVzqVwUU9pOU48uFWWlaDQpe2p6GP4pOXYJj4nuutI9mSkpmYU1HUam93RSCDdesslX5/OskNl16cz3xs7AJswmJRZAMClx1MQ+S8Zxb7AdbM5DBCDEY77JEc2dVO7CT3PO3LImUvVPupov5kda1zx70XG7ud9AM9TzrutlmZ9MLdchm3x1Ns8Kmd1Z5y+wCbNJiQUQTEocNbHPcnF81qODpxwgFuf/wT7wN/1j0dekiuade6pBsDOFAIR4zDdHRPNIKlfy9vfUUEBJ8QgAmzCblFgAwaTEURP77CiOKz7CQAdmGQEI8ZhvXicaCKZZPtm93jywCbNJiQUQTEocNbHPXo/jXg8j0MDcRQBCPOab14k2xwQTZHY9TktgE2aTEgsgmJQ4amKfvR7HPR42wKByEIAQj/kGRFPOaTtHPQU2YTYpsQCCSYmjJvYZ4vgcjY5+4RaEeMw3IJpfnNGz2QlgE2aTEgsgmJQ4amKfHcVx61zUKlhWYDbDpJLbhhCP+eaIaEoeYvDdZwgAmzCblFgAwaTEURP7LBfH3XnaeYaRg1yqKTx5MG0Jv4TxDI2JD/eqcXFjsG1FAEI85psc0eBcAQScRADYhNmkxAIIJiWOmthnyTguWk8v5FBzeEmzcFU9qVejOMl6+d1e9vY39kgidKV625a1ofLrd8vYd8a45KFutyhpbZ5VQojHfJMk2jw7HaC7M0IA2ITZpMQCCCYljprYZ4k4Hhj8f7tqhfLolfzmyclJYY39y3dnFAn4g53RNCrNuWG69ZtPXM5COWNcsg9utyhpbZ5VQojHfJMgGkLvBgTy9fZ/EULvkUpeKoyISCg49d32lS5TVY4j5IrMU5er9qz2mEG5huZqPbAJs0mJBRBMShw1sc/2cfytuDyhNnr1y1v2gunVL2+9FZfn4cDijKZxW744Y1yyP263KGltnlVCiMd8syca+5ZrVfCCgibRSfFm8CLJnUW7zfVNuWUOVOqTnfqeyqQgVzsQsOFkN/3oeCz/iklXj/aD/YFNmE1KLIBgUuKoiX22D82vZ//kjGB6PbtKFIOEuR/BO0GXZVb+8aDvmZE2M9RIz52f9qsjpn4jLlydXdHYPUIxlL636fbDUbrt0Kfct+TqL+p7nrMHjT/rbDietow/hpUvFtui3aarn3NRV/XRtqN19/r1E5RB11JTsCHMesNO1rjIcX7TlRYlDUClHQIQ4jHf7In2UsFkr6XsAJ7DFXKCiVxbcPWfvx1Y53L2DARTQdOCgiZ8RkFBWQiAYFLWeEl7ax/HX8v/3RnB9Fr+76JoLSOYoks76OHfDmpTklMy8r+/MUiPtx2J5V5yRYSlnBtgxtqrCzO3JKfvLq3voxibYCLCordmbFFv2LAp4+C1x4y+NusDVgZx+Z6O8rToqKioqMgV7Fym4ITybmqo8bvtCevjtcUNg8xQdVooQo6MixznN51vUfJwqJRAAAQTZp090eQEEyLJN4MX8XkmCUyVUiUnmNz2HwQTCCZMJwUWQDApcNDsXLaP40LB9HbhnVfym8dps2gO06tf3nJFMJl6v4+zJtIXxp3sYvSXMlhJE5HbMG5qOWCb5SB314yMPPynqb88nv1JaneDjAjfWW8cu7Yrgs8qkSsK79L6mrRAZ41Lhm+HLUoeAZWSCIBgwoSzJ5qsYLJBKZthYt+ke6FlwGBiGMow2NlcV8jfp5JLtZJLt5T82jZopOmxJ221xZqlUyleSVPkkrRj9a09w0aaYYyDdblLSSSTfyXl88esYGImBnsH9BRjGn1y79LX8dxvHpGQIpdoDv5y7/GoiZ7QD9wtVQciubacEUwS1hCS6H7QtpoRpqM02goEsfTL2yZDbWYoQpIYOg8IQkgSUjZ2SSXCidB1+6pbdAbazBiHH9Xu/tg2+BL/gU2YTUosgGBS4qiJfbaP469nV7FTlPbf5qcuTU5OvpLfHHJo2lNyr355y+lbctGlHQLBhFSbzw4y3EwElbqin+kr22ibkzBNMAWuzDhe19oz9GLMMKwbNpoHzyZJCiZVfHm/xWJmaNuHsfxF39i7ONCRcYlghJCzLUoeDJWSCECIx3yzJxr70CdBvB0UhhB6e2Ho+6SVCO8GBiOSvZK/Exjynq1SAG9Q3LF2iuqtK96xNUmTuruqkzHWfhYom2pFQRtPPqSMHTX7tRpNRuH5TiPVfixuIWdQxhSndZ79XpKhSUxM0W76mGQTtpIZX3ZPmfwxZ2Tk5omd25I1aXsqmvXmoerUUISmCSbWgQlj58Vvtm/ZrNm2I3sTu6iITFsvF0yS1qS7H5ZdN2Zq+moFr5jCPr8yNt6QG0HIpKudBwTJQCqTCOfxu16SHh8bq07NSVvLpd4Fgy0sApswm5RYAMGkxFET+2wfx9+Ky4s//efTUXpycnLZ0VbR7Tm8aT/p++wg3Va8ho9AgjlMYsGUeOYJ030iNgCxWofpL1fbJjMIBBMZVfKAGrt/Ji95Q1TU+syzXcyUYHo67Sk5TnU9vbgzas3UZ/XyMNKBcWEMwmXnW8SHQOGlCECIx3yzJxpCCOeQ+G/fXsiKJ2ElQujvoUtxDQt42PbLBqbjaAxPG+6Vbaxgkk21hn9+ZZS+f8hKTBQQWfKANlzezrYkY2q6prEbZGH+dZr6QUiQPxYZCYg98YgZPLNZNa3+g+w6A+ub7TeTw7ZeKpikrBEy3f9gcW6DcaJxz2I2Mx2svTgycfOLZQEy6eppPtv5iISAyEAqNzoqzT+GmO4ydbC9VfsaYBNmkxILIJiUOGpinyXieGBwWOG1j47fw9rIviC5rMDhdmbkQjpPfVnBRK4pbmPG6rLDECLCd1wdY9pLo62KSSCYgnPqTfT1vHDuPhu5orDZZBNM6op+mpNb1njC3XpjHtquHzjKODCO9xEWnG9ReBSUHSMAIR7zTYJoNm0k1EN8Gf9dUND0vx9GCncI2FjWx+gqN1lJgwWTbKo1vqyPsd7Q5gaLpRnTeyouAMmZktIHMvlXkWAS5I9FRojwvEbTRG1moLBeJfaNP5tk2nqZYJK0Zldp676KVUzG33IjCBSUWj08/se+pYQchoS4m0guIS0HqazlwOjCxmFmQnenujg7drGscOSAATZhNimxAIJJiaMm9lkyjosWrrQXTJILV8aUttPUo0tFWSkaTcqemh7m6TkN/4OSmeiuK92TmZKSWVjTYWR6TyeFcBEgaOOJDorqry/dlZqUqEkvvj5ifUouIPZYJ2NorcxN2Ri7br228iFtFUzEopz6MUZXV6TVJGvzdqjDCRSqOd1DU71XjuSmaTYnp+8qzFVz61rKGuejsuiv8y2KDoRNBwhAiMd8syfa20FhvBL6exibQ8IiCSeZcI1QMKnUlQOCG9lTgom9By2fauVmAHIjZVMMAUjOlFDT8IMrm38VKwkVzh+LjYTtajBRdVnTBRPrs1DMsa3JtvVSwSRlzZpplug+sSjnqsHYkLs4JPXn4bHf8z4kkFy6WtwXeSflIJW1zN6XDVmVUvDDjf5xy4uWkg3AJkwZPyuAYPKHAcWRWkRUd16NsvDTnDO3+vSU2cKM6590NV/MjyS5WMO86Ljd3G+gGep51/WyzE+mbtSzEyRr7lqPGdG136zQLuHSSiHr9lU3DxhMFgtDjT3XdTYUxfA/v1Srd1a1DhoZM6XvqS+IZO8AqlakHqm9pzNQZjP1Qne/Knu59b6gnHFRX/lNZ1uUPBgqJREAwYRjhIhoWAzZyyNhzRthS/EmjzDxYf4NytRcZH1UAgsmh6lW+r51tQ7E3pJro0f5FK+MKXt9IJt/FQkmQf5YbERKMBERub8ZxbfkZNviBFP3yfVyaRhJa1ymWbr7KFR74Znx5rcFvzwf+XU7OyFdDkNxXxCSc9LV0RGwJmRTRTcz/KOgRlwENmE2KbEAgkmJoyb2WRTHp3HU+vLdn2b08l1RSJ3WAGz4OQIQ4jHfRER7j1vjGw8/ziG9wWWb+PoFBU3vkwHvqoLwt2w9sUh7YchsaD2Tn5aYkLr7+1vDFn7St2yqNZ6b9P3zV9qkJG1hDT/pm1vATM6UHWdl86/snjL5Y5ERKcGEUOjmym56oru2OCctafOWz3ZnxATJt7XywD+ZidZT21bLvRlJwhpCQbLdRwsTT+sYiqIGf0yxLqMpg6GoLwjJOikHqUwinPwkvWCvNjEudv0m7eHGZ0zXcXxK2BeATZhNSiyAYFLiqIl9FsVxe5bOtMYu1szUIByvHAQgxGO+SRLtreBFbgwmERqz59ytrqdGmnre1dQ2aB67qOWStrKp1mUphy9zywoYB9t+LUmeWlZA2pQEZ2Xyr+yeMvljkRFpwcSmh7ce/vX+41ET+1x95/mc5SSSaQsRi7d+f0dn6C7Dz4nYgSdhDSFStvvk2sN/MkznsXVTWStJDEV9YZuVcxJJQyqTCF+oLrndO0KZLRbqRX/L+a/i2Ln4ch9gE2aTEgsgmJQ4amKfJeO4HGPdqZeINe6Y8dQx3C0M21Lh+L9FX5Nqe1jPUy2BHW5SM6xNzFNOkmjvEyRfL/f3pScRGVmCFyl76c6Od3DH1Bxjt+MO+v5bdyCV95I/ScQRHLYVggAIJoUMlEM3JeO4PGfhG0DABQQgxGPyeY5oAWuzvs7PTktSxyem7a24O2LqLlPzyyq5MDL8rjM2BYJJjPmMIRUbnNoGNmE2KbEAgkmJoyb22XNxfIrYUAIEeAQgxGO+eYxoxKJt5c3dQ4YJdpnvx231JzNXuSmX0MxNzYZgmtNJ4plDKh87gE2YTUosgGBS4qiJffZYHJfnOXwzbxGAEI/5BkSbtyzwVMeBTZhNSiyAYFLiqIl95kkIfwEB7yEgPufm5TYPr6eunWBnHiLAn0Lzkj3+0GkQTH4xityKed67WIJlQMAfeDLjPvCnwTy8zEOXPYUAfwrN+EwEA7ODAAim2cEdWgUEAAHFIQCCyVO6Yd7aAcGkONYLHQbBJEQDyoAAIAAIyCIAgmneCh1PdRwEkyy7lPAFCCYljBL4CAgAAnMAAUnB9C633jf/legvQug90jtrg5ErMk9drtqzmn+BkD6IfhcAABeLSURBVFOXc3KppvDkwbQlLhzilF3YyQUEQDDNAR677wIIJvexgyMBAUBgXiEgLZhUwdNee8JdPd8MXiS5swuXVse7vuwtthJHs2/sNbXhF9JJ7AFVXkcABJOiIwYIJkUPHzgPCAACvkNAUgO961Aw2Wspz1yTQTB5BkdfWwHB5Du6eqElEExeABVMAgKAgD8i4LxgQiT5ZvAiPs/klWsyCCavwOp1oyCYFB0YQDApevjAeUAAEPAdAi4IJtuVVzbDpPpo29G6e/36Ccqga6kp2BBGIGJx5sVB06PyhBD2aFXkgeax4cufs2/ZJZdoDv5y7/GoiZ7QD9wtVQcioWBSac4N063ffMJPTiJXFrWYnp7TcHOnFq7OrmjsHqEYSt/bdPvhKD11S07CAYSI0HX7qlt0Bpp9je6j2t0fw4Qn20h65j8IJt/R1QstgWDyAqhgEhAABPwRAUnBRBDE20HsC+rfXhj6PhnAX1ffDQxGJCs23gkMec9WKbjkBieUd1NDjd9tT1gfry1uGGSGqtNCESuZLg1RXafUwapPv74zapVLQXHH2ieMnRe/2b5ls2bbjuxNS0inBBMRlnJugBlrry7M3JKcvru0vo9ibIJJ2gH2LSn08PWS9PjYWHVqTtraQIHPUPQAAiCYFB0YQDApevjAeUAAEPAdApKCCeeQ+G/fXsiKJ2ElQujvoUtxDUKICN9Zbxy7tiuC4C7B5IrCu7S+Jo1VJ8TirF+GqM5ffm42WOUS+iC7zkDfP7TGqsX4q7YTGSYiIrdh3NRyYKU1SySY9C3ngErzjyGmu0wd7AFpACakEADB5Du6eqElEExeABVMAgKAgD8i4EAwCfUQX8Z/FxQ0/e+HkcIdVPHl/RaLmaFtH8byF31j72JOPxFLcq7qLX+N38hfxikdVXxZH9NfHj99eQInBJNKXdHP9JVttAktgWCSdSAwurBxmJnQ3akuzo5dbDtS6soPdW4hAIJJ0YEBBJOihw+cBwQAAd8hYC+Y3g4K45XQ38PYHBIWSTjJhGumCSZWyjy9uDNqzdRn9fIwTh8R4alVA9TYGGX440tuVhKnexwLpqSzg3Rb8Ro+k4TnMLGqiOkvV9uUllAwOXIgZFVKwQ83+sctL1pKNgS5JQvgIDkEQDD5jq5eaAkEkxdABZOAACDgjwhgScRfDrEYspdHwpo3wpbiTf5A7mYZ8/BojE3L4MsrsWjbzzpja3FsdFHTqOFmwSoSERG5vxmlb8l1n1zPJoHItYfbmZEL6fyNNCyYiPAdV8eY9tJoaysCwSTvAPYkZFNFNzP8Y7Kdi3gPKLiBAAgmRQcGEEyKHj5wHhAABHyHgEgwvcet8Y2vmjiH9AaXbeLrFxQ0vU8GvKsKwt9y9aGa0z001XvlSG6aZnNy+q7CXHUogbhZ2hN/lsYGIhSw5kCz0dC472MShW6u7KYnumuLc9KSNm/5bHdGTBAiVx74JzPRemrb6lACBcSUttPUo0tFWSkaTcqemh6Gf0ouaOOJDorqry/dlZqUqEkvvj6Cn5KTdoD8JL1grzYxLnb9Ju3hxmdM1/FYuC2HB9gTBRBMvqOrF1oCweQFUMEkIAAI+CMCIsHEX0DfCl7kzpVUtSL1SO09nYEym6kXuvtV2ctJVcx37dTAWQ23qgBCgXEnu+inF7ThBFKt2Hr41/uPR03s0/6d53OWk4hYvPX7OzpDdxl3y23hpzlnbvXpKbOFGdc/6Wq+mB/J3aAjP0w8UHPX+sWIrv1mhXYJP9McSTiAFqpLbveOUGaLhXrR33L+q7gw687u9BCOkUAABJOiAwMIJkUPHzgPCAACvkNAUjC9T5B8vdxficsmVM1XBEAw+Y6uXmgJBJMXQAWTgAAg4I8ISAqm+Xrph367gwAIJkUHBhBMih4+cB4QAAR8hwAIJnc0AhwjQAAEk+/o6oWWQDB5AVQwCQgAAv6IAAgmwaUfiu4gAIJJ0YEBBJOihw+cBwQAAd8hAILJHY0AxwgQAMHkO7p6oSUQTF4AFUwCAoCAPyIAgklw6YeiOwiAYFJ0YADBpOjhA+cBAUDAdwiAYHJHI8AxAgRAMPmOrl5oCQSTF0AFk4AAIOCPCIBgElz6oegOAiCYFB0YQDApevjAeUAAEPAdAiCY3NEI9scQEQkFp77bvpJ/+Z39935cA4LJd3T1QksgmLwAKpgEBAABf0TAXjAJa16LWMVvLihoei1iFf/+uAUFTf/y5Z1/zW+c/moU5ySBSn2yU99TmaSgN+ASoesLzrc+HqXNjPFJTWaYZEfJ6NIOU+/3cfPwtSsgmBQdGEAwKXr4wHlAABDwHQJCecTrof9ILsZKaEFB0zuB7GtNeOWEpcL7BPmOKhjvhutfXiDXFlz9528H1innBbiqjWW99JNrBzMSN8YnaqIXS+eQQDD57pyFljyJAAgmT6IJtgABQMCPERAJpjdCl/CySSR93gkMEcqj98kA4aZoZ7/aJFd922rqr+Beb+egYyCY/Jgkft01EEx+PbzQOUAAEPAcAiLBxEsCezG0oKDpP+Py8Lf/tqfhv2K2i/RD1plb7QPPjSaz2WTo+6O84IsTl1v79ZRpfPjhlYMJ4fw7b4XCglzOHtL/bIw9ZPTJvUtfx38g/2ZccvUX9T3PjbSZGX/W2XA8bRlO9bCv473QMmAwMQxlGOxsriuM5e6MqT7adrTuXr9+gjLoWmoKNjh87S65dEvJr22DRpoee9JWW6xZajXPOsxMWj9M26FPcbPTus/tNjHYO6CnGFFf5CyrNOeG6dZvPuENkiuLWkxPz2lUiAhdt6+6RWdgbwEOP6rd/bG1RZe6M805727ALTnP0XEWLIFgmgXQoUlAABBQIgIvFUx8bulvCftFV90FBU2iytIOeri+KHVzoibz2/rHZstoW9X+rBTN1tzK1lGz7odE7i7cNMEUzR5y7dv0ZM0W7b7T/3xhHqpODRW1gzeJsOitGVvUGzZsyjh47TGjr83i1VVQ3LF2iuqtK96xNUmTuruqkzHWfhaIUHBCeTc11Pjd9oT18drihkFmqDpN1njQxpMPKWNHzX6tRpNReL7TSLUfi1vIts06TOt+3hETFRUVtXZlhMy9RE4wjdw8sXNbsiZtT0Wz3tYXecsygolrcPh6SXp8bKw6NSdtbSAHgUvdwaD5ogCCSYnExz6DYMJQQAEQAAQAAUcIOBZM/NSl/1mZIHnhFSWiBLOeydUH79H6mlReXSzcWv2cflCyhs2UiAXT1ETpgPUnu5nBM5tlFInQAzLy8J+m/vJ4dtew7ZcNTMfRGP4wYnH+HzQrmIjwnfXGsWu7IqyJrRWFd2l9TRovPoS22DIR/vmVUfr+Ic5DhFBAZMkD2nB5Ozu/W+iw+DjB9vTdAmJPPOL64siyjGBSaf4xxHSXqYMF1pFL3REe6IMyCCZHBJvz34FgmvNDBA4CAoDA3EDAsWDCD8fx113hTCbRNHCEkEAwoZCcepOpIfcD7riAmKOddF/ZRvY+mVBYCMsIEYv2NJomajOlNQ1CgSszjte19gy9GDMM64aN5sGzSSqEAjaW9TG6yk1WmYUFkyq+vN9iMTO07cNY/qJv7F0sectPFV/Wx1gFGOexalOljuk9xT7zNt1JWf0xfTciPI/viyPLMoIJBUYXNg4zE7o71cXZsYv5x+7kuiPrjw+/AME0N6jsphcgmNwEDg4DBACB+YaASDD9LWE/X8NLJVzGu/HP0PGb/EID+NIsFEyBWXUU3ZjHT1wiI0vYhBA3b1ooLIRlNle0q8FE1WVJCyYyquQBNXb/TF7yhqio9ZlnuxheMKnUlQOMVYyxuSJbhkmlruhnnl7cGbVm6rN6eZj0BCRWjnhUMOG+OLKsSjo7SLcVW9NaU3OY2G6ErEop+OFG/7jlRUvJhiCEXOoOHhHfFPiTYb4Rx2/6C4LJb4YSOgIIAALeRQArIecvrm+ELvnvqAz7/b0qmIJz6k30dZsCW1HYbOIFE/Fh/g3K1FxkXTESCyYiIrdhnHlou1Vn762whgjfcXWMvo8ndAdElrTRo3XZbt+Sw4LJoeW1h9uZkQvp/L23aYLJ6lzIpopuZvjHZBVyqTvCrvmgDILJuxT1snUQTF4GGMwDAoCAvyDghmCSuwZ7VTAFxB7rZAytlbkpG2PXrddWPqR5wYSIRdoLQ2ZD65n8tMSE1N3f3xq28JO+QzWne2iq98qR3DTN5uT0XYW56lDJG3Jsf4LiuUnfP3+lTUrSFtbwk765xTVFaTC5zot2m8qWyVtGATGl7TT16FJRVopGk7Knpodhn5IjP0kv2KtNjItdv0l7uPEZ03Wce+bPpe7IeemVehBMig4GIJgUPXzgPCAACPgOAaUIJoRC1u2rbh4wmCwWhhp7rutsKIrh5/cQoTF7zt3qemqkqeddTW2D5rGLWu6+nmpF6pHaezoDZTZTL3T3q7KXS9+R42QEuSzl8GVuWQHjYNuvJcnCZQWmZqbLKg5ZwYSQnGWE0MJPc87c6tNTZgszrn/S1XwxP5JcqC653TtCmS0W6kV/y/mv4myrIbjUHVlHPf8FCCbf0dULLYFg8gKoYBIQAAT8EQEPCibPX4pdt2idLsU9P+f60XCEOwiAYFJ0YADBpOjhA+cBAUDAdwgoXzAFrM36Oj87LUkdn5i2t+LuiKm7TM2toOTOxR+OcR0BEEy+o6sXWgLB5AVQwSQgAAj4IwJzTTBxs7ZtC2vj/xa8ppPd9ZxYtK28uXvIMMEu8/24rf5k5ipZueSycfvW2KfwsFu2ggP37Cz4XwUIJkUHBhBMih4+cB4QAAR8h8BcE0z+pyf8vkcgmHxHVy+0BILJC6CCSUAAEPBHBEAw+b2g8XYHQTApOjCAYFL08IHzgAAg4DsEQDB5W0/4vX0QTL6jqxdaAsHkBVDBJCAACPgjAiCY/F7QeLuDIJgUHRhAMCl6+MB5QAAQ8B0CIJi8rSf83j4IJt/R1QstgWDyAqhgEhAABPwRARBMHhY0RERCwanvtltf1eJh43PSHAgmRQcGEEyKHj5wHhAABHyHgL1gEta8FrGK3+TfxYsQ4jf/5cs7/5rfuKCgaU5ewb3lFBG6vuB86+NR2swYn9Rksm+as/+Ilvy238HvavhTwnenLLTkUQRAMHkUTjAGCAAC/ouAUB7xeug/kouxElpQ0PROYAhCiFdO+Fr/PkG+owrGu+F6vy6oNpb10k+uHcxI3BifqIleLP2eFRBM/ksWv+wZCCa/HFboFCAACHgeAZFgeiN0CS+bRNLnncAQoTx6nwwQbop29s9NctW3rab+CrXKcfdAMHn+JAWLXkQABJMXwQXTgAAg4E8IiAQTLwbsxdCCgqb/jMvD3/7bnob/itkuUg5ZZ261Dzw3msxmk6Hvj/KCL05cbu3XU6bx4YdXDiaEE/zu5Oov6nueG2kzM/6ss+F42jI2UUMszrw4aHpUnsBms5Aq8kDz2PDlz23vvxW1I2mB24f8MPHAhZYBg4ld9Xuws7muMJZ7P6/qo21H6+716ycog66lpmCD7XW2IsP8Jrl0S8mv3Ft4x5601RZrbF6wSoixre3NtB36VD7DxEwM9g7oKcY0+uTepa/jP7B1XcaySnNumG795hPeILmyqMX09JxGhYjQdfuqW3QG9hbg8KPa3R9bW3SpO5J99Ggl3JJTdEAAwaTo4QPnAQFAwHcIvFQw8bmlvyXsF11kFxQ0iSpLO+jh+qLUzYmazG/rH5sto21V+7NSNFtzK1tHzbofEvnUDBEWvTVji3rDhk0ZB689ZvS1WZyeIBZnXhqiuk6pg1Wffn1nVF4uISRjAQXFHWunqN664h1bkzSpu6s6GWPtZ4EIBSeUd1NDjd9tT1gfry1uGGSGqtNCRb3Bm0EbTz6kjB01+7UaTUbh+U4j1X4sjnvXCiuYaN3PO2KioqKi1q6MkMk0cbpq5OaJnduSNWl7Kpr15qHqVLY5ecsygolrcPh6SXp8bKw6NSdtbSDnpUvdwf3yYgEEk+/o6oWWQDB5AVQwCQgAAv6IgGPBxE9d+p+VCZLXW1EiqrTD1Pt9HJfSIVcfvEfj978t3Fr9nH5QskackiEjD/9p6i+PtyqpxVm/DFGdv/zcbHAkl6Z5IrQQtv2ygek4GmOzlv8HzQomInxnvXHs2q4IPs1Drii8S+tr0njxMc0Ym+kK//zKKH3/kM3VgMiSB7Th8nZ2fjerX3AHxQdObU/fLSD2xCNm8MxmlSPLMoJJpfnHENNdpg6eMs566EJ3hAd6rwyCSdGBAQSToocPnAcEAAHfIeBYMOGH4/jLrXAmk2gaOEJIqCdCcupNpobcD7jjAmKOdtJ9ZRs5LRW4MuN4XWvP0Isxw7Bu2GgePJtky9UQS3Ku6i1/jd/I5+7TyV3ipS0EbCzrY3SVm6zGuPfssoJJFV/eb7GYGdr2YSx/0Tf2LrbeJpveiCq+rI/BEo69O7ipUsf0nmJl4HQlNP04wdb03YjwvEbTRG1moCPLMoIJBUYXNg4zE7o71cXZsYs59JBcdwQe+LoIgsl3dPVCSyCYvAAqmAQEAAF/REAkmP6WsJ+v4aUSLuPd+Gfo+M3XIlYJL85CwRSYVUfRjXn8xCUysoTNJLHTpcmokgfU2P0zeckboqLWZ57tYqYEExGeWjVAjY1Rhj++tM7nEZq3luUsqNSVA4xNlbGzoqwZJpW6op95enFn1Jqpz+rlYeJsF2+dlSMeFUwobFeDiarL4nSbnGVV0tlBuq3YmtaamsPEprxCVqUU/HCjf9zyoqVkQxBCLnVHAj4vVPEngz+SY170CQTTvBhm6CQgAAjMHAGshJy/kr4RuuS/ozLs93dGMAXn1Jvo6zYhtaKw2WQTTMSibT/rjK3FsdFFTaOGmwWrpCUNkrNAfJh/gzI1F1lXjMSCiYjIbRhnHtpu1dm7LawhwndcHaPv4wndAZElbfRoXbbbt+SwYHJoee3hdmbkQjp/722aYLI6F7KpopsZ/jFZhVzqjrBr3iuDYJo5DWfRAgimWQQfmgYEAAElIeCGYJK79DojmAJij3UyhtbK3JSNsevWaysf0rxgIsJSzg1M/FkaG4hQwJoDzUZD4z7bQ2HT25OzgIhF2gtDZkPrmfy0xITU3d/fGrbwk75DNad7aKr3ypHcNM3m5PRdhbnqUMkbcmxDQfHcpO+fv9ImJWkLa/hJ30HsN9PvtU13SrAl2s2WYXJkGQXElLbT1KNLRVkpGk3Knpoehn1KjvwkvWCvNjEudv0m7eHGZ0zXce6ZP5e6I3DMa0UQTEoivJ2vIJjsIIEKQAAQAASkEPCxYEIoZN2+6uYBg8liYaix57rOhqKYAKSK+a6dGjir4VYVQCgw7mQX/fSC1rYUwfRrvaQFdhciNGbPuVtdT4009byrqW3QPHZRy03uVq1IPVJ7T2egzGbqhe5+VfZymfQVa4VclnL4MresgHGw7deSZOGyAi5P+sYZJkeWEUILP805c6tPT5ktzLj+SVfzxfxIcqG65HbvCGW2WKgX/S3nv4qzrYbgUnemY+eNLRBMUsRSTB0IJsUMFTgKCAACs4uABwWTNy7Gbtu0zpuyPoHnthk48OUIgGCaXQrPsHUQTDMEEA4HBACB+YKAHwmmgLVZX+dnpyWp4xPT9lbcHTF1l6m5FZRefs2HPWaAAAgmRQcLEEyKHj5wHhAABHyHwJwVTNysbdvC2vi/BS/uZHeFJxZtK2/uHjJMsMt8P26rP5m5SlYuuWzcvjX2KTzslq3gwD07C35TAYLJd3T1QksgmLwAKpgEBAABf0Rgzgomv9ETft8REEyKDgwgmBQ9fOA8IAAI+A4BEEx+L2i83UEQTL6jqxdaAsHkBVDBJCAACPgjAiCYvK0n/N4+CCZFBwYQTIoePnAeEAAEfIcAf7WDv4DADBHw3SkLLXkUARBMHoUTjAECgID/IjDDyyQcDgjwCPgvRfy8ZyCY/HyAoXuAACAACAACgAAgMHMEQDDNHEOwAAgAAoAAIAAIAAJ+jgAIJj8fYOgeIAAIAAKAACAACMwcgf8HjfwnbAwOQy0AAAAASUVORK5CYII=;" vertex="1" parent="WIyWlLk6GJQsqaUBKTNV-1">
          <mxGeometry x="20" y="490" width="784" height="539" as="geometry" />
        </mxCell>
        <mxCell id="wQ62t_w65snC_HTTtGNE-7" value="" style="curved=1;endArrow=classic;html=1;strokeColor=#b85450;strokeWidth=2;fillColor=#f8cecc;" edge="1" parent="WIyWlLk6GJQsqaUBKTNV-1">
          <mxGeometry width="50" height="50" relative="1" as="geometry">
            <mxPoint x="528" y="810" as="sourcePoint" />
            <mxPoint x="637.5" y="600" as="targetPoint" />
            <Array as="points">
              <mxPoint x="460" y="820" />
              <mxPoint x="776" y="770" />
              <mxPoint x="580.5" y="630" />
            </Array>
          </mxGeometry>
        </mxCell>
        <mxCell id="wQ62t_w65snC_HTTtGNE-8" value="" style="curved=1;endArrow=classic;html=1;strokeColor=#b85450;strokeWidth=2;fillColor=#f8cecc;" edge="1" parent="WIyWlLk6GJQsqaUBKTNV-1">
          <mxGeometry width="50" height="50" relative="1" as="geometry">
            <mxPoint x="190" y="890" as="sourcePoint" />
            <mxPoint x="150" y="590" as="targetPoint" />
            <Array as="points">
              <mxPoint x="100" y="880" />
              <mxPoint x="210" y="610" />
            </Array>
          </mxGeometry>
        </mxCell>
      </root>
    </mxGraphModel>
  </diagram>
</mxfile>
